M48
; DRILL file {KiCad (6.0.2)} date Fri Nov 25 11:40:49 2022
; FORMAT={-:-/ absolute / metric / decimal}
; #@! TF.CreationDate,2022-11-25T11:40:49-08:00
; #@! TF.GenerationSoftware,Kicad,Pcbnew,(6.0.2)
; #@! TF.FileFunction,Plated,1,2,PTH
FMAT,2
METRIC
; #@! TA.AperFunction,Plated,PTH,ViaDrill
T1C0.400
; #@! TA.AperFunction,Plated,PTH,ComponentDrill
T2C0.800
; #@! TA.AperFunction,Plated,PTH,ComponentDrill
T3C1.000
%
G90
G05
T1
X97.79Y-86.36
X101.6Y-90.17
X101.6Y-93.98
X102.87Y-111.76
X104.14Y-90.17
X107.315Y-67.945
X107.95Y-74.93
X107.95Y-78.74
X109.22Y-72.39
X143.51Y-107.315
X144.145Y-93.345
X146.05Y-81.915
X146.05Y-86.995
X147.955Y-67.945
X147.955Y-75.565
X148.59Y-111.76
X149.86Y-70.485
T2
X97.78Y-96.505
X97.78Y-99.045
X97.78Y-101.585
X97.8Y-78.74
X97.8Y-81.28
X97.8Y-83.82
X105.4Y-96.505
X105.4Y-99.045
X105.4Y-101.585
X105.42Y-78.74
X105.42Y-81.28
X105.42Y-83.82
X140.97Y-78.74
X140.97Y-81.28
X140.97Y-83.82
X140.98Y-96.535
X140.98Y-99.075
X140.98Y-101.615
X148.59Y-78.74
X148.59Y-81.28
X148.59Y-83.82
X148.6Y-96.535
X148.6Y-99.075
X148.6Y-101.615
T3
X97.79Y-88.9
X97.79Y-91.44
X111.76Y-60.96
X111.76Y-67.32
X111.76Y-69.86
X111.76Y-72.4
X111.76Y-74.94
X111.76Y-77.48
X111.76Y-80.02
X111.76Y-82.56
X111.76Y-85.1
X111.76Y-87.64
X111.76Y-90.18
X111.76Y-92.72
X111.76Y-95.26
X111.76Y-97.8
X111.76Y-100.34
X111.76Y-102.88
X111.76Y-105.42
X111.76Y-107.96
X111.76Y-110.5
X111.76Y-113.04
X111.76Y-119.38
X114.3Y-60.96
X114.3Y-119.38
X132.08Y-60.96
X134.56Y-67.31
X134.56Y-69.85
X134.56Y-72.39
X134.56Y-74.93
X134.56Y-77.47
X134.56Y-80.01
X134.56Y-82.55
X134.56Y-85.09
X134.56Y-87.63
X134.56Y-90.17
X134.56Y-92.71
X134.56Y-95.25
X134.56Y-97.79
X134.56Y-100.33
X134.56Y-102.87
X134.56Y-105.41
X134.56Y-107.95
X134.56Y-110.49
X134.56Y-113.03
X134.62Y-60.96
X148.59Y-88.9
X148.59Y-91.44
T0
M30
