G04 #@! TF.GenerationSoftware,KiCad,Pcbnew,(6.0.2)*
G04 #@! TF.CreationDate,2022-11-25T11:25:03-08:00*
G04 #@! TF.ProjectId,robot_pcb,726f626f-745f-4706-9362-2e6b69636164,rev?*
G04 #@! TF.SameCoordinates,Original*
G04 #@! TF.FileFunction,Soldermask,Top*
G04 #@! TF.FilePolarity,Negative*
%FSLAX46Y46*%
G04 Gerber Fmt 4.6, Leading zero omitted, Abs format (unit mm)*
G04 Created by KiCad (PCBNEW (6.0.2)) date 2022-11-25 11:25:03*
%MOMM*%
%LPD*%
G01*
G04 APERTURE LIST*
G04 Aperture macros list*
%AMRoundRect*
0 Rectangle with rounded corners*
0 $1 Rounding radius*
0 $2 $3 $4 $5 $6 $7 $8 $9 X,Y pos of 4 corners*
0 Add a 4 corners polygon primitive as box body*
4,1,4,$2,$3,$4,$5,$6,$7,$8,$9,$2,$3,0*
0 Add four circle primitives for the rounded corners*
1,1,$1+$1,$2,$3*
1,1,$1+$1,$4,$5*
1,1,$1+$1,$6,$7*
1,1,$1+$1,$8,$9*
0 Add four rect primitives between the rounded corners*
20,1,$1+$1,$2,$3,$4,$5,0*
20,1,$1+$1,$4,$5,$6,$7,0*
20,1,$1+$1,$6,$7,$8,$9,0*
20,1,$1+$1,$8,$9,$2,$3,0*%
G04 Aperture macros list end*
%ADD10R,1.700000X1.700000*%
%ADD11O,1.700000X1.700000*%
%ADD12RoundRect,0.041300X0.748700X0.253700X-0.748700X0.253700X-0.748700X-0.253700X0.748700X-0.253700X0*%
%ADD13C,2.700000*%
%ADD14RoundRect,0.100000X0.217500X0.100000X-0.217500X0.100000X-0.217500X-0.100000X0.217500X-0.100000X0*%
%ADD15R,1.600000X1.600000*%
%ADD16O,1.600000X1.600000*%
%ADD17RoundRect,0.100000X-0.217500X-0.100000X0.217500X-0.100000X0.217500X0.100000X-0.217500X0.100000X0*%
G04 APERTURE END LIST*
D10*
X111760000Y-119380000D03*
D11*
X114300000Y-119380000D03*
D12*
X105495000Y-108585000D03*
X105495000Y-107315000D03*
X105495000Y-106045000D03*
X105495000Y-104775000D03*
X100245000Y-104775000D03*
X100245000Y-106045000D03*
X100245000Y-107315000D03*
X100245000Y-108585000D03*
X105495000Y-69215000D03*
X105495000Y-67945000D03*
X105495000Y-66675000D03*
X105495000Y-65405000D03*
X100245000Y-65405000D03*
X100245000Y-66675000D03*
X100245000Y-67945000D03*
X100245000Y-69215000D03*
D10*
X111760000Y-67320000D03*
D11*
X111760000Y-69860000D03*
X111760000Y-72400000D03*
X111760000Y-74940000D03*
X111760000Y-77480000D03*
X111760000Y-80020000D03*
X111760000Y-82560000D03*
X111760000Y-85100000D03*
X111760000Y-87640000D03*
X111760000Y-90180000D03*
X111760000Y-92720000D03*
X111760000Y-95260000D03*
X111760000Y-97800000D03*
X111760000Y-100340000D03*
X111760000Y-102880000D03*
X111760000Y-105420000D03*
X111760000Y-107960000D03*
X111760000Y-110500000D03*
X111760000Y-113040000D03*
D12*
X105495000Y-114935000D03*
X105495000Y-113665000D03*
X105495000Y-112395000D03*
X105495000Y-111125000D03*
X100245000Y-111125000D03*
X100245000Y-112395000D03*
X100245000Y-113665000D03*
X100245000Y-114935000D03*
D13*
X95250000Y-60960000D03*
D12*
X146135000Y-75565000D03*
X146135000Y-74295000D03*
X146135000Y-73025000D03*
X146135000Y-71755000D03*
X140885000Y-71755000D03*
X140885000Y-73025000D03*
X140885000Y-74295000D03*
X140885000Y-75565000D03*
D10*
X114300000Y-60960000D03*
D11*
X111760000Y-60960000D03*
D14*
X141377500Y-88900000D03*
X140562500Y-88900000D03*
D12*
X146135000Y-108585000D03*
X146135000Y-107315000D03*
X146135000Y-106045000D03*
X146135000Y-104775000D03*
X140885000Y-104775000D03*
X140885000Y-106045000D03*
X140885000Y-107315000D03*
X140885000Y-108585000D03*
D15*
X140970000Y-78740000D03*
D16*
X140970000Y-81280000D03*
X140970000Y-83820000D03*
X148590000Y-83820000D03*
X148590000Y-81280000D03*
X148590000Y-78740000D03*
D12*
X146135000Y-114935000D03*
X146135000Y-113665000D03*
X146135000Y-112395000D03*
X146135000Y-111125000D03*
X140885000Y-111125000D03*
X140885000Y-112395000D03*
X140885000Y-113665000D03*
X140885000Y-114935000D03*
D17*
X102462500Y-91440000D03*
X103277500Y-91440000D03*
D10*
X134560000Y-67310000D03*
D11*
X134560000Y-69850000D03*
X134560000Y-72390000D03*
X134560000Y-74930000D03*
X134560000Y-77470000D03*
X134560000Y-80010000D03*
X134560000Y-82550000D03*
X134560000Y-85090000D03*
X134560000Y-87630000D03*
X134560000Y-90170000D03*
X134560000Y-92710000D03*
X134560000Y-95250000D03*
X134560000Y-97790000D03*
X134560000Y-100330000D03*
X134560000Y-102870000D03*
X134560000Y-105410000D03*
X134560000Y-107950000D03*
X134560000Y-110490000D03*
X134560000Y-113030000D03*
D14*
X141377500Y-91440000D03*
X140562500Y-91440000D03*
D12*
X105495000Y-75565000D03*
X105495000Y-74295000D03*
X105495000Y-73025000D03*
X105495000Y-71755000D03*
X100245000Y-71755000D03*
X100245000Y-73025000D03*
X100245000Y-74295000D03*
X100245000Y-75565000D03*
D13*
X153035000Y-60960000D03*
D17*
X105002500Y-88900000D03*
X105817500Y-88900000D03*
D15*
X97800000Y-78740000D03*
D16*
X97800000Y-81280000D03*
X97800000Y-83820000D03*
X105420000Y-83820000D03*
X105420000Y-81280000D03*
X105420000Y-78740000D03*
D13*
X95250000Y-119380000D03*
D12*
X146135000Y-69215000D03*
X146135000Y-67945000D03*
X146135000Y-66675000D03*
X146135000Y-65405000D03*
X140885000Y-65405000D03*
X140885000Y-66675000D03*
X140885000Y-67945000D03*
X140885000Y-69215000D03*
D15*
X140980000Y-96535000D03*
D16*
X140980000Y-99075000D03*
X140980000Y-101615000D03*
X148600000Y-101615000D03*
X148600000Y-99075000D03*
X148600000Y-96535000D03*
D14*
X143917500Y-88900000D03*
X143102500Y-88900000D03*
D10*
X132080000Y-60960000D03*
D11*
X134620000Y-60960000D03*
D13*
X153035000Y-119380000D03*
D10*
X97790000Y-88900000D03*
D11*
X97790000Y-91440000D03*
D10*
X148590000Y-88900000D03*
D11*
X148590000Y-91440000D03*
D14*
X103287500Y-88900000D03*
X102472500Y-88900000D03*
D17*
X143102500Y-91440000D03*
X143917500Y-91440000D03*
D15*
X105400000Y-101585000D03*
D16*
X105400000Y-99045000D03*
X105400000Y-96505000D03*
X97780000Y-96505000D03*
X97780000Y-99045000D03*
X97780000Y-101585000D03*
D17*
X105002500Y-91440000D03*
X105817500Y-91440000D03*
M02*
