G04 #@! TF.GenerationSoftware,KiCad,Pcbnew,(6.0.2)*
G04 #@! TF.CreationDate,2022-11-25T11:40:26-08:00*
G04 #@! TF.ProjectId,robot_pcb,726f626f-745f-4706-9362-2e6b69636164,rev?*
G04 #@! TF.SameCoordinates,Original*
G04 #@! TF.FileFunction,Copper,L1,Top*
G04 #@! TF.FilePolarity,Positive*
%FSLAX46Y46*%
G04 Gerber Fmt 4.6, Leading zero omitted, Abs format (unit mm)*
G04 Created by KiCad (PCBNEW (6.0.2)) date 2022-11-25 11:40:26*
%MOMM*%
%LPD*%
G01*
G04 APERTURE LIST*
G04 Aperture macros list*
%AMRoundRect*
0 Rectangle with rounded corners*
0 $1 Rounding radius*
0 $2 $3 $4 $5 $6 $7 $8 $9 X,Y pos of 4 corners*
0 Add a 4 corners polygon primitive as box body*
4,1,4,$2,$3,$4,$5,$6,$7,$8,$9,$2,$3,0*
0 Add four circle primitives for the rounded corners*
1,1,$1+$1,$2,$3*
1,1,$1+$1,$4,$5*
1,1,$1+$1,$6,$7*
1,1,$1+$1,$8,$9*
0 Add four rect primitives between the rounded corners*
20,1,$1+$1,$2,$3,$4,$5,0*
20,1,$1+$1,$4,$5,$6,$7,0*
20,1,$1+$1,$6,$7,$8,$9,0*
20,1,$1+$1,$8,$9,$2,$3,0*%
G04 Aperture macros list end*
G04 #@! TA.AperFunction,ComponentPad*
%ADD10R,1.700000X1.700000*%
G04 #@! TD*
G04 #@! TA.AperFunction,ComponentPad*
%ADD11O,1.700000X1.700000*%
G04 #@! TD*
G04 #@! TA.AperFunction,SMDPad,CuDef*
%ADD12RoundRect,0.041300X0.748700X0.253700X-0.748700X0.253700X-0.748700X-0.253700X0.748700X-0.253700X0*%
G04 #@! TD*
G04 #@! TA.AperFunction,SMDPad,CuDef*
%ADD13RoundRect,0.100000X0.217500X0.100000X-0.217500X0.100000X-0.217500X-0.100000X0.217500X-0.100000X0*%
G04 #@! TD*
G04 #@! TA.AperFunction,ComponentPad*
%ADD14R,1.600000X1.600000*%
G04 #@! TD*
G04 #@! TA.AperFunction,ComponentPad*
%ADD15O,1.600000X1.600000*%
G04 #@! TD*
G04 #@! TA.AperFunction,SMDPad,CuDef*
%ADD16RoundRect,0.100000X-0.217500X-0.100000X0.217500X-0.100000X0.217500X0.100000X-0.217500X0.100000X0*%
G04 #@! TD*
G04 #@! TA.AperFunction,ViaPad*
%ADD17C,0.800000*%
G04 #@! TD*
G04 #@! TA.AperFunction,Conductor*
%ADD18C,0.250000*%
G04 #@! TD*
G04 APERTURE END LIST*
D10*
X111760000Y-119380000D03*
D11*
X114300000Y-119380000D03*
D12*
X105495000Y-108585000D03*
X105495000Y-107315000D03*
X105495000Y-106045000D03*
X105495000Y-104775000D03*
X100245000Y-104775000D03*
X100245000Y-106045000D03*
X100245000Y-107315000D03*
X100245000Y-108585000D03*
X105495000Y-69215000D03*
X105495000Y-67945000D03*
X105495000Y-66675000D03*
X105495000Y-65405000D03*
X100245000Y-65405000D03*
X100245000Y-66675000D03*
X100245000Y-67945000D03*
X100245000Y-69215000D03*
D10*
X111760000Y-67320000D03*
D11*
X111760000Y-69860000D03*
X111760000Y-72400000D03*
X111760000Y-74940000D03*
X111760000Y-77480000D03*
X111760000Y-80020000D03*
X111760000Y-82560000D03*
X111760000Y-85100000D03*
X111760000Y-87640000D03*
X111760000Y-90180000D03*
X111760000Y-92720000D03*
X111760000Y-95260000D03*
X111760000Y-97800000D03*
X111760000Y-100340000D03*
X111760000Y-102880000D03*
X111760000Y-105420000D03*
X111760000Y-107960000D03*
X111760000Y-110500000D03*
X111760000Y-113040000D03*
D12*
X105495000Y-114935000D03*
X105495000Y-113665000D03*
X105495000Y-112395000D03*
X105495000Y-111125000D03*
X100245000Y-111125000D03*
X100245000Y-112395000D03*
X100245000Y-113665000D03*
X100245000Y-114935000D03*
X146135000Y-75565000D03*
X146135000Y-74295000D03*
X146135000Y-73025000D03*
X146135000Y-71755000D03*
X140885000Y-71755000D03*
X140885000Y-73025000D03*
X140885000Y-74295000D03*
X140885000Y-75565000D03*
D10*
X114300000Y-60960000D03*
D11*
X111760000Y-60960000D03*
D13*
X141377500Y-88900000D03*
X140562500Y-88900000D03*
D12*
X146135000Y-108585000D03*
X146135000Y-107315000D03*
X146135000Y-106045000D03*
X146135000Y-104775000D03*
X140885000Y-104775000D03*
X140885000Y-106045000D03*
X140885000Y-107315000D03*
X140885000Y-108585000D03*
D14*
X140970000Y-78740000D03*
D15*
X140970000Y-81280000D03*
X140970000Y-83820000D03*
X148590000Y-83820000D03*
X148590000Y-81280000D03*
X148590000Y-78740000D03*
D12*
X146135000Y-114935000D03*
X146135000Y-113665000D03*
X146135000Y-112395000D03*
X146135000Y-111125000D03*
X140885000Y-111125000D03*
X140885000Y-112395000D03*
X140885000Y-113665000D03*
X140885000Y-114935000D03*
D16*
X102462500Y-91440000D03*
X103277500Y-91440000D03*
D10*
X134560000Y-67310000D03*
D11*
X134560000Y-69850000D03*
X134560000Y-72390000D03*
X134560000Y-74930000D03*
X134560000Y-77470000D03*
X134560000Y-80010000D03*
X134560000Y-82550000D03*
X134560000Y-85090000D03*
X134560000Y-87630000D03*
X134560000Y-90170000D03*
X134560000Y-92710000D03*
X134560000Y-95250000D03*
X134560000Y-97790000D03*
X134560000Y-100330000D03*
X134560000Y-102870000D03*
X134560000Y-105410000D03*
X134560000Y-107950000D03*
X134560000Y-110490000D03*
X134560000Y-113030000D03*
D13*
X141377500Y-91440000D03*
X140562500Y-91440000D03*
D12*
X105495000Y-75565000D03*
X105495000Y-74295000D03*
X105495000Y-73025000D03*
X105495000Y-71755000D03*
X100245000Y-71755000D03*
X100245000Y-73025000D03*
X100245000Y-74295000D03*
X100245000Y-75565000D03*
D16*
X105002500Y-88900000D03*
X105817500Y-88900000D03*
D14*
X97800000Y-78740000D03*
D15*
X97800000Y-81280000D03*
X97800000Y-83820000D03*
X105420000Y-83820000D03*
X105420000Y-81280000D03*
X105420000Y-78740000D03*
D12*
X146135000Y-69215000D03*
X146135000Y-67945000D03*
X146135000Y-66675000D03*
X146135000Y-65405000D03*
X140885000Y-65405000D03*
X140885000Y-66675000D03*
X140885000Y-67945000D03*
X140885000Y-69215000D03*
D14*
X140980000Y-96535000D03*
D15*
X140980000Y-99075000D03*
X140980000Y-101615000D03*
X148600000Y-101615000D03*
X148600000Y-99075000D03*
X148600000Y-96535000D03*
D13*
X143917500Y-88900000D03*
X143102500Y-88900000D03*
D10*
X132080000Y-60960000D03*
D11*
X134620000Y-60960000D03*
D10*
X97790000Y-88900000D03*
D11*
X97790000Y-91440000D03*
D10*
X148590000Y-88900000D03*
D11*
X148590000Y-91440000D03*
D13*
X103287500Y-88900000D03*
X102472500Y-88900000D03*
D16*
X143102500Y-91440000D03*
X143917500Y-91440000D03*
D14*
X105400000Y-101585000D03*
D15*
X105400000Y-99045000D03*
X105400000Y-96505000D03*
X97780000Y-96505000D03*
X97780000Y-99045000D03*
X97780000Y-101585000D03*
D16*
X105002500Y-91440000D03*
X105817500Y-91440000D03*
D17*
X104140000Y-90170000D03*
X101600000Y-90170000D03*
X107315000Y-67945000D03*
X107950000Y-74930000D03*
X97790000Y-86360000D03*
X107950000Y-78740000D03*
X149860000Y-70485000D03*
X109220000Y-72390000D03*
X102870000Y-111760000D03*
X148590000Y-111760000D03*
X101600000Y-93980000D03*
X147955000Y-75565000D03*
X147955000Y-67945000D03*
X146050000Y-81915000D03*
X146050000Y-86995000D03*
X144145000Y-93345000D03*
X143510000Y-107315000D03*
D18*
X105002500Y-89307500D02*
X104140000Y-90170000D01*
X101600000Y-90170000D02*
X101600000Y-81280000D01*
X105002500Y-88900000D02*
X105002500Y-89307500D01*
X99060000Y-78740000D02*
X97800000Y-78740000D01*
X101600000Y-81280000D02*
X99060000Y-78740000D01*
X114300000Y-66040000D02*
X114300000Y-60960000D01*
X113020000Y-67320000D02*
X114300000Y-66040000D01*
X111760000Y-67320000D02*
X113020000Y-67320000D01*
X146135000Y-106045000D02*
X144145000Y-106045000D01*
X103277500Y-102642500D02*
X104140000Y-103505000D01*
X142240000Y-93980000D02*
X142240000Y-90805000D01*
X116840000Y-68580000D02*
X124460000Y-60960000D01*
X124460000Y-60960000D02*
X132080000Y-60960000D01*
X104775000Y-66675000D02*
X105495000Y-66675000D01*
X143510000Y-105410000D02*
X143510000Y-95250000D01*
X107315000Y-105410000D02*
X106680000Y-106045000D01*
X143102500Y-90522139D02*
X143917500Y-91337139D01*
X103277500Y-91440000D02*
X103277500Y-89807861D01*
X106680000Y-106045000D02*
X105495000Y-106045000D01*
X143102500Y-88900000D02*
X143102500Y-68352500D01*
X103277500Y-89807861D02*
X102472500Y-89002861D01*
X102472500Y-68977500D02*
X104775000Y-66675000D01*
X143102500Y-68352500D02*
X144780000Y-66675000D01*
X143917500Y-91337139D02*
X143917500Y-91440000D01*
X144780000Y-66675000D02*
X146135000Y-66675000D01*
X144145000Y-106045000D02*
X143510000Y-105410000D01*
X102472500Y-89002861D02*
X102472500Y-88900000D01*
X107315000Y-66675000D02*
X109220000Y-68580000D01*
X133254511Y-59785489D02*
X132080000Y-60960000D01*
X109220000Y-68580000D02*
X116840000Y-68580000D01*
X144780000Y-66675000D02*
X137890489Y-59785489D01*
X103277500Y-91440000D02*
X103277500Y-102642500D01*
X137890489Y-59785489D02*
X133254511Y-59785489D01*
X142522861Y-90522139D02*
X143102500Y-90522139D01*
X105495000Y-66675000D02*
X107315000Y-66675000D01*
X106680000Y-103505000D02*
X107315000Y-104140000D01*
X143510000Y-95250000D02*
X142240000Y-93980000D01*
X104140000Y-103505000D02*
X106680000Y-103505000D01*
X102472500Y-88900000D02*
X102472500Y-68977500D01*
X142240000Y-90805000D02*
X142522861Y-90522139D01*
X143102500Y-88900000D02*
X143102500Y-90522139D01*
X107315000Y-104140000D02*
X107315000Y-105410000D01*
X141377500Y-88900000D02*
X141377500Y-88037500D01*
X139065000Y-80645000D02*
X140970000Y-78740000D01*
X141377500Y-88037500D02*
X139065000Y-85725000D01*
X139065000Y-85725000D02*
X139065000Y-80645000D01*
X140980000Y-96535000D02*
X141377500Y-96137500D01*
X141377500Y-96137500D02*
X141377500Y-91440000D01*
X111760000Y-87640000D02*
X109210000Y-87640000D01*
X109210000Y-87640000D02*
X107950000Y-88900000D01*
X107950000Y-88900000D02*
X105817500Y-88900000D01*
X140562500Y-88900000D02*
X138370000Y-88900000D01*
X138370000Y-88900000D02*
X134560000Y-85090000D01*
X107960000Y-90180000D02*
X111760000Y-90180000D01*
X106680000Y-91440000D02*
X107950000Y-90170000D01*
X107950000Y-90170000D02*
X107960000Y-90180000D01*
X105817500Y-91440000D02*
X106680000Y-91440000D01*
X140562500Y-91440000D02*
X138370000Y-91440000D01*
X138370000Y-91440000D02*
X134560000Y-87630000D01*
X111760000Y-113040000D02*
X111760000Y-119380000D01*
X107950000Y-100330000D02*
X107950000Y-94490361D01*
X105002500Y-91542861D02*
X105002500Y-91440000D01*
X105400000Y-101585000D02*
X106695000Y-101585000D01*
X107950000Y-94490361D02*
X105002500Y-91542861D01*
X106695000Y-101585000D02*
X107950000Y-100330000D01*
X97790000Y-88900000D02*
X97790000Y-86360000D01*
X105495000Y-67945000D02*
X107315000Y-67945000D01*
X107950000Y-74930000D02*
X107315000Y-74295000D01*
X107315000Y-74295000D02*
X105495000Y-74295000D01*
X104140000Y-107315000D02*
X105495000Y-107315000D01*
X101600000Y-104775000D02*
X104140000Y-107315000D01*
X107950000Y-107950000D02*
X107315000Y-107315000D01*
X97790000Y-91440000D02*
X97790000Y-93980000D01*
X105744747Y-113665000D02*
X107950000Y-111459747D01*
X105495000Y-113665000D02*
X105744747Y-113665000D01*
X107950000Y-111459747D02*
X107950000Y-107950000D01*
X97790000Y-93980000D02*
X101600000Y-97790000D01*
X101600000Y-97790000D02*
X101600000Y-104775000D01*
X107315000Y-107315000D02*
X105495000Y-107315000D01*
X145415000Y-74295000D02*
X146135000Y-74295000D01*
X144145000Y-75565000D02*
X145415000Y-74295000D01*
X144780000Y-83820000D02*
X144145000Y-83185000D01*
X145415000Y-74295000D02*
X144145000Y-73025000D01*
X145415000Y-67945000D02*
X146135000Y-67945000D01*
X148590000Y-87630000D02*
X145415000Y-84455000D01*
X148590000Y-88900000D02*
X148590000Y-87630000D01*
X144145000Y-69215000D02*
X145415000Y-67945000D01*
X145415000Y-84455000D02*
X144780000Y-83820000D01*
X144145000Y-83185000D02*
X144145000Y-75565000D01*
X144145000Y-73025000D02*
X144145000Y-69215000D01*
X148590000Y-91440000D02*
X146050000Y-93980000D01*
X149860000Y-112395000D02*
X149860000Y-108585000D01*
X146050000Y-93980000D02*
X146050000Y-101600000D01*
X148590000Y-107315000D02*
X146135000Y-107315000D01*
X148590000Y-107315000D02*
X148590000Y-104140000D01*
X149860000Y-108585000D02*
X148590000Y-107315000D01*
X146135000Y-113665000D02*
X148590000Y-113665000D01*
X148590000Y-104140000D02*
X146050000Y-101600000D01*
X148590000Y-113665000D02*
X149860000Y-112395000D01*
X102870000Y-111760000D02*
X103505000Y-112395000D01*
X151130000Y-81280000D02*
X151130000Y-71755000D01*
X147955000Y-112395000D02*
X148590000Y-111760000D01*
X148590000Y-83820000D02*
X151130000Y-81280000D01*
X147955000Y-73025000D02*
X146135000Y-73025000D01*
X146135000Y-112395000D02*
X147955000Y-112395000D01*
X147955000Y-73025000D02*
X149860000Y-71120000D01*
X103505000Y-112395000D02*
X105495000Y-112395000D01*
X109220000Y-77470000D02*
X109220000Y-72390000D01*
X107950000Y-78740000D02*
X109220000Y-77470000D01*
X149860000Y-70485000D02*
X149860000Y-71120000D01*
X105495000Y-73025000D02*
X108585000Y-73025000D01*
X151130000Y-71755000D02*
X149860000Y-70485000D01*
X108585000Y-73025000D02*
X109220000Y-72390000D01*
X104140000Y-69850000D02*
X104140000Y-74930000D01*
X106680000Y-80020000D02*
X106680000Y-76750000D01*
X105420000Y-81280000D02*
X106680000Y-80020000D01*
X106680000Y-76750000D02*
X105495000Y-75565000D01*
X103287500Y-83412500D02*
X103287500Y-88900000D01*
X105420000Y-81280000D02*
X103287500Y-83412500D01*
X105495000Y-69215000D02*
X104775000Y-69215000D01*
X104775000Y-75565000D02*
X105495000Y-75565000D01*
X104775000Y-69215000D02*
X104140000Y-69850000D01*
X104140000Y-74930000D02*
X104775000Y-75565000D01*
X97780000Y-99045000D02*
X96535000Y-99045000D01*
X101600000Y-92302500D02*
X102462500Y-91440000D01*
X98425000Y-109855000D02*
X101600000Y-109855000D01*
X101600000Y-113030000D02*
X101600000Y-109855000D01*
X105495000Y-114935000D02*
X103505000Y-114935000D01*
X95250000Y-106680000D02*
X98425000Y-109855000D01*
X101600000Y-93980000D02*
X101600000Y-92302500D01*
X103505000Y-114935000D02*
X101600000Y-113030000D01*
X101600000Y-109855000D02*
X104775000Y-109855000D01*
X96535000Y-99045000D02*
X95250000Y-100330000D01*
X105495000Y-109135000D02*
X105495000Y-108585000D01*
X95250000Y-100330000D02*
X95250000Y-106680000D01*
X104775000Y-109855000D02*
X105495000Y-109135000D01*
X143917500Y-88900000D02*
X144145000Y-88900000D01*
X146685000Y-81280000D02*
X146050000Y-81915000D01*
X146685000Y-69215000D02*
X146135000Y-69215000D01*
X147955000Y-75565000D02*
X146135000Y-75565000D01*
X148590000Y-81280000D02*
X146135000Y-78825000D01*
X147955000Y-67945000D02*
X146685000Y-69215000D01*
X148590000Y-81280000D02*
X146685000Y-81280000D01*
X144145000Y-88900000D02*
X146050000Y-86995000D01*
X146135000Y-78825000D02*
X146135000Y-75565000D01*
X146135000Y-114935000D02*
X145885253Y-114935000D01*
X146135000Y-108585000D02*
X144780000Y-108585000D01*
X144780000Y-108585000D02*
X143510000Y-107315000D01*
X144145000Y-110575000D02*
X146135000Y-108585000D01*
X145885253Y-114935000D02*
X144145000Y-113194747D01*
X144145000Y-93345000D02*
X143102500Y-92302500D01*
X143102500Y-91440000D02*
X143102500Y-92302500D01*
X144145000Y-113194747D02*
X144145000Y-110575000D01*
M02*
