%FSLAX45Y45*%
G04 Gerber Fmt 4.5, Leading zero omitted, Abs format (unit mm)*
G04 Created by KiCad (PCBNEW (6.0.2)) date 2022-11-25 11:40:52*
%MOMM*%
%LPD*%
G01*
G04 APERTURE LIST*
%TA.AperFunction,Profile*%
%ADD10C,0.050000*%
%TD*%
%ADD11C,0.200000*%
%ADD12C,0.040000*%
%ADD13C,0.080000*%
%ADD14C,0.100000*%
G04 APERTURE END LIST*
D10*
X15684500Y-12319000D02*
X9144000Y-12319000D01*
X9144000Y-12319000D02*
X9144000Y-5715000D01*
X9144000Y-5715000D02*
X15684500Y-5715000D01*
X15684500Y-5715000D02*
X15684500Y-12319000D01*
D11*
D12*
X9759000Y-8616000D02*
X9799000Y-8656000D01*
X9799000Y-8616000D02*
X9759000Y-8656000D01*
X10140000Y-8997000D02*
X10180000Y-9037000D01*
X10180000Y-8997000D02*
X10140000Y-9037000D01*
X10140000Y-9378000D02*
X10180000Y-9418000D01*
X10180000Y-9378000D02*
X10140000Y-9418000D01*
X10267000Y-11156000D02*
X10307000Y-11196000D01*
X10307000Y-11156000D02*
X10267000Y-11196000D01*
X10394000Y-8997000D02*
X10434000Y-9037000D01*
X10434000Y-8997000D02*
X10394000Y-9037000D01*
X10711500Y-6774500D02*
X10751500Y-6814500D01*
X10751500Y-6774500D02*
X10711500Y-6814500D01*
X10775000Y-7473000D02*
X10815000Y-7513000D01*
X10815000Y-7473000D02*
X10775000Y-7513000D01*
X10775000Y-7854000D02*
X10815000Y-7894000D01*
X10815000Y-7854000D02*
X10775000Y-7894000D01*
X10902000Y-7219000D02*
X10942000Y-7259000D01*
X10942000Y-7219000D02*
X10902000Y-7259000D01*
X14331000Y-10711500D02*
X14371000Y-10751500D01*
X14371000Y-10711500D02*
X14331000Y-10751500D01*
X14394500Y-9314500D02*
X14434500Y-9354500D01*
X14434500Y-9314500D02*
X14394500Y-9354500D01*
X14585000Y-8171500D02*
X14625000Y-8211500D01*
X14625000Y-8171500D02*
X14585000Y-8211500D01*
X14585000Y-8679500D02*
X14625000Y-8719500D01*
X14625000Y-8679500D02*
X14585000Y-8719500D01*
X14775500Y-6774500D02*
X14815500Y-6814500D01*
X14815500Y-6774500D02*
X14775500Y-6814500D01*
X14775500Y-7536500D02*
X14815500Y-7576500D01*
X14815500Y-7536500D02*
X14775500Y-7576500D01*
X14839000Y-11156000D02*
X14879000Y-11196000D01*
X14879000Y-11156000D02*
X14839000Y-11196000D01*
X14966000Y-7028500D02*
X15006000Y-7068500D01*
X15006000Y-7028500D02*
X14966000Y-7068500D01*
D13*
X9818000Y-9650500D02*
G75*
G03*
X9818000Y-9650500I-40000J0D01*
G01*
X9818000Y-9904500D02*
G75*
G03*
X9818000Y-9904500I-40000J0D01*
G01*
X9818000Y-10158500D02*
G75*
G03*
X9818000Y-10158500I-40000J0D01*
G01*
X9820000Y-7874000D02*
G75*
G03*
X9820000Y-7874000I-40000J0D01*
G01*
X9820000Y-8128000D02*
G75*
G03*
X9820000Y-8128000I-40000J0D01*
G01*
X9820000Y-8382000D02*
G75*
G03*
X9820000Y-8382000I-40000J0D01*
G01*
X10580000Y-9650500D02*
G75*
G03*
X10580000Y-9650500I-40000J0D01*
G01*
X10580000Y-9904500D02*
G75*
G03*
X10580000Y-9904500I-40000J0D01*
G01*
X10580000Y-10158500D02*
G75*
G03*
X10580000Y-10158500I-40000J0D01*
G01*
X10582000Y-7874000D02*
G75*
G03*
X10582000Y-7874000I-40000J0D01*
G01*
X10582000Y-8128000D02*
G75*
G03*
X10582000Y-8128000I-40000J0D01*
G01*
X10582000Y-8382000D02*
G75*
G03*
X10582000Y-8382000I-40000J0D01*
G01*
X14137000Y-7874000D02*
G75*
G03*
X14137000Y-7874000I-40000J0D01*
G01*
X14137000Y-8128000D02*
G75*
G03*
X14137000Y-8128000I-40000J0D01*
G01*
X14137000Y-8382000D02*
G75*
G03*
X14137000Y-8382000I-40000J0D01*
G01*
X14138000Y-9653500D02*
G75*
G03*
X14138000Y-9653500I-40000J0D01*
G01*
X14138000Y-9907500D02*
G75*
G03*
X14138000Y-9907500I-40000J0D01*
G01*
X14138000Y-10161500D02*
G75*
G03*
X14138000Y-10161500I-40000J0D01*
G01*
X14899000Y-7874000D02*
G75*
G03*
X14899000Y-7874000I-40000J0D01*
G01*
X14899000Y-8128000D02*
G75*
G03*
X14899000Y-8128000I-40000J0D01*
G01*
X14899000Y-8382000D02*
G75*
G03*
X14899000Y-8382000I-40000J0D01*
G01*
X14900000Y-9653500D02*
G75*
G03*
X14900000Y-9653500I-40000J0D01*
G01*
X14900000Y-9907500D02*
G75*
G03*
X14900000Y-9907500I-40000J0D01*
G01*
X14900000Y-10161500D02*
G75*
G03*
X14900000Y-10161500I-40000J0D01*
G01*
D14*
X9779000Y-8840000D02*
X9779000Y-8940000D01*
X9729000Y-8890000D02*
X9829000Y-8890000D01*
X9779000Y-9094000D02*
X9779000Y-9194000D01*
X9729000Y-9144000D02*
X9829000Y-9144000D01*
X11176000Y-6046000D02*
X11176000Y-6146000D01*
X11126000Y-6096000D02*
X11226000Y-6096000D01*
X11176000Y-6682000D02*
X11176000Y-6782000D01*
X11126000Y-6732000D02*
X11226000Y-6732000D01*
X11176000Y-6936000D02*
X11176000Y-7036000D01*
X11126000Y-6986000D02*
X11226000Y-6986000D01*
X11176000Y-7190000D02*
X11176000Y-7290000D01*
X11126000Y-7240000D02*
X11226000Y-7240000D01*
X11176000Y-7444000D02*
X11176000Y-7544000D01*
X11126000Y-7494000D02*
X11226000Y-7494000D01*
X11176000Y-7698000D02*
X11176000Y-7798000D01*
X11126000Y-7748000D02*
X11226000Y-7748000D01*
X11176000Y-7952000D02*
X11176000Y-8052000D01*
X11126000Y-8002000D02*
X11226000Y-8002000D01*
X11176000Y-8206000D02*
X11176000Y-8306000D01*
X11126000Y-8256000D02*
X11226000Y-8256000D01*
X11176000Y-8460000D02*
X11176000Y-8560000D01*
X11126000Y-8510000D02*
X11226000Y-8510000D01*
X11176000Y-8714000D02*
X11176000Y-8814000D01*
X11126000Y-8764000D02*
X11226000Y-8764000D01*
X11176000Y-8968000D02*
X11176000Y-9068000D01*
X11126000Y-9018000D02*
X11226000Y-9018000D01*
X11176000Y-9222000D02*
X11176000Y-9322000D01*
X11126000Y-9272000D02*
X11226000Y-9272000D01*
X11176000Y-9476000D02*
X11176000Y-9576000D01*
X11126000Y-9526000D02*
X11226000Y-9526000D01*
X11176000Y-9730000D02*
X11176000Y-9830000D01*
X11126000Y-9780000D02*
X11226000Y-9780000D01*
X11176000Y-9984000D02*
X11176000Y-10084000D01*
X11126000Y-10034000D02*
X11226000Y-10034000D01*
X11176000Y-10238000D02*
X11176000Y-10338000D01*
X11126000Y-10288000D02*
X11226000Y-10288000D01*
X11176000Y-10492000D02*
X11176000Y-10592000D01*
X11126000Y-10542000D02*
X11226000Y-10542000D01*
X11176000Y-10746000D02*
X11176000Y-10846000D01*
X11126000Y-10796000D02*
X11226000Y-10796000D01*
X11176000Y-11000000D02*
X11176000Y-11100000D01*
X11126000Y-11050000D02*
X11226000Y-11050000D01*
X11176000Y-11254000D02*
X11176000Y-11354000D01*
X11126000Y-11304000D02*
X11226000Y-11304000D01*
X11176000Y-11888000D02*
X11176000Y-11988000D01*
X11126000Y-11938000D02*
X11226000Y-11938000D01*
X11430000Y-6046000D02*
X11430000Y-6146000D01*
X11380000Y-6096000D02*
X11480000Y-6096000D01*
X11430000Y-11888000D02*
X11430000Y-11988000D01*
X11380000Y-11938000D02*
X11480000Y-11938000D01*
X13208000Y-6046000D02*
X13208000Y-6146000D01*
X13158000Y-6096000D02*
X13258000Y-6096000D01*
X13456000Y-6681000D02*
X13456000Y-6781000D01*
X13406000Y-6731000D02*
X13506000Y-6731000D01*
X13456000Y-6935000D02*
X13456000Y-7035000D01*
X13406000Y-6985000D02*
X13506000Y-6985000D01*
X13456000Y-7189000D02*
X13456000Y-7289000D01*
X13406000Y-7239000D02*
X13506000Y-7239000D01*
X13456000Y-7443000D02*
X13456000Y-7543000D01*
X13406000Y-7493000D02*
X13506000Y-7493000D01*
X13456000Y-7697000D02*
X13456000Y-7797000D01*
X13406000Y-7747000D02*
X13506000Y-7747000D01*
X13456000Y-7951000D02*
X13456000Y-8051000D01*
X13406000Y-8001000D02*
X13506000Y-8001000D01*
X13456000Y-8205000D02*
X13456000Y-8305000D01*
X13406000Y-8255000D02*
X13506000Y-8255000D01*
X13456000Y-8459000D02*
X13456000Y-8559000D01*
X13406000Y-8509000D02*
X13506000Y-8509000D01*
X13456000Y-8713000D02*
X13456000Y-8813000D01*
X13406000Y-8763000D02*
X13506000Y-8763000D01*
X13456000Y-8967000D02*
X13456000Y-9067000D01*
X13406000Y-9017000D02*
X13506000Y-9017000D01*
X13456000Y-9221000D02*
X13456000Y-9321000D01*
X13406000Y-9271000D02*
X13506000Y-9271000D01*
X13456000Y-9475000D02*
X13456000Y-9575000D01*
X13406000Y-9525000D02*
X13506000Y-9525000D01*
X13456000Y-9729000D02*
X13456000Y-9829000D01*
X13406000Y-9779000D02*
X13506000Y-9779000D01*
X13456000Y-9983000D02*
X13456000Y-10083000D01*
X13406000Y-10033000D02*
X13506000Y-10033000D01*
X13456000Y-10237000D02*
X13456000Y-10337000D01*
X13406000Y-10287000D02*
X13506000Y-10287000D01*
X13456000Y-10491000D02*
X13456000Y-10591000D01*
X13406000Y-10541000D02*
X13506000Y-10541000D01*
X13456000Y-10745000D02*
X13456000Y-10845000D01*
X13406000Y-10795000D02*
X13506000Y-10795000D01*
X13456000Y-10999000D02*
X13456000Y-11099000D01*
X13406000Y-11049000D02*
X13506000Y-11049000D01*
X13456000Y-11253000D02*
X13456000Y-11353000D01*
X13406000Y-11303000D02*
X13506000Y-11303000D01*
X13462000Y-6046000D02*
X13462000Y-6146000D01*
X13412000Y-6096000D02*
X13512000Y-6096000D01*
X14859000Y-8840000D02*
X14859000Y-8940000D01*
X14809000Y-8890000D02*
X14909000Y-8890000D01*
X14859000Y-9094000D02*
X14859000Y-9194000D01*
X14809000Y-9144000D02*
X14909000Y-9144000D01*
D11*
X9399119Y-12631976D02*
X9399119Y-12431976D01*
X9446738Y-12431976D01*
X9475310Y-12441500D01*
X9494357Y-12460548D01*
X9503881Y-12479595D01*
X9513405Y-12517690D01*
X9513405Y-12546262D01*
X9503881Y-12584357D01*
X9494357Y-12603405D01*
X9475310Y-12622452D01*
X9446738Y-12631976D01*
X9399119Y-12631976D01*
X9599119Y-12631976D02*
X9599119Y-12498643D01*
X9599119Y-12536738D02*
X9608643Y-12517690D01*
X9618167Y-12508167D01*
X9637214Y-12498643D01*
X9656262Y-12498643D01*
X9722929Y-12631976D02*
X9722929Y-12498643D01*
X9722929Y-12431976D02*
X9713405Y-12441500D01*
X9722929Y-12451024D01*
X9732452Y-12441500D01*
X9722929Y-12431976D01*
X9722929Y-12451024D01*
X9846738Y-12631976D02*
X9827690Y-12622452D01*
X9818167Y-12603405D01*
X9818167Y-12431976D01*
X9951500Y-12631976D02*
X9932452Y-12622452D01*
X9922929Y-12603405D01*
X9922929Y-12431976D01*
X10180071Y-12631976D02*
X10180071Y-12431976D01*
X10246738Y-12574833D01*
X10313405Y-12431976D01*
X10313405Y-12631976D01*
X10494357Y-12631976D02*
X10494357Y-12527214D01*
X10484833Y-12508167D01*
X10465786Y-12498643D01*
X10427690Y-12498643D01*
X10408643Y-12508167D01*
X10494357Y-12622452D02*
X10475310Y-12631976D01*
X10427690Y-12631976D01*
X10408643Y-12622452D01*
X10399119Y-12603405D01*
X10399119Y-12584357D01*
X10408643Y-12565309D01*
X10427690Y-12555786D01*
X10475310Y-12555786D01*
X10494357Y-12546262D01*
X10589595Y-12498643D02*
X10589595Y-12698643D01*
X10589595Y-12508167D02*
X10608643Y-12498643D01*
X10646738Y-12498643D01*
X10665786Y-12508167D01*
X10675310Y-12517690D01*
X10684833Y-12536738D01*
X10684833Y-12593881D01*
X10675310Y-12612928D01*
X10665786Y-12622452D01*
X10646738Y-12631976D01*
X10608643Y-12631976D01*
X10589595Y-12622452D01*
X10770548Y-12612928D02*
X10780071Y-12622452D01*
X10770548Y-12631976D01*
X10761024Y-12622452D01*
X10770548Y-12612928D01*
X10770548Y-12631976D01*
X10770548Y-12508167D02*
X10780071Y-12517690D01*
X10770548Y-12527214D01*
X10761024Y-12517690D01*
X10770548Y-12508167D01*
X10770548Y-12527214D01*
D12*
X9101500Y-12941500D02*
X9141500Y-12981500D01*
X9141500Y-12941500D02*
X9101500Y-12981500D01*
D11*
X9437214Y-12851976D02*
X9456262Y-12851976D01*
X9475310Y-12861500D01*
X9484833Y-12871024D01*
X9494357Y-12890071D01*
X9503881Y-12928167D01*
X9503881Y-12975786D01*
X9494357Y-13013881D01*
X9484833Y-13032928D01*
X9475310Y-13042452D01*
X9456262Y-13051976D01*
X9437214Y-13051976D01*
X9418167Y-13042452D01*
X9408643Y-13032928D01*
X9399119Y-13013881D01*
X9389595Y-12975786D01*
X9389595Y-12928167D01*
X9399119Y-12890071D01*
X9408643Y-12871024D01*
X9418167Y-12861500D01*
X9437214Y-12851976D01*
X9589595Y-13032928D02*
X9599119Y-13042452D01*
X9589595Y-13051976D01*
X9580071Y-13042452D01*
X9589595Y-13032928D01*
X9589595Y-13051976D01*
X9770548Y-12918643D02*
X9770548Y-13051976D01*
X9722929Y-12842452D02*
X9675310Y-12985309D01*
X9799119Y-12985309D01*
X9913405Y-12851976D02*
X9932452Y-12851976D01*
X9951500Y-12861500D01*
X9961024Y-12871024D01*
X9970548Y-12890071D01*
X9980071Y-12928167D01*
X9980071Y-12975786D01*
X9970548Y-13013881D01*
X9961024Y-13032928D01*
X9951500Y-13042452D01*
X9932452Y-13051976D01*
X9913405Y-13051976D01*
X9894357Y-13042452D01*
X9884833Y-13032928D01*
X9875310Y-13013881D01*
X9865786Y-12975786D01*
X9865786Y-12928167D01*
X9875310Y-12890071D01*
X9884833Y-12871024D01*
X9894357Y-12861500D01*
X9913405Y-12851976D01*
X10103881Y-12851976D02*
X10122929Y-12851976D01*
X10141976Y-12861500D01*
X10151500Y-12871024D01*
X10161024Y-12890071D01*
X10170548Y-12928167D01*
X10170548Y-12975786D01*
X10161024Y-13013881D01*
X10151500Y-13032928D01*
X10141976Y-13042452D01*
X10122929Y-13051976D01*
X10103881Y-13051976D01*
X10084833Y-13042452D01*
X10075310Y-13032928D01*
X10065786Y-13013881D01*
X10056262Y-12975786D01*
X10056262Y-12928167D01*
X10065786Y-12890071D01*
X10075310Y-12871024D01*
X10084833Y-12861500D01*
X10103881Y-12851976D01*
X10256262Y-13051976D02*
X10256262Y-12918643D01*
X10256262Y-12937690D02*
X10265786Y-12928167D01*
X10284833Y-12918643D01*
X10313405Y-12918643D01*
X10332452Y-12928167D01*
X10341976Y-12947214D01*
X10341976Y-13051976D01*
X10341976Y-12947214D02*
X10351500Y-12928167D01*
X10370548Y-12918643D01*
X10399119Y-12918643D01*
X10418167Y-12928167D01*
X10427690Y-12947214D01*
X10427690Y-13051976D01*
X10522929Y-13051976D02*
X10522929Y-12918643D01*
X10522929Y-12937690D02*
X10532452Y-12928167D01*
X10551500Y-12918643D01*
X10580071Y-12918643D01*
X10599119Y-12928167D01*
X10608643Y-12947214D01*
X10608643Y-13051976D01*
X10608643Y-12947214D02*
X10618167Y-12928167D01*
X10637214Y-12918643D01*
X10665786Y-12918643D01*
X10684833Y-12928167D01*
X10694357Y-12947214D01*
X10694357Y-13051976D01*
X11084833Y-12842452D02*
X10913405Y-13099595D01*
X11341976Y-12851976D02*
X11361024Y-12851976D01*
X11380071Y-12861500D01*
X11389595Y-12871024D01*
X11399119Y-12890071D01*
X11408643Y-12928167D01*
X11408643Y-12975786D01*
X11399119Y-13013881D01*
X11389595Y-13032928D01*
X11380071Y-13042452D01*
X11361024Y-13051976D01*
X11341976Y-13051976D01*
X11322928Y-13042452D01*
X11313405Y-13032928D01*
X11303881Y-13013881D01*
X11294357Y-12975786D01*
X11294357Y-12928167D01*
X11303881Y-12890071D01*
X11313405Y-12871024D01*
X11322928Y-12861500D01*
X11341976Y-12851976D01*
X11494357Y-13032928D02*
X11503881Y-13042452D01*
X11494357Y-13051976D01*
X11484833Y-13042452D01*
X11494357Y-13032928D01*
X11494357Y-13051976D01*
X11627690Y-12851976D02*
X11646738Y-12851976D01*
X11665786Y-12861500D01*
X11675309Y-12871024D01*
X11684833Y-12890071D01*
X11694357Y-12928167D01*
X11694357Y-12975786D01*
X11684833Y-13013881D01*
X11675309Y-13032928D01*
X11665786Y-13042452D01*
X11646738Y-13051976D01*
X11627690Y-13051976D01*
X11608643Y-13042452D01*
X11599119Y-13032928D01*
X11589595Y-13013881D01*
X11580071Y-12975786D01*
X11580071Y-12928167D01*
X11589595Y-12890071D01*
X11599119Y-12871024D01*
X11608643Y-12861500D01*
X11627690Y-12851976D01*
X11884833Y-13051976D02*
X11770548Y-13051976D01*
X11827690Y-13051976D02*
X11827690Y-12851976D01*
X11808643Y-12880548D01*
X11789595Y-12899595D01*
X11770548Y-12909119D01*
X12065786Y-12851976D02*
X11970548Y-12851976D01*
X11961024Y-12947214D01*
X11970548Y-12937690D01*
X11989595Y-12928167D01*
X12037214Y-12928167D01*
X12056262Y-12937690D01*
X12065786Y-12947214D01*
X12075309Y-12966262D01*
X12075309Y-13013881D01*
X12065786Y-13032928D01*
X12056262Y-13042452D01*
X12037214Y-13051976D01*
X11989595Y-13051976D01*
X11970548Y-13042452D01*
X11961024Y-13032928D01*
X12141976Y-12851976D02*
X12275309Y-12851976D01*
X12189595Y-13051976D01*
X12341976Y-12851976D02*
X12341976Y-12890071D01*
X12418167Y-12851976D02*
X12418167Y-12890071D01*
X12713405Y-13128167D02*
X12703881Y-13118643D01*
X12684833Y-13090071D01*
X12675309Y-13071024D01*
X12665786Y-13042452D01*
X12656262Y-12994833D01*
X12656262Y-12956738D01*
X12665786Y-12909119D01*
X12675309Y-12880548D01*
X12684833Y-12861500D01*
X12703881Y-12832928D01*
X12713405Y-12823405D01*
X12894357Y-13051976D02*
X12780071Y-13051976D01*
X12837214Y-13051976D02*
X12837214Y-12851976D01*
X12818167Y-12880548D01*
X12799119Y-12899595D01*
X12780071Y-12909119D01*
X12961024Y-12851976D02*
X13094357Y-12851976D01*
X13008643Y-13051976D01*
X13322928Y-13051976D02*
X13322928Y-12851976D01*
X13408643Y-13051976D02*
X13408643Y-12947214D01*
X13399119Y-12928167D01*
X13380071Y-12918643D01*
X13351500Y-12918643D01*
X13332452Y-12928167D01*
X13322928Y-12937690D01*
X13532452Y-13051976D02*
X13513405Y-13042452D01*
X13503881Y-13032928D01*
X13494357Y-13013881D01*
X13494357Y-12956738D01*
X13503881Y-12937690D01*
X13513405Y-12928167D01*
X13532452Y-12918643D01*
X13561024Y-12918643D01*
X13580071Y-12928167D01*
X13589595Y-12937690D01*
X13599119Y-12956738D01*
X13599119Y-13013881D01*
X13589595Y-13032928D01*
X13580071Y-13042452D01*
X13561024Y-13051976D01*
X13532452Y-13051976D01*
X13713405Y-13051976D02*
X13694357Y-13042452D01*
X13684833Y-13023405D01*
X13684833Y-12851976D01*
X13865786Y-13042452D02*
X13846738Y-13051976D01*
X13808643Y-13051976D01*
X13789595Y-13042452D01*
X13780071Y-13023405D01*
X13780071Y-12947214D01*
X13789595Y-12928167D01*
X13808643Y-12918643D01*
X13846738Y-12918643D01*
X13865786Y-12928167D01*
X13875309Y-12947214D01*
X13875309Y-12966262D01*
X13780071Y-12985309D01*
X13951500Y-13042452D02*
X13970548Y-13051976D01*
X14008643Y-13051976D01*
X14027690Y-13042452D01*
X14037214Y-13023405D01*
X14037214Y-13013881D01*
X14027690Y-12994833D01*
X14008643Y-12985309D01*
X13980071Y-12985309D01*
X13961024Y-12975786D01*
X13951500Y-12956738D01*
X13951500Y-12947214D01*
X13961024Y-12928167D01*
X13980071Y-12918643D01*
X14008643Y-12918643D01*
X14027690Y-12928167D01*
X14103881Y-13128167D02*
X14113405Y-13118643D01*
X14132452Y-13090071D01*
X14141976Y-13071024D01*
X14151500Y-13042452D01*
X14161024Y-12994833D01*
X14161024Y-12956738D01*
X14151500Y-12909119D01*
X14141976Y-12880548D01*
X14132452Y-12861500D01*
X14113405Y-12832928D01*
X14103881Y-12823405D01*
D13*
X9141500Y-13225500D02*
G75*
G03*
X9141500Y-13225500I-40000J0D01*
G01*
D11*
X9437214Y-13115976D02*
X9456262Y-13115976D01*
X9475310Y-13125500D01*
X9484833Y-13135024D01*
X9494357Y-13154071D01*
X9503881Y-13192167D01*
X9503881Y-13239786D01*
X9494357Y-13277881D01*
X9484833Y-13296928D01*
X9475310Y-13306452D01*
X9456262Y-13315976D01*
X9437214Y-13315976D01*
X9418167Y-13306452D01*
X9408643Y-13296928D01*
X9399119Y-13277881D01*
X9389595Y-13239786D01*
X9389595Y-13192167D01*
X9399119Y-13154071D01*
X9408643Y-13135024D01*
X9418167Y-13125500D01*
X9437214Y-13115976D01*
X9589595Y-13296928D02*
X9599119Y-13306452D01*
X9589595Y-13315976D01*
X9580071Y-13306452D01*
X9589595Y-13296928D01*
X9589595Y-13315976D01*
X9713405Y-13201690D02*
X9694357Y-13192167D01*
X9684833Y-13182643D01*
X9675310Y-13163595D01*
X9675310Y-13154071D01*
X9684833Y-13135024D01*
X9694357Y-13125500D01*
X9713405Y-13115976D01*
X9751500Y-13115976D01*
X9770548Y-13125500D01*
X9780071Y-13135024D01*
X9789595Y-13154071D01*
X9789595Y-13163595D01*
X9780071Y-13182643D01*
X9770548Y-13192167D01*
X9751500Y-13201690D01*
X9713405Y-13201690D01*
X9694357Y-13211214D01*
X9684833Y-13220738D01*
X9675310Y-13239786D01*
X9675310Y-13277881D01*
X9684833Y-13296928D01*
X9694357Y-13306452D01*
X9713405Y-13315976D01*
X9751500Y-13315976D01*
X9770548Y-13306452D01*
X9780071Y-13296928D01*
X9789595Y-13277881D01*
X9789595Y-13239786D01*
X9780071Y-13220738D01*
X9770548Y-13211214D01*
X9751500Y-13201690D01*
X9913405Y-13115976D02*
X9932452Y-13115976D01*
X9951500Y-13125500D01*
X9961024Y-13135024D01*
X9970548Y-13154071D01*
X9980071Y-13192167D01*
X9980071Y-13239786D01*
X9970548Y-13277881D01*
X9961024Y-13296928D01*
X9951500Y-13306452D01*
X9932452Y-13315976D01*
X9913405Y-13315976D01*
X9894357Y-13306452D01*
X9884833Y-13296928D01*
X9875310Y-13277881D01*
X9865786Y-13239786D01*
X9865786Y-13192167D01*
X9875310Y-13154071D01*
X9884833Y-13135024D01*
X9894357Y-13125500D01*
X9913405Y-13115976D01*
X10103881Y-13115976D02*
X10122929Y-13115976D01*
X10141976Y-13125500D01*
X10151500Y-13135024D01*
X10161024Y-13154071D01*
X10170548Y-13192167D01*
X10170548Y-13239786D01*
X10161024Y-13277881D01*
X10151500Y-13296928D01*
X10141976Y-13306452D01*
X10122929Y-13315976D01*
X10103881Y-13315976D01*
X10084833Y-13306452D01*
X10075310Y-13296928D01*
X10065786Y-13277881D01*
X10056262Y-13239786D01*
X10056262Y-13192167D01*
X10065786Y-13154071D01*
X10075310Y-13135024D01*
X10084833Y-13125500D01*
X10103881Y-13115976D01*
X10256262Y-13315976D02*
X10256262Y-13182643D01*
X10256262Y-13201690D02*
X10265786Y-13192167D01*
X10284833Y-13182643D01*
X10313405Y-13182643D01*
X10332452Y-13192167D01*
X10341976Y-13211214D01*
X10341976Y-13315976D01*
X10341976Y-13211214D02*
X10351500Y-13192167D01*
X10370548Y-13182643D01*
X10399119Y-13182643D01*
X10418167Y-13192167D01*
X10427690Y-13211214D01*
X10427690Y-13315976D01*
X10522929Y-13315976D02*
X10522929Y-13182643D01*
X10522929Y-13201690D02*
X10532452Y-13192167D01*
X10551500Y-13182643D01*
X10580071Y-13182643D01*
X10599119Y-13192167D01*
X10608643Y-13211214D01*
X10608643Y-13315976D01*
X10608643Y-13211214D02*
X10618167Y-13192167D01*
X10637214Y-13182643D01*
X10665786Y-13182643D01*
X10684833Y-13192167D01*
X10694357Y-13211214D01*
X10694357Y-13315976D01*
X11084833Y-13106452D02*
X10913405Y-13363595D01*
X11341976Y-13115976D02*
X11361024Y-13115976D01*
X11380071Y-13125500D01*
X11389595Y-13135024D01*
X11399119Y-13154071D01*
X11408643Y-13192167D01*
X11408643Y-13239786D01*
X11399119Y-13277881D01*
X11389595Y-13296928D01*
X11380071Y-13306452D01*
X11361024Y-13315976D01*
X11341976Y-13315976D01*
X11322928Y-13306452D01*
X11313405Y-13296928D01*
X11303881Y-13277881D01*
X11294357Y-13239786D01*
X11294357Y-13192167D01*
X11303881Y-13154071D01*
X11313405Y-13135024D01*
X11322928Y-13125500D01*
X11341976Y-13115976D01*
X11494357Y-13296928D02*
X11503881Y-13306452D01*
X11494357Y-13315976D01*
X11484833Y-13306452D01*
X11494357Y-13296928D01*
X11494357Y-13315976D01*
X11627690Y-13115976D02*
X11646738Y-13115976D01*
X11665786Y-13125500D01*
X11675309Y-13135024D01*
X11684833Y-13154071D01*
X11694357Y-13192167D01*
X11694357Y-13239786D01*
X11684833Y-13277881D01*
X11675309Y-13296928D01*
X11665786Y-13306452D01*
X11646738Y-13315976D01*
X11627690Y-13315976D01*
X11608643Y-13306452D01*
X11599119Y-13296928D01*
X11589595Y-13277881D01*
X11580071Y-13239786D01*
X11580071Y-13192167D01*
X11589595Y-13154071D01*
X11599119Y-13135024D01*
X11608643Y-13125500D01*
X11627690Y-13115976D01*
X11761024Y-13115976D02*
X11884833Y-13115976D01*
X11818167Y-13192167D01*
X11846738Y-13192167D01*
X11865786Y-13201690D01*
X11875309Y-13211214D01*
X11884833Y-13230262D01*
X11884833Y-13277881D01*
X11875309Y-13296928D01*
X11865786Y-13306452D01*
X11846738Y-13315976D01*
X11789595Y-13315976D01*
X11770548Y-13306452D01*
X11761024Y-13296928D01*
X12075309Y-13315976D02*
X11961024Y-13315976D01*
X12018167Y-13315976D02*
X12018167Y-13115976D01*
X11999119Y-13144548D01*
X11980071Y-13163595D01*
X11961024Y-13173119D01*
X12256262Y-13115976D02*
X12161024Y-13115976D01*
X12151500Y-13211214D01*
X12161024Y-13201690D01*
X12180071Y-13192167D01*
X12227690Y-13192167D01*
X12246738Y-13201690D01*
X12256262Y-13211214D01*
X12265786Y-13230262D01*
X12265786Y-13277881D01*
X12256262Y-13296928D01*
X12246738Y-13306452D01*
X12227690Y-13315976D01*
X12180071Y-13315976D01*
X12161024Y-13306452D01*
X12151500Y-13296928D01*
X12341976Y-13115976D02*
X12341976Y-13154071D01*
X12418167Y-13115976D02*
X12418167Y-13154071D01*
X12713405Y-13392167D02*
X12703881Y-13382643D01*
X12684833Y-13354071D01*
X12675309Y-13335024D01*
X12665786Y-13306452D01*
X12656262Y-13258833D01*
X12656262Y-13220738D01*
X12665786Y-13173119D01*
X12675309Y-13144548D01*
X12684833Y-13125500D01*
X12703881Y-13096928D01*
X12713405Y-13087405D01*
X12780071Y-13135024D02*
X12789595Y-13125500D01*
X12808643Y-13115976D01*
X12856262Y-13115976D01*
X12875309Y-13125500D01*
X12884833Y-13135024D01*
X12894357Y-13154071D01*
X12894357Y-13173119D01*
X12884833Y-13201690D01*
X12770548Y-13315976D01*
X12894357Y-13315976D01*
X13065786Y-13182643D02*
X13065786Y-13315976D01*
X13018167Y-13106452D02*
X12970548Y-13249309D01*
X13094357Y-13249309D01*
X13322928Y-13315976D02*
X13322928Y-13115976D01*
X13408643Y-13315976D02*
X13408643Y-13211214D01*
X13399119Y-13192167D01*
X13380071Y-13182643D01*
X13351500Y-13182643D01*
X13332452Y-13192167D01*
X13322928Y-13201690D01*
X13532452Y-13315976D02*
X13513405Y-13306452D01*
X13503881Y-13296928D01*
X13494357Y-13277881D01*
X13494357Y-13220738D01*
X13503881Y-13201690D01*
X13513405Y-13192167D01*
X13532452Y-13182643D01*
X13561024Y-13182643D01*
X13580071Y-13192167D01*
X13589595Y-13201690D01*
X13599119Y-13220738D01*
X13599119Y-13277881D01*
X13589595Y-13296928D01*
X13580071Y-13306452D01*
X13561024Y-13315976D01*
X13532452Y-13315976D01*
X13713405Y-13315976D02*
X13694357Y-13306452D01*
X13684833Y-13287405D01*
X13684833Y-13115976D01*
X13865786Y-13306452D02*
X13846738Y-13315976D01*
X13808643Y-13315976D01*
X13789595Y-13306452D01*
X13780071Y-13287405D01*
X13780071Y-13211214D01*
X13789595Y-13192167D01*
X13808643Y-13182643D01*
X13846738Y-13182643D01*
X13865786Y-13192167D01*
X13875309Y-13211214D01*
X13875309Y-13230262D01*
X13780071Y-13249309D01*
X13951500Y-13306452D02*
X13970548Y-13315976D01*
X14008643Y-13315976D01*
X14027690Y-13306452D01*
X14037214Y-13287405D01*
X14037214Y-13277881D01*
X14027690Y-13258833D01*
X14008643Y-13249309D01*
X13980071Y-13249309D01*
X13961024Y-13239786D01*
X13951500Y-13220738D01*
X13951500Y-13211214D01*
X13961024Y-13192167D01*
X13980071Y-13182643D01*
X14008643Y-13182643D01*
X14027690Y-13192167D01*
X14103881Y-13392167D02*
X14113405Y-13382643D01*
X14132452Y-13354071D01*
X14141976Y-13335024D01*
X14151500Y-13306452D01*
X14161024Y-13258833D01*
X14161024Y-13220738D01*
X14151500Y-13173119D01*
X14141976Y-13144548D01*
X14132452Y-13125500D01*
X14113405Y-13096928D01*
X14103881Y-13087405D01*
D14*
X9091500Y-13439500D02*
X9091500Y-13539500D01*
X9041500Y-13489500D02*
X9141500Y-13489500D01*
D11*
X9503881Y-13579976D02*
X9389595Y-13579976D01*
X9446738Y-13579976D02*
X9446738Y-13379976D01*
X9427690Y-13408548D01*
X9408643Y-13427595D01*
X9389595Y-13437119D01*
X9589595Y-13560928D02*
X9599119Y-13570452D01*
X9589595Y-13579976D01*
X9580071Y-13570452D01*
X9589595Y-13560928D01*
X9589595Y-13579976D01*
X9722929Y-13379976D02*
X9741976Y-13379976D01*
X9761024Y-13389500D01*
X9770548Y-13399024D01*
X9780071Y-13418071D01*
X9789595Y-13456167D01*
X9789595Y-13503786D01*
X9780071Y-13541881D01*
X9770548Y-13560928D01*
X9761024Y-13570452D01*
X9741976Y-13579976D01*
X9722929Y-13579976D01*
X9703881Y-13570452D01*
X9694357Y-13560928D01*
X9684833Y-13541881D01*
X9675310Y-13503786D01*
X9675310Y-13456167D01*
X9684833Y-13418071D01*
X9694357Y-13399024D01*
X9703881Y-13389500D01*
X9722929Y-13379976D01*
X9913405Y-13379976D02*
X9932452Y-13379976D01*
X9951500Y-13389500D01*
X9961024Y-13399024D01*
X9970548Y-13418071D01*
X9980071Y-13456167D01*
X9980071Y-13503786D01*
X9970548Y-13541881D01*
X9961024Y-13560928D01*
X9951500Y-13570452D01*
X9932452Y-13579976D01*
X9913405Y-13579976D01*
X9894357Y-13570452D01*
X9884833Y-13560928D01*
X9875310Y-13541881D01*
X9865786Y-13503786D01*
X9865786Y-13456167D01*
X9875310Y-13418071D01*
X9884833Y-13399024D01*
X9894357Y-13389500D01*
X9913405Y-13379976D01*
X10103881Y-13379976D02*
X10122929Y-13379976D01*
X10141976Y-13389500D01*
X10151500Y-13399024D01*
X10161024Y-13418071D01*
X10170548Y-13456167D01*
X10170548Y-13503786D01*
X10161024Y-13541881D01*
X10151500Y-13560928D01*
X10141976Y-13570452D01*
X10122929Y-13579976D01*
X10103881Y-13579976D01*
X10084833Y-13570452D01*
X10075310Y-13560928D01*
X10065786Y-13541881D01*
X10056262Y-13503786D01*
X10056262Y-13456167D01*
X10065786Y-13418071D01*
X10075310Y-13399024D01*
X10084833Y-13389500D01*
X10103881Y-13379976D01*
X10256262Y-13579976D02*
X10256262Y-13446643D01*
X10256262Y-13465690D02*
X10265786Y-13456167D01*
X10284833Y-13446643D01*
X10313405Y-13446643D01*
X10332452Y-13456167D01*
X10341976Y-13475214D01*
X10341976Y-13579976D01*
X10341976Y-13475214D02*
X10351500Y-13456167D01*
X10370548Y-13446643D01*
X10399119Y-13446643D01*
X10418167Y-13456167D01*
X10427690Y-13475214D01*
X10427690Y-13579976D01*
X10522929Y-13579976D02*
X10522929Y-13446643D01*
X10522929Y-13465690D02*
X10532452Y-13456167D01*
X10551500Y-13446643D01*
X10580071Y-13446643D01*
X10599119Y-13456167D01*
X10608643Y-13475214D01*
X10608643Y-13579976D01*
X10608643Y-13475214D02*
X10618167Y-13456167D01*
X10637214Y-13446643D01*
X10665786Y-13446643D01*
X10684833Y-13456167D01*
X10694357Y-13475214D01*
X10694357Y-13579976D01*
X11084833Y-13370452D02*
X10913405Y-13627595D01*
X11341976Y-13379976D02*
X11361024Y-13379976D01*
X11380071Y-13389500D01*
X11389595Y-13399024D01*
X11399119Y-13418071D01*
X11408643Y-13456167D01*
X11408643Y-13503786D01*
X11399119Y-13541881D01*
X11389595Y-13560928D01*
X11380071Y-13570452D01*
X11361024Y-13579976D01*
X11341976Y-13579976D01*
X11322928Y-13570452D01*
X11313405Y-13560928D01*
X11303881Y-13541881D01*
X11294357Y-13503786D01*
X11294357Y-13456167D01*
X11303881Y-13418071D01*
X11313405Y-13399024D01*
X11322928Y-13389500D01*
X11341976Y-13379976D01*
X11494357Y-13560928D02*
X11503881Y-13570452D01*
X11494357Y-13579976D01*
X11484833Y-13570452D01*
X11494357Y-13560928D01*
X11494357Y-13579976D01*
X11627690Y-13379976D02*
X11646738Y-13379976D01*
X11665786Y-13389500D01*
X11675309Y-13399024D01*
X11684833Y-13418071D01*
X11694357Y-13456167D01*
X11694357Y-13503786D01*
X11684833Y-13541881D01*
X11675309Y-13560928D01*
X11665786Y-13570452D01*
X11646738Y-13579976D01*
X11627690Y-13579976D01*
X11608643Y-13570452D01*
X11599119Y-13560928D01*
X11589595Y-13541881D01*
X11580071Y-13503786D01*
X11580071Y-13456167D01*
X11589595Y-13418071D01*
X11599119Y-13399024D01*
X11608643Y-13389500D01*
X11627690Y-13379976D01*
X11761024Y-13379976D02*
X11884833Y-13379976D01*
X11818167Y-13456167D01*
X11846738Y-13456167D01*
X11865786Y-13465690D01*
X11875309Y-13475214D01*
X11884833Y-13494262D01*
X11884833Y-13541881D01*
X11875309Y-13560928D01*
X11865786Y-13570452D01*
X11846738Y-13579976D01*
X11789595Y-13579976D01*
X11770548Y-13570452D01*
X11761024Y-13560928D01*
X11980071Y-13579976D02*
X12018167Y-13579976D01*
X12037214Y-13570452D01*
X12046738Y-13560928D01*
X12065786Y-13532357D01*
X12075309Y-13494262D01*
X12075309Y-13418071D01*
X12065786Y-13399024D01*
X12056262Y-13389500D01*
X12037214Y-13379976D01*
X11999119Y-13379976D01*
X11980071Y-13389500D01*
X11970548Y-13399024D01*
X11961024Y-13418071D01*
X11961024Y-13465690D01*
X11970548Y-13484738D01*
X11980071Y-13494262D01*
X11999119Y-13503786D01*
X12037214Y-13503786D01*
X12056262Y-13494262D01*
X12065786Y-13484738D01*
X12075309Y-13465690D01*
X12246738Y-13446643D02*
X12246738Y-13579976D01*
X12199119Y-13370452D02*
X12151500Y-13513309D01*
X12275309Y-13513309D01*
X12341976Y-13379976D02*
X12341976Y-13418071D01*
X12418167Y-13379976D02*
X12418167Y-13418071D01*
X12713405Y-13656167D02*
X12703881Y-13646643D01*
X12684833Y-13618071D01*
X12675309Y-13599024D01*
X12665786Y-13570452D01*
X12656262Y-13522833D01*
X12656262Y-13484738D01*
X12665786Y-13437119D01*
X12675309Y-13408548D01*
X12684833Y-13389500D01*
X12703881Y-13360928D01*
X12713405Y-13351405D01*
X12875309Y-13446643D02*
X12875309Y-13579976D01*
X12827690Y-13370452D02*
X12780071Y-13513309D01*
X12903881Y-13513309D01*
X13008643Y-13465690D02*
X12989595Y-13456167D01*
X12980071Y-13446643D01*
X12970548Y-13427595D01*
X12970548Y-13418071D01*
X12980071Y-13399024D01*
X12989595Y-13389500D01*
X13008643Y-13379976D01*
X13046738Y-13379976D01*
X13065786Y-13389500D01*
X13075309Y-13399024D01*
X13084833Y-13418071D01*
X13084833Y-13427595D01*
X13075309Y-13446643D01*
X13065786Y-13456167D01*
X13046738Y-13465690D01*
X13008643Y-13465690D01*
X12989595Y-13475214D01*
X12980071Y-13484738D01*
X12970548Y-13503786D01*
X12970548Y-13541881D01*
X12980071Y-13560928D01*
X12989595Y-13570452D01*
X13008643Y-13579976D01*
X13046738Y-13579976D01*
X13065786Y-13570452D01*
X13075309Y-13560928D01*
X13084833Y-13541881D01*
X13084833Y-13503786D01*
X13075309Y-13484738D01*
X13065786Y-13475214D01*
X13046738Y-13465690D01*
X13322928Y-13579976D02*
X13322928Y-13379976D01*
X13408643Y-13579976D02*
X13408643Y-13475214D01*
X13399119Y-13456167D01*
X13380071Y-13446643D01*
X13351500Y-13446643D01*
X13332452Y-13456167D01*
X13322928Y-13465690D01*
X13532452Y-13579976D02*
X13513405Y-13570452D01*
X13503881Y-13560928D01*
X13494357Y-13541881D01*
X13494357Y-13484738D01*
X13503881Y-13465690D01*
X13513405Y-13456167D01*
X13532452Y-13446643D01*
X13561024Y-13446643D01*
X13580071Y-13456167D01*
X13589595Y-13465690D01*
X13599119Y-13484738D01*
X13599119Y-13541881D01*
X13589595Y-13560928D01*
X13580071Y-13570452D01*
X13561024Y-13579976D01*
X13532452Y-13579976D01*
X13713405Y-13579976D02*
X13694357Y-13570452D01*
X13684833Y-13551405D01*
X13684833Y-13379976D01*
X13865786Y-13570452D02*
X13846738Y-13579976D01*
X13808643Y-13579976D01*
X13789595Y-13570452D01*
X13780071Y-13551405D01*
X13780071Y-13475214D01*
X13789595Y-13456167D01*
X13808643Y-13446643D01*
X13846738Y-13446643D01*
X13865786Y-13456167D01*
X13875309Y-13475214D01*
X13875309Y-13494262D01*
X13780071Y-13513309D01*
X13951500Y-13570452D02*
X13970548Y-13579976D01*
X14008643Y-13579976D01*
X14027690Y-13570452D01*
X14037214Y-13551405D01*
X14037214Y-13541881D01*
X14027690Y-13522833D01*
X14008643Y-13513309D01*
X13980071Y-13513309D01*
X13961024Y-13503786D01*
X13951500Y-13484738D01*
X13951500Y-13475214D01*
X13961024Y-13456167D01*
X13980071Y-13446643D01*
X14008643Y-13446643D01*
X14027690Y-13456167D01*
X14103881Y-13656167D02*
X14113405Y-13646643D01*
X14132452Y-13618071D01*
X14141976Y-13599024D01*
X14151500Y-13570452D01*
X14161024Y-13522833D01*
X14161024Y-13484738D01*
X14151500Y-13437119D01*
X14141976Y-13408548D01*
X14132452Y-13389500D01*
X14113405Y-13360928D01*
X14103881Y-13351405D01*
M02*
