%TF.GenerationSoftware,KiCad,Pcbnew,(6.0.2)*%
%TF.CreationDate,2022-03-10T14:49:54-08:00*%
%TF.ProjectId,node,6e6f6465-2e6b-4696-9361-645f70636258,rev?*%
%TF.SameCoordinates,Original*%
%TF.FileFunction,Copper,L1,Top*%
%TF.FilePolarity,Positive*%
%FSLAX46Y46*%
G04 Gerber Fmt 4.6, Leading zero omitted, Abs format (unit mm)*
G04 Created by KiCad (PCBNEW (6.0.2)) date 2022-03-10 14:49:54*
%MOMM*%
%LPD*%
G01*
G04 APERTURE LIST*
G04 Aperture macros list*
%AMRoundRect*
0 Rectangle with rounded corners*
0 $1 Rounding radius*
0 $2 $3 $4 $5 $6 $7 $8 $9 X,Y pos of 4 corners*
0 Add a 4 corners polygon primitive as box body*
4,1,4,$2,$3,$4,$5,$6,$7,$8,$9,$2,$3,0*
0 Add four circle primitives for the rounded corners*
1,1,$1+$1,$2,$3*
1,1,$1+$1,$4,$5*
1,1,$1+$1,$6,$7*
1,1,$1+$1,$8,$9*
0 Add four rect primitives between the rounded corners*
20,1,$1+$1,$2,$3,$4,$5,0*
20,1,$1+$1,$4,$5,$6,$7,0*
20,1,$1+$1,$6,$7,$8,$9,0*
20,1,$1+$1,$8,$9,$2,$3,0*%
G04 Aperture macros list end*
%TA.AperFunction,ComponentPad*%
%ADD10R,1.700000X1.700000*%
%TD*%
%TA.AperFunction,ComponentPad*%
%ADD11O,1.700000X1.700000*%
%TD*%
%TA.AperFunction,ComponentPad*%
%ADD12RoundRect,0.250000X-0.600000X-0.750000X0.600000X-0.750000X0.600000X0.750000X-0.600000X0.750000X0*%
%TD*%
%TA.AperFunction,ComponentPad*%
%ADD13O,1.700000X2.000000*%
%TD*%
%TA.AperFunction,ComponentPad*%
%ADD14C,2.800000*%
%TD*%
%TA.AperFunction,ComponentPad*%
%ADD15O,2.800000X2.800000*%
%TD*%
%TA.AperFunction,ComponentPad*%
%ADD16RoundRect,0.250000X-0.600000X-0.725000X0.600000X-0.725000X0.600000X0.725000X-0.600000X0.725000X0*%
%TD*%
%TA.AperFunction,ComponentPad*%
%ADD17O,1.700000X1.950000*%
%TD*%
%TA.AperFunction,ComponentPad*%
%ADD18RoundRect,0.250000X-0.725000X0.600000X-0.725000X-0.600000X0.725000X-0.600000X0.725000X0.600000X0*%
%TD*%
%TA.AperFunction,ComponentPad*%
%ADD19O,1.950000X1.700000*%
%TD*%
%TA.AperFunction,Conductor*%
%ADD20C,0.250000*%
%TD*%
G04 APERTURE END LIST*
D10*
%TO.P,J2,1,Pin_1*%
%TO.N,GND*%
X85825400Y-53127500D03*
D11*
%TO.P,J2,2,Pin_2*%
%TO.N,Net-(J2-Pad2)*%
X85825400Y-55667500D03*
%TO.P,J2,3,Pin_3*%
%TO.N,Net-(J2-Pad3)*%
X85825400Y-58207500D03*
%TO.P,J2,4,Pin_4*%
%TO.N,unconnected-(J2-Pad4)*%
X85825400Y-60747500D03*
%TO.P,J2,5,Pin_5*%
%TO.N,unconnected-(J2-Pad5)*%
X85825400Y-63287500D03*
%TO.P,J2,6,Pin_6*%
%TO.N,Net-(J2-Pad6)*%
X85825400Y-65827500D03*
%TO.P,J2,7,Pin_7*%
%TO.N,GND*%
X85825400Y-68367500D03*
%TO.P,J2,8,Pin_8*%
%TO.N,Net-(J2-Pad8)*%
X85825400Y-70907500D03*
%TO.P,J2,9,Pin_9*%
%TO.N,Net-(J2-Pad9)*%
X85825400Y-73447500D03*
%TO.P,J2,10,Pin_10*%
%TO.N,unconnected-(J2-Pad10)*%
X85825400Y-75987500D03*
%TO.P,J2,11,Pin_11*%
%TO.N,unconnected-(J2-Pad11)*%
X85825400Y-78527500D03*
%TO.P,J2,12,Pin_12*%
%TO.N,unconnected-(J2-Pad12)*%
X85825400Y-81067500D03*
%TO.P,J2,13,Pin_13*%
%TO.N,unconnected-(J2-Pad13)*%
X85825400Y-83607500D03*
%TO.P,J2,14,Pin_14*%
%TO.N,unconnected-(J2-Pad14)*%
X85825400Y-86147500D03*
%TO.P,J2,15,Pin_15*%
%TO.N,unconnected-(J2-Pad15)*%
X85825400Y-88687500D03*
%TO.P,J2,16,Pin_16*%
%TO.N,unconnected-(J2-Pad16)*%
X85825400Y-91227500D03*
%TO.P,J2,17,Pin_17*%
%TO.N,unconnected-(J2-Pad17)*%
X85825400Y-93767500D03*
%TO.P,J2,18,Pin_18*%
%TO.N,unconnected-(J2-Pad18)*%
X85825400Y-96307500D03*
%TO.P,J2,19,Pin_19*%
%TO.N,unconnected-(J2-Pad19)*%
X85825400Y-98847500D03*
%TD*%
D12*
%TO.P,J4,1,Pin_1*%
%TO.N,Net-(J1-Pad19)*%
X52624583Y-96527500D03*
D13*
%TO.P,J4,2,Pin_2*%
%TO.N,GND*%
X55124583Y-96527500D03*
%TD*%
D10*
%TO.P,J1,1,Pin_1*%
%TO.N,/3.3V*%
X63085418Y-53127500D03*
D11*
%TO.P,J1,2,Pin_2*%
%TO.N,unconnected-(J1-Pad2)*%
X63085418Y-55667500D03*
%TO.P,J1,3,Pin_3*%
%TO.N,Net-(J1-Pad3)*%
X63085418Y-58207500D03*
%TO.P,J1,4,Pin_4*%
%TO.N,unconnected-(J1-Pad4)*%
X63085418Y-60747500D03*
%TO.P,J1,5,Pin_5*%
%TO.N,Net-(J1-Pad5)*%
X63085418Y-63287500D03*
%TO.P,J1,6,Pin_6*%
%TO.N,unconnected-(J1-Pad6)*%
X63085418Y-65827500D03*
%TO.P,J1,7,Pin_7*%
%TO.N,Net-(J1-Pad7)*%
X63085418Y-68367500D03*
%TO.P,J1,8,Pin_8*%
%TO.N,Net-(J1-Pad8)*%
X63085418Y-70907500D03*
%TO.P,J1,9,Pin_9*%
%TO.N,Net-(J1-Pad9)*%
X63085418Y-73447500D03*
%TO.P,J1,10,Pin_10*%
%TO.N,unconnected-(J1-Pad10)*%
X63085418Y-75987500D03*
%TO.P,J1,11,Pin_11*%
%TO.N,unconnected-(J1-Pad11)*%
X63085418Y-78527500D03*
%TO.P,J1,12,Pin_12*%
%TO.N,unconnected-(J1-Pad12)*%
X63085418Y-81067500D03*
%TO.P,J1,13,Pin_13*%
%TO.N,unconnected-(J1-Pad13)*%
X63085418Y-83607500D03*
%TO.P,J1,14,Pin_14*%
%TO.N,GND*%
X63085418Y-86147500D03*
%TO.P,J1,15,Pin_15*%
%TO.N,unconnected-(J1-Pad15)*%
X63085418Y-88687500D03*
%TO.P,J1,16,Pin_16*%
%TO.N,unconnected-(J1-Pad16)*%
X63085418Y-91227500D03*
%TO.P,J1,17,Pin_17*%
%TO.N,unconnected-(J1-Pad17)*%
X63085418Y-93767500D03*
%TO.P,J1,18,Pin_18*%
%TO.N,unconnected-(J1-Pad18)*%
X63085418Y-96307500D03*
%TO.P,J1,19,Pin_19*%
%TO.N,Net-(J1-Pad19)*%
X63085418Y-98847500D03*
%TD*%
D14*
%TO.P,R1,1*%
%TO.N,Net-(J1-Pad7)*%
X55164583Y-63507500D03*
D15*
%TO.P,R1,2*%
%TO.N,/3.3V*%
X55164583Y-78747500D03*
%TD*%
D16*
%TO.P,J5,1,Pin_1*%
%TO.N,GND*%
X48874583Y-55587500D03*
D17*
%TO.P,J5,2,Pin_2*%
%TO.N,Net-(J1-Pad3)*%
X51374583Y-55587500D03*
%TO.P,J5,3,Pin_3*%
%TO.N,GND*%
X53874583Y-55587500D03*
%TO.P,J5,4,Pin_4*%
%TO.N,Net-(J1-Pad5)*%
X56374583Y-55587500D03*
%TD*%
D18*
%TO.P,J6,1,Pin_1*%
%TO.N,/3.3V*%
X47544583Y-66047500D03*
D19*
%TO.P,J6,2,Pin_2*%
%TO.N,GND*%
X47544583Y-68547500D03*
%TO.P,J6,3,Pin_3*%
%TO.N,Net-(J1-Pad7)*%
X47544583Y-71047500D03*
%TO.P,J6,4,Pin_4*%
%TO.N,unconnected-(J6-Pad4)*%
X47544583Y-73547500D03*
%TD*%
D16*
%TO.P,J7,1,Pin_1*%
%TO.N,Net-(J2-Pad6)*%
X48874583Y-87577500D03*
D17*
%TO.P,J7,2,Pin_2*%
%TO.N,Net-(J2-Pad3)*%
X51374583Y-87577500D03*
%TO.P,J7,3,Pin_3*%
%TO.N,GND*%
X53874583Y-87577500D03*
%TO.P,J7,4,Pin_4*%
%TO.N,/3.3V*%
X56374583Y-87577500D03*
%TD*%
D11*
%TO.P,J3,1,Pin_1*%
%TO.N,unconnected-(J3-Pad1)*%
X54850000Y-44797500D03*
%TO.P,J3,2,Pin_2*%
%TO.N,Net-(J2-Pad8)*%
X52310000Y-44797500D03*
%TO.P,J3,3,Pin_3*%
%TO.N,Net-(J2-Pad2)*%
X54850000Y-42257500D03*
%TO.P,J3,4,Pin_4*%
%TO.N,Net-(J2-Pad9)*%
X52310000Y-42257500D03*
%TO.P,J3,5,Pin_5*%
%TO.N,Net-(J1-Pad9)*%
X54850000Y-39717500D03*
%TO.P,J3,6,Pin_6*%
%TO.N,Net-(J1-Pad8)*%
X52310000Y-39717500D03*
D10*
%TO.P,J3,7,Pin_7*%
%TO.N,/3.3V*%
X54850000Y-37177500D03*
D11*
%TO.P,J3,8,Pin_8*%
%TO.N,GND*%
X52310000Y-37177500D03*
%TD*%
D20*
%TO.N,/3.3V*%
X62450000Y-49877500D02*
X58640000Y-49877500D01*
X57370000Y-48607500D02*
X57370000Y-39697500D01*
X47712500Y-66047500D02*
X60632500Y-53127500D01*
X55164583Y-73667500D02*
X55164583Y-78747500D01*
X63085418Y-53127500D02*
X60632500Y-53127500D01*
X63085418Y-50512918D02*
X62450000Y-49877500D01*
X47544583Y-66047500D02*
X47712500Y-66047500D01*
X57370000Y-39697500D02*
X54850000Y-37177500D01*
X58640000Y-49877500D02*
X57370000Y-48607500D01*
X47544583Y-66047500D02*
X55164583Y-73667500D01*
X63085418Y-53127500D02*
X63085418Y-50512918D01*
%TO.N,Net-(J2-Pad3)*%
X56519094Y-82432989D02*
X63984212Y-82432989D01*
X85825400Y-58207500D02*
X84040000Y-59992900D01*
X63984212Y-82432989D02*
X84040000Y-62377201D01*
X84040000Y-59992900D02*
X84040000Y-62377201D01*
X51374583Y-87577500D02*
X56519094Y-82432989D01*
%TO.N,Net-(J2-Pad6)*%
X64537989Y-87322011D02*
X61997989Y-87322011D01*
X64990000Y-86870000D02*
X64537989Y-87322011D01*
X50707083Y-89410000D02*
X48874583Y-87577500D01*
X64990000Y-82062918D02*
X64990000Y-86870000D01*
X85825400Y-65827500D02*
X81225418Y-65827500D01*
X59910000Y-89410000D02*
X50707083Y-89410000D01*
X61997989Y-87322011D02*
X59910000Y-89410000D01*
X81225418Y-65827500D02*
X64990000Y-82062918D01*
%TD*%
M02*
