%TF.GenerationSoftware,KiCad,Pcbnew,(6.0.2)*%
%TF.CreationDate,2022-03-10T14:49:54-08:00*%
%TF.ProjectId,node,6e6f6465-2e6b-4696-9361-645f70636258,rev?*%
%TF.SameCoordinates,Original*%
%TF.FileFunction,Copper,L2,Bot*%
%TF.FilePolarity,Positive*%
%FSLAX46Y46*%
G04 Gerber Fmt 4.6, Leading zero omitted, Abs format (unit mm)*
G04 Created by KiCad (PCBNEW (6.0.2)) date 2022-03-10 14:49:54*
%MOMM*%
%LPD*%
G01*
G04 APERTURE LIST*
G04 Aperture macros list*
%AMRoundRect*
0 Rectangle with rounded corners*
0 $1 Rounding radius*
0 $2 $3 $4 $5 $6 $7 $8 $9 X,Y pos of 4 corners*
0 Add a 4 corners polygon primitive as box body*
4,1,4,$2,$3,$4,$5,$6,$7,$8,$9,$2,$3,0*
0 Add four circle primitives for the rounded corners*
1,1,$1+$1,$2,$3*
1,1,$1+$1,$4,$5*
1,1,$1+$1,$6,$7*
1,1,$1+$1,$8,$9*
0 Add four rect primitives between the rounded corners*
20,1,$1+$1,$2,$3,$4,$5,0*
20,1,$1+$1,$4,$5,$6,$7,0*
20,1,$1+$1,$6,$7,$8,$9,0*
20,1,$1+$1,$8,$9,$2,$3,0*%
G04 Aperture macros list end*
%TA.AperFunction,ComponentPad*%
%ADD10R,1.700000X1.700000*%
%TD*%
%TA.AperFunction,ComponentPad*%
%ADD11O,1.700000X1.700000*%
%TD*%
%TA.AperFunction,ComponentPad*%
%ADD12RoundRect,0.250000X-0.600000X-0.750000X0.600000X-0.750000X0.600000X0.750000X-0.600000X0.750000X0*%
%TD*%
%TA.AperFunction,ComponentPad*%
%ADD13O,1.700000X2.000000*%
%TD*%
%TA.AperFunction,ComponentPad*%
%ADD14C,2.800000*%
%TD*%
%TA.AperFunction,ComponentPad*%
%ADD15O,2.800000X2.800000*%
%TD*%
%TA.AperFunction,ComponentPad*%
%ADD16RoundRect,0.250000X-0.600000X-0.725000X0.600000X-0.725000X0.600000X0.725000X-0.600000X0.725000X0*%
%TD*%
%TA.AperFunction,ComponentPad*%
%ADD17O,1.700000X1.950000*%
%TD*%
%TA.AperFunction,ComponentPad*%
%ADD18RoundRect,0.250000X-0.725000X0.600000X-0.725000X-0.600000X0.725000X-0.600000X0.725000X0.600000X0*%
%TD*%
%TA.AperFunction,ComponentPad*%
%ADD19O,1.950000X1.700000*%
%TD*%
%TA.AperFunction,Conductor*%
%ADD20C,0.250000*%
%TD*%
%TA.AperFunction,Conductor*%
%ADD21C,0.500000*%
%TD*%
G04 APERTURE END LIST*
D10*
%TO.P,J2,1,Pin_1*%
%TO.N,GND*%
X85825400Y-53127500D03*
D11*
%TO.P,J2,2,Pin_2*%
%TO.N,Net-(J2-Pad2)*%
X85825400Y-55667500D03*
%TO.P,J2,3,Pin_3*%
%TO.N,Net-(J2-Pad3)*%
X85825400Y-58207500D03*
%TO.P,J2,4,Pin_4*%
%TO.N,unconnected-(J2-Pad4)*%
X85825400Y-60747500D03*
%TO.P,J2,5,Pin_5*%
%TO.N,unconnected-(J2-Pad5)*%
X85825400Y-63287500D03*
%TO.P,J2,6,Pin_6*%
%TO.N,Net-(J2-Pad6)*%
X85825400Y-65827500D03*
%TO.P,J2,7,Pin_7*%
%TO.N,GND*%
X85825400Y-68367500D03*
%TO.P,J2,8,Pin_8*%
%TO.N,Net-(J2-Pad8)*%
X85825400Y-70907500D03*
%TO.P,J2,9,Pin_9*%
%TO.N,Net-(J2-Pad9)*%
X85825400Y-73447500D03*
%TO.P,J2,10,Pin_10*%
%TO.N,unconnected-(J2-Pad10)*%
X85825400Y-75987500D03*
%TO.P,J2,11,Pin_11*%
%TO.N,unconnected-(J2-Pad11)*%
X85825400Y-78527500D03*
%TO.P,J2,12,Pin_12*%
%TO.N,unconnected-(J2-Pad12)*%
X85825400Y-81067500D03*
%TO.P,J2,13,Pin_13*%
%TO.N,unconnected-(J2-Pad13)*%
X85825400Y-83607500D03*
%TO.P,J2,14,Pin_14*%
%TO.N,unconnected-(J2-Pad14)*%
X85825400Y-86147500D03*
%TO.P,J2,15,Pin_15*%
%TO.N,unconnected-(J2-Pad15)*%
X85825400Y-88687500D03*
%TO.P,J2,16,Pin_16*%
%TO.N,unconnected-(J2-Pad16)*%
X85825400Y-91227500D03*
%TO.P,J2,17,Pin_17*%
%TO.N,unconnected-(J2-Pad17)*%
X85825400Y-93767500D03*
%TO.P,J2,18,Pin_18*%
%TO.N,unconnected-(J2-Pad18)*%
X85825400Y-96307500D03*
%TO.P,J2,19,Pin_19*%
%TO.N,unconnected-(J2-Pad19)*%
X85825400Y-98847500D03*
%TD*%
D12*
%TO.P,J4,1,Pin_1*%
%TO.N,Net-(J1-Pad19)*%
X52624583Y-96527500D03*
D13*
%TO.P,J4,2,Pin_2*%
%TO.N,GND*%
X55124583Y-96527500D03*
%TD*%
D10*
%TO.P,J1,1,Pin_1*%
%TO.N,/3.3V*%
X63085418Y-53127500D03*
D11*
%TO.P,J1,2,Pin_2*%
%TO.N,unconnected-(J1-Pad2)*%
X63085418Y-55667500D03*
%TO.P,J1,3,Pin_3*%
%TO.N,Net-(J1-Pad3)*%
X63085418Y-58207500D03*
%TO.P,J1,4,Pin_4*%
%TO.N,unconnected-(J1-Pad4)*%
X63085418Y-60747500D03*
%TO.P,J1,5,Pin_5*%
%TO.N,Net-(J1-Pad5)*%
X63085418Y-63287500D03*
%TO.P,J1,6,Pin_6*%
%TO.N,unconnected-(J1-Pad6)*%
X63085418Y-65827500D03*
%TO.P,J1,7,Pin_7*%
%TO.N,Net-(J1-Pad7)*%
X63085418Y-68367500D03*
%TO.P,J1,8,Pin_8*%
%TO.N,Net-(J1-Pad8)*%
X63085418Y-70907500D03*
%TO.P,J1,9,Pin_9*%
%TO.N,Net-(J1-Pad9)*%
X63085418Y-73447500D03*
%TO.P,J1,10,Pin_10*%
%TO.N,unconnected-(J1-Pad10)*%
X63085418Y-75987500D03*
%TO.P,J1,11,Pin_11*%
%TO.N,unconnected-(J1-Pad11)*%
X63085418Y-78527500D03*
%TO.P,J1,12,Pin_12*%
%TO.N,unconnected-(J1-Pad12)*%
X63085418Y-81067500D03*
%TO.P,J1,13,Pin_13*%
%TO.N,unconnected-(J1-Pad13)*%
X63085418Y-83607500D03*
%TO.P,J1,14,Pin_14*%
%TO.N,GND*%
X63085418Y-86147500D03*
%TO.P,J1,15,Pin_15*%
%TO.N,unconnected-(J1-Pad15)*%
X63085418Y-88687500D03*
%TO.P,J1,16,Pin_16*%
%TO.N,unconnected-(J1-Pad16)*%
X63085418Y-91227500D03*
%TO.P,J1,17,Pin_17*%
%TO.N,unconnected-(J1-Pad17)*%
X63085418Y-93767500D03*
%TO.P,J1,18,Pin_18*%
%TO.N,unconnected-(J1-Pad18)*%
X63085418Y-96307500D03*
%TO.P,J1,19,Pin_19*%
%TO.N,Net-(J1-Pad19)*%
X63085418Y-98847500D03*
%TD*%
D14*
%TO.P,R1,1*%
%TO.N,Net-(J1-Pad7)*%
X55164583Y-63507500D03*
D15*
%TO.P,R1,2*%
%TO.N,/3.3V*%
X55164583Y-78747500D03*
%TD*%
D16*
%TO.P,J5,1,Pin_1*%
%TO.N,GND*%
X48874583Y-55587500D03*
D17*
%TO.P,J5,2,Pin_2*%
%TO.N,Net-(J1-Pad3)*%
X51374583Y-55587500D03*
%TO.P,J5,3,Pin_3*%
%TO.N,GND*%
X53874583Y-55587500D03*
%TO.P,J5,4,Pin_4*%
%TO.N,Net-(J1-Pad5)*%
X56374583Y-55587500D03*
%TD*%
D18*
%TO.P,J6,1,Pin_1*%
%TO.N,/3.3V*%
X47544583Y-66047500D03*
D19*
%TO.P,J6,2,Pin_2*%
%TO.N,GND*%
X47544583Y-68547500D03*
%TO.P,J6,3,Pin_3*%
%TO.N,Net-(J1-Pad7)*%
X47544583Y-71047500D03*
%TO.P,J6,4,Pin_4*%
%TO.N,unconnected-(J6-Pad4)*%
X47544583Y-73547500D03*
%TD*%
D16*
%TO.P,J7,1,Pin_1*%
%TO.N,Net-(J2-Pad6)*%
X48874583Y-87577500D03*
D17*
%TO.P,J7,2,Pin_2*%
%TO.N,Net-(J2-Pad3)*%
X51374583Y-87577500D03*
%TO.P,J7,3,Pin_3*%
%TO.N,GND*%
X53874583Y-87577500D03*
%TO.P,J7,4,Pin_4*%
%TO.N,/3.3V*%
X56374583Y-87577500D03*
%TD*%
D11*
%TO.P,J3,1,Pin_1*%
%TO.N,unconnected-(J3-Pad1)*%
X54850000Y-44797500D03*
%TO.P,J3,2,Pin_2*%
%TO.N,Net-(J2-Pad8)*%
X52310000Y-44797500D03*
%TO.P,J3,3,Pin_3*%
%TO.N,Net-(J2-Pad2)*%
X54850000Y-42257500D03*
%TO.P,J3,4,Pin_4*%
%TO.N,Net-(J2-Pad9)*%
X52310000Y-42257500D03*
%TO.P,J3,5,Pin_5*%
%TO.N,Net-(J1-Pad9)*%
X54850000Y-39717500D03*
%TO.P,J3,6,Pin_6*%
%TO.N,Net-(J1-Pad8)*%
X52310000Y-39717500D03*
D10*
%TO.P,J3,7,Pin_7*%
%TO.N,/3.3V*%
X54850000Y-37177500D03*
D11*
%TO.P,J3,8,Pin_8*%
%TO.N,GND*%
X52310000Y-37177500D03*
%TD*%
D20*
%TO.N,GND*%
X48480000Y-55192917D02*
X48480000Y-49877500D01*
X87850000Y-70392100D02*
X85825400Y-68367500D01*
X48480000Y-49877500D02*
X45940000Y-47337500D01*
X71995489Y-79702011D02*
X87235489Y-79702011D01*
X46667500Y-68547500D02*
X44670000Y-66550000D01*
X53874583Y-55587500D02*
X52137083Y-53850000D01*
X53874583Y-87577500D02*
X53874583Y-85914583D01*
X65550000Y-86147500D02*
X71995489Y-79702011D01*
X53874583Y-87577500D02*
X55620001Y-89322918D01*
X44670000Y-76710000D02*
X44670000Y-71422083D01*
X45940000Y-47337500D02*
X45940000Y-43527500D01*
X52137083Y-53850000D02*
X49750000Y-53850000D01*
X48874583Y-55587500D02*
X48480000Y-55192917D01*
X87850000Y-55152100D02*
X85825400Y-53127500D01*
X87235489Y-79702011D02*
X87850000Y-79087500D01*
X55332500Y-96527500D02*
X55124583Y-96527500D01*
X85825400Y-68367500D02*
X87805400Y-66387500D01*
X44670000Y-59792083D02*
X48874583Y-55587500D01*
D21*
X59910000Y-91950000D02*
X55332500Y-96527500D01*
D20*
X87805400Y-66387500D02*
X87850000Y-66387500D01*
X87850000Y-79087500D02*
X87850000Y-70392100D01*
X48874583Y-40612917D02*
X48854583Y-40612917D01*
X48874583Y-54725417D02*
X48874583Y-55587500D01*
X47544583Y-68547500D02*
X46667500Y-68547500D01*
X44670000Y-66550000D02*
X44670000Y-59792083D01*
X63085418Y-86147500D02*
X65550000Y-86147500D01*
X55620001Y-89322918D02*
X59910000Y-89322918D01*
X48854583Y-40612917D02*
X45940000Y-43527500D01*
X48874583Y-40612917D02*
X52310000Y-37177500D01*
X87850000Y-66387500D02*
X87850000Y-55152100D01*
D21*
X59910000Y-89322918D02*
X59910000Y-91950000D01*
D20*
X44670000Y-71422083D02*
X47544583Y-68547500D01*
D21*
X63085418Y-86147500D02*
X59910000Y-89322918D01*
D20*
X53874583Y-85914583D02*
X44670000Y-76710000D01*
X49750000Y-53850000D02*
X48874583Y-54725417D01*
%TO.N,/3.3V*%
X55164583Y-86367500D02*
X56374583Y-87577500D01*
X55164583Y-78747500D02*
X55164583Y-86367500D01*
%TO.N,Net-(J1-Pad8)*%
X47210000Y-44797500D02*
X49750000Y-42257500D01*
X51020000Y-51147500D02*
X47210000Y-47337500D01*
X49770000Y-42257500D02*
X52310000Y-39717500D01*
X47210000Y-47337500D02*
X47210000Y-44797500D01*
X66260000Y-52417500D02*
X64990000Y-51147500D01*
X66260000Y-67732918D02*
X66260000Y-52417500D01*
X63085418Y-70907500D02*
X66260000Y-67732918D01*
X49750000Y-42257500D02*
X49770000Y-42257500D01*
X57370000Y-51147500D02*
X51020000Y-51147500D01*
X64990000Y-51147500D02*
X57370000Y-51147500D01*
%TO.N,Net-(J1-Pad9)*%
X67530000Y-69002918D02*
X67530000Y-51147500D01*
X51918990Y-40987500D02*
X53580000Y-40987500D01*
X48480000Y-44426490D02*
X51918990Y-40987500D01*
X48480000Y-47337500D02*
X48480000Y-44426490D01*
X51020000Y-49877500D02*
X48480000Y-47337500D01*
X63085418Y-73447500D02*
X67530000Y-69002918D01*
X66260000Y-49877500D02*
X51020000Y-49877500D01*
X67530000Y-51147500D02*
X66260000Y-49877500D01*
X53580000Y-40987500D02*
X54850000Y-39717500D01*
%TO.N,Net-(J2-Pad2)*%
X80230000Y-54957500D02*
X80230000Y-47337500D01*
X80940000Y-55667500D02*
X80230000Y-54957500D01*
X80230000Y-47337500D02*
X78960000Y-46067500D01*
X58660000Y-46067500D02*
X54850000Y-42257500D01*
X78960000Y-46067500D02*
X58660000Y-46067500D01*
X85825400Y-55667500D02*
X80940000Y-55667500D01*
%TO.N,Net-(J1-Pad3)*%
X54361085Y-56887020D02*
X52674103Y-56887020D01*
X52674103Y-56887020D02*
X51374583Y-55587500D01*
X55200063Y-54975998D02*
X55200063Y-56048042D01*
X56326061Y-53850000D02*
X55200063Y-54975998D01*
X58727918Y-53850000D02*
X56326061Y-53850000D01*
X55200063Y-56048042D02*
X54361085Y-56887020D01*
X63085418Y-58207500D02*
X58727918Y-53850000D01*
%TO.N,Net-(J1-Pad5)*%
X56374583Y-56576665D02*
X56374583Y-55587500D01*
X63085418Y-63287500D02*
X56374583Y-56576665D01*
%TO.N,Net-(J1-Pad7)*%
X47544583Y-71047500D02*
X47624583Y-71047500D01*
X47624583Y-71047500D02*
X55164583Y-63507500D01*
X63085418Y-68367500D02*
X60024583Y-68367500D01*
X60024583Y-68367500D02*
X55164583Y-63507500D01*
D21*
%TO.N,Net-(J1-Pad19)*%
X59910000Y-99570000D02*
X60632500Y-98847500D01*
X52624583Y-96527500D02*
X55667083Y-99570000D01*
X60632500Y-98847500D02*
X63085418Y-98847500D01*
X55667083Y-99570000D02*
X59910000Y-99570000D01*
D20*
%TO.N,Net-(J2-Pad8)*%
X53560000Y-47337500D02*
X52310000Y-46087500D01*
X52310000Y-46087500D02*
X52310000Y-44797500D01*
X77690000Y-47337500D02*
X53560000Y-47337500D01*
X85825400Y-70907500D02*
X79670000Y-70907500D01*
X78960000Y-70197500D02*
X78960000Y-48607500D01*
X78960000Y-48607500D02*
X77690000Y-47337500D01*
X79670000Y-70907500D02*
X78960000Y-70197500D01*
%TO.N,Net-(J2-Pad9)*%
X79670000Y-73447500D02*
X78960000Y-72737500D01*
X49750000Y-44817500D02*
X52310000Y-42257500D01*
X77690000Y-58767500D02*
X77690000Y-49877500D01*
X52290000Y-48607500D02*
X49750000Y-46067500D01*
X77690000Y-71467500D02*
X77690000Y-58767500D01*
X85825400Y-73447500D02*
X79670000Y-73447500D01*
X49750000Y-46067500D02*
X49750000Y-44817500D01*
X77690000Y-49877500D02*
X76420000Y-48607500D01*
X76420000Y-48607500D02*
X52290000Y-48607500D01*
X78960000Y-72737500D02*
X77690000Y-71467500D01*
%TD*%
M02*
