G04 #@! TF.GenerationSoftware,KiCad,Pcbnew,(6.0.2)*
G04 #@! TF.CreationDate,2022-12-04T09:30:56-08:00*
G04 #@! TF.ProjectId,robot_pcb,726f626f-745f-4706-9362-2e6b69636164,rev?*
G04 #@! TF.SameCoordinates,Original*
G04 #@! TF.FileFunction,Legend,Top*
G04 #@! TF.FilePolarity,Positive*
%FSLAX46Y46*%
G04 Gerber Fmt 4.6, Leading zero omitted, Abs format (unit mm)*
G04 Created by KiCad (PCBNEW (6.0.2)) date 2022-12-04 09:30:56*
%MOMM*%
%LPD*%
G01*
G04 APERTURE LIST*
G04 Aperture macros list*
%AMRoundRect*
0 Rectangle with rounded corners*
0 $1 Rounding radius*
0 $2 $3 $4 $5 $6 $7 $8 $9 X,Y pos of 4 corners*
0 Add a 4 corners polygon primitive as box body*
4,1,4,$2,$3,$4,$5,$6,$7,$8,$9,$2,$3,0*
0 Add four circle primitives for the rounded corners*
1,1,$1+$1,$2,$3*
1,1,$1+$1,$4,$5*
1,1,$1+$1,$6,$7*
1,1,$1+$1,$8,$9*
0 Add four rect primitives between the rounded corners*
20,1,$1+$1,$2,$3,$4,$5,0*
20,1,$1+$1,$4,$5,$6,$7,0*
20,1,$1+$1,$6,$7,$8,$9,0*
20,1,$1+$1,$8,$9,$2,$3,0*%
G04 Aperture macros list end*
%ADD10C,0.150000*%
%ADD11C,0.450000*%
%ADD12C,0.120000*%
%ADD13C,0.100000*%
%ADD14R,1.700000X1.700000*%
%ADD15O,1.700000X1.700000*%
%ADD16RoundRect,0.070000X-0.300000X0.650000X-0.300000X-0.650000X0.300000X-0.650000X0.300000X0.650000X0*%
%ADD17RoundRect,0.070000X0.650000X0.300000X-0.650000X0.300000X-0.650000X-0.300000X0.650000X-0.300000X0*%
%ADD18C,2.700000*%
%ADD19RoundRect,0.250000X0.350000X0.450000X-0.350000X0.450000X-0.350000X-0.450000X0.350000X-0.450000X0*%
%ADD20R,1.600000X1.600000*%
%ADD21O,1.600000X1.600000*%
%ADD22RoundRect,0.070000X-0.650000X-0.300000X0.650000X-0.300000X0.650000X0.300000X-0.650000X0.300000X0*%
%ADD23RoundRect,0.250000X-0.350000X-0.450000X0.350000X-0.450000X0.350000X0.450000X-0.350000X0.450000X0*%
%ADD24RoundRect,0.250000X0.450000X-0.350000X0.450000X0.350000X-0.450000X0.350000X-0.450000X-0.350000X0*%
%ADD25RoundRect,0.250000X-0.450000X0.350000X-0.450000X-0.350000X0.450000X-0.350000X0.450000X0.350000X0*%
G04 APERTURE END LIST*
D10*
X99512380Y-80001714D02*
X98845714Y-80001714D01*
X98940952Y-80001714D02*
X98893333Y-79954095D01*
X98845714Y-79858857D01*
X98845714Y-79716000D01*
X98893333Y-79620761D01*
X98988571Y-79573142D01*
X99512380Y-79573142D01*
X98988571Y-79573142D02*
X98893333Y-79525523D01*
X98845714Y-79430285D01*
X98845714Y-79287428D01*
X98893333Y-79192190D01*
X98988571Y-79144571D01*
X99512380Y-79144571D01*
X99512380Y-78525523D02*
X99464761Y-78620761D01*
X99417142Y-78668380D01*
X99321904Y-78716000D01*
X99036190Y-78716000D01*
X98940952Y-78668380D01*
X98893333Y-78620761D01*
X98845714Y-78525523D01*
X98845714Y-78382666D01*
X98893333Y-78287428D01*
X98940952Y-78239809D01*
X99036190Y-78192190D01*
X99321904Y-78192190D01*
X99417142Y-78239809D01*
X99464761Y-78287428D01*
X99512380Y-78382666D01*
X99512380Y-78525523D01*
X98845714Y-77906476D02*
X98845714Y-77525523D01*
X98512380Y-77763619D02*
X99369523Y-77763619D01*
X99464761Y-77716000D01*
X99512380Y-77620761D01*
X99512380Y-77525523D01*
X99512380Y-77049333D02*
X99464761Y-77144571D01*
X99417142Y-77192190D01*
X99321904Y-77239809D01*
X99036190Y-77239809D01*
X98940952Y-77192190D01*
X98893333Y-77144571D01*
X98845714Y-77049333D01*
X98845714Y-76906476D01*
X98893333Y-76811238D01*
X98940952Y-76763619D01*
X99036190Y-76716000D01*
X99321904Y-76716000D01*
X99417142Y-76763619D01*
X99464761Y-76811238D01*
X99512380Y-76906476D01*
X99512380Y-77049333D01*
X99512380Y-76287428D02*
X98845714Y-76287428D01*
X99036190Y-76287428D02*
X98940952Y-76239809D01*
X98893333Y-76192190D01*
X98845714Y-76096952D01*
X98845714Y-76001714D01*
X99512380Y-74382666D02*
X99512380Y-74954095D01*
X99512380Y-74668380D02*
X98512380Y-74668380D01*
X98655238Y-74763619D01*
X98750476Y-74858857D01*
X98798095Y-74954095D01*
X150820380Y-81779714D02*
X150153714Y-81779714D01*
X150248952Y-81779714D02*
X150201333Y-81732095D01*
X150153714Y-81636857D01*
X150153714Y-81494000D01*
X150201333Y-81398761D01*
X150296571Y-81351142D01*
X150820380Y-81351142D01*
X150296571Y-81351142D02*
X150201333Y-81303523D01*
X150153714Y-81208285D01*
X150153714Y-81065428D01*
X150201333Y-80970190D01*
X150296571Y-80922571D01*
X150820380Y-80922571D01*
X150820380Y-80303523D02*
X150772761Y-80398761D01*
X150725142Y-80446380D01*
X150629904Y-80494000D01*
X150344190Y-80494000D01*
X150248952Y-80446380D01*
X150201333Y-80398761D01*
X150153714Y-80303523D01*
X150153714Y-80160666D01*
X150201333Y-80065428D01*
X150248952Y-80017809D01*
X150344190Y-79970190D01*
X150629904Y-79970190D01*
X150725142Y-80017809D01*
X150772761Y-80065428D01*
X150820380Y-80160666D01*
X150820380Y-80303523D01*
X150153714Y-79684476D02*
X150153714Y-79303523D01*
X149820380Y-79541619D02*
X150677523Y-79541619D01*
X150772761Y-79494000D01*
X150820380Y-79398761D01*
X150820380Y-79303523D01*
X150820380Y-78827333D02*
X150772761Y-78922571D01*
X150725142Y-78970190D01*
X150629904Y-79017809D01*
X150344190Y-79017809D01*
X150248952Y-78970190D01*
X150201333Y-78922571D01*
X150153714Y-78827333D01*
X150153714Y-78684476D01*
X150201333Y-78589238D01*
X150248952Y-78541619D01*
X150344190Y-78494000D01*
X150629904Y-78494000D01*
X150725142Y-78541619D01*
X150772761Y-78589238D01*
X150820380Y-78684476D01*
X150820380Y-78827333D01*
X150820380Y-78065428D02*
X150153714Y-78065428D01*
X150344190Y-78065428D02*
X150248952Y-78017809D01*
X150201333Y-77970190D01*
X150153714Y-77874952D01*
X150153714Y-77779714D01*
X149915619Y-76732095D02*
X149868000Y-76684476D01*
X149820380Y-76589238D01*
X149820380Y-76351142D01*
X149868000Y-76255904D01*
X149915619Y-76208285D01*
X150010857Y-76160666D01*
X150106095Y-76160666D01*
X150248952Y-76208285D01*
X150820380Y-76779714D01*
X150820380Y-76160666D01*
X152117904Y-60849880D02*
X151736952Y-61116547D01*
X152117904Y-61307023D02*
X151317904Y-61307023D01*
X151317904Y-61002261D01*
X151356000Y-60926071D01*
X151394095Y-60887976D01*
X151470285Y-60849880D01*
X151584571Y-60849880D01*
X151660761Y-60887976D01*
X151698857Y-60926071D01*
X151736952Y-61002261D01*
X151736952Y-61307023D01*
X152117904Y-60392738D02*
X152079809Y-60468928D01*
X152041714Y-60507023D01*
X151965523Y-60545119D01*
X151736952Y-60545119D01*
X151660761Y-60507023D01*
X151622666Y-60468928D01*
X151584571Y-60392738D01*
X151584571Y-60278452D01*
X151622666Y-60202261D01*
X151660761Y-60164166D01*
X151736952Y-60126071D01*
X151965523Y-60126071D01*
X152041714Y-60164166D01*
X152079809Y-60202261D01*
X152117904Y-60278452D01*
X152117904Y-60392738D01*
X152117904Y-59783214D02*
X151317904Y-59783214D01*
X151622666Y-59783214D02*
X151584571Y-59707023D01*
X151584571Y-59554642D01*
X151622666Y-59478452D01*
X151660761Y-59440357D01*
X151736952Y-59402261D01*
X151965523Y-59402261D01*
X152041714Y-59440357D01*
X152079809Y-59478452D01*
X152117904Y-59554642D01*
X152117904Y-59707023D01*
X152079809Y-59783214D01*
X152117904Y-58945119D02*
X152079809Y-59021309D01*
X152041714Y-59059404D01*
X151965523Y-59097500D01*
X151736952Y-59097500D01*
X151660761Y-59059404D01*
X151622666Y-59021309D01*
X151584571Y-58945119D01*
X151584571Y-58830833D01*
X151622666Y-58754642D01*
X151660761Y-58716547D01*
X151736952Y-58678452D01*
X151965523Y-58678452D01*
X152041714Y-58716547D01*
X152079809Y-58754642D01*
X152117904Y-58830833D01*
X152117904Y-58945119D01*
X151584571Y-58449880D02*
X151584571Y-58145119D01*
X151317904Y-58335595D02*
X152003619Y-58335595D01*
X152079809Y-58297500D01*
X152117904Y-58221309D01*
X152117904Y-58145119D01*
X152041714Y-56811785D02*
X152079809Y-56849880D01*
X152117904Y-56964166D01*
X152117904Y-57040357D01*
X152079809Y-57154642D01*
X152003619Y-57230833D01*
X151927428Y-57268928D01*
X151775047Y-57307023D01*
X151660761Y-57307023D01*
X151508380Y-57268928D01*
X151432190Y-57230833D01*
X151356000Y-57154642D01*
X151317904Y-57040357D01*
X151317904Y-56964166D01*
X151356000Y-56849880D01*
X151394095Y-56811785D01*
X152117904Y-56354642D02*
X152079809Y-56430833D01*
X152041714Y-56468928D01*
X151965523Y-56507023D01*
X151736952Y-56507023D01*
X151660761Y-56468928D01*
X151622666Y-56430833D01*
X151584571Y-56354642D01*
X151584571Y-56240357D01*
X151622666Y-56164166D01*
X151660761Y-56126071D01*
X151736952Y-56087976D01*
X151965523Y-56087976D01*
X152041714Y-56126071D01*
X152079809Y-56164166D01*
X152117904Y-56240357D01*
X152117904Y-56354642D01*
X151584571Y-55745119D02*
X152117904Y-55745119D01*
X151660761Y-55745119D02*
X151622666Y-55707023D01*
X151584571Y-55630833D01*
X151584571Y-55516547D01*
X151622666Y-55440357D01*
X151698857Y-55402261D01*
X152117904Y-55402261D01*
X151584571Y-55135595D02*
X151584571Y-54830833D01*
X151317904Y-55021309D02*
X152003619Y-55021309D01*
X152079809Y-54983214D01*
X152117904Y-54907023D01*
X152117904Y-54830833D01*
X152117904Y-54564166D02*
X151584571Y-54564166D01*
X151736952Y-54564166D02*
X151660761Y-54526071D01*
X151622666Y-54487976D01*
X151584571Y-54411785D01*
X151584571Y-54335595D01*
X152117904Y-53954642D02*
X152079809Y-54030833D01*
X152041714Y-54068928D01*
X151965523Y-54107023D01*
X151736952Y-54107023D01*
X151660761Y-54068928D01*
X151622666Y-54030833D01*
X151584571Y-53954642D01*
X151584571Y-53840357D01*
X151622666Y-53764166D01*
X151660761Y-53726071D01*
X151736952Y-53687976D01*
X151965523Y-53687976D01*
X152041714Y-53726071D01*
X152079809Y-53764166D01*
X152117904Y-53840357D01*
X152117904Y-53954642D01*
X152117904Y-53230833D02*
X152079809Y-53307023D01*
X152003619Y-53345119D01*
X151317904Y-53345119D01*
X152117904Y-52811785D02*
X152079809Y-52887976D01*
X152003619Y-52926071D01*
X151317904Y-52926071D01*
X152079809Y-52202261D02*
X152117904Y-52278452D01*
X152117904Y-52430833D01*
X152079809Y-52507023D01*
X152003619Y-52545119D01*
X151698857Y-52545119D01*
X151622666Y-52507023D01*
X151584571Y-52430833D01*
X151584571Y-52278452D01*
X151622666Y-52202261D01*
X151698857Y-52164166D01*
X151775047Y-52164166D01*
X151851238Y-52545119D01*
X152117904Y-51821309D02*
X151584571Y-51821309D01*
X151736952Y-51821309D02*
X151660761Y-51783214D01*
X151622666Y-51745119D01*
X151584571Y-51668928D01*
X151584571Y-51592738D01*
X153405904Y-60849880D02*
X153024952Y-61116547D01*
X153405904Y-61307023D02*
X152605904Y-61307023D01*
X152605904Y-61002261D01*
X152644000Y-60926071D01*
X152682095Y-60887976D01*
X152758285Y-60849880D01*
X152872571Y-60849880D01*
X152948761Y-60887976D01*
X152986857Y-60926071D01*
X153024952Y-61002261D01*
X153024952Y-61307023D01*
X153367809Y-60202261D02*
X153405904Y-60278452D01*
X153405904Y-60430833D01*
X153367809Y-60507023D01*
X153291619Y-60545119D01*
X152986857Y-60545119D01*
X152910666Y-60507023D01*
X152872571Y-60430833D01*
X152872571Y-60278452D01*
X152910666Y-60202261D01*
X152986857Y-60164166D01*
X153063047Y-60164166D01*
X153139238Y-60545119D01*
X152872571Y-59897500D02*
X153405904Y-59707023D01*
X152872571Y-59516547D01*
X152682095Y-58640357D02*
X152644000Y-58602261D01*
X152605904Y-58526071D01*
X152605904Y-58335595D01*
X152644000Y-58259404D01*
X152682095Y-58221309D01*
X152758285Y-58183214D01*
X152834476Y-58183214D01*
X152948761Y-58221309D01*
X153405904Y-58678452D01*
X153405904Y-58183214D01*
X105362666Y-104544761D02*
X105267428Y-104592380D01*
X105076952Y-104592380D01*
X104981714Y-104544761D01*
X104934095Y-104449523D01*
X104934095Y-104068571D01*
X104981714Y-103973333D01*
X105076952Y-103925714D01*
X105267428Y-103925714D01*
X105362666Y-103973333D01*
X105410285Y-104068571D01*
X105410285Y-104163809D01*
X104934095Y-104259047D01*
X105791238Y-104544761D02*
X105886476Y-104592380D01*
X106076952Y-104592380D01*
X106172190Y-104544761D01*
X106219809Y-104449523D01*
X106219809Y-104401904D01*
X106172190Y-104306666D01*
X106076952Y-104259047D01*
X105934095Y-104259047D01*
X105838857Y-104211428D01*
X105791238Y-104116190D01*
X105791238Y-104068571D01*
X105838857Y-103973333D01*
X105934095Y-103925714D01*
X106076952Y-103925714D01*
X106172190Y-103973333D01*
X106648380Y-103925714D02*
X106648380Y-104925714D01*
X106648380Y-103973333D02*
X106743619Y-103925714D01*
X106934095Y-103925714D01*
X107029333Y-103973333D01*
X107076952Y-104020952D01*
X107124571Y-104116190D01*
X107124571Y-104401904D01*
X107076952Y-104497142D01*
X107029333Y-104544761D01*
X106934095Y-104592380D01*
X106743619Y-104592380D01*
X106648380Y-104544761D01*
X108315047Y-103925714D02*
X108315047Y-104925714D01*
X108315047Y-103973333D02*
X108410285Y-103925714D01*
X108600761Y-103925714D01*
X108696000Y-103973333D01*
X108743619Y-104020952D01*
X108791238Y-104116190D01*
X108791238Y-104401904D01*
X108743619Y-104497142D01*
X108696000Y-104544761D01*
X108600761Y-104592380D01*
X108410285Y-104592380D01*
X108315047Y-104544761D01*
X109124571Y-103925714D02*
X109315047Y-104592380D01*
X109505523Y-104116190D01*
X109696000Y-104592380D01*
X109886476Y-103925714D01*
X110267428Y-104592380D02*
X110267428Y-103925714D01*
X110267428Y-104116190D02*
X110315047Y-104020952D01*
X110362666Y-103973333D01*
X110457904Y-103925714D01*
X110553142Y-103925714D01*
D11*
X114705404Y-105310952D02*
X114482190Y-107096666D01*
X114318500Y-107453809D01*
X114050642Y-107691904D01*
X113678619Y-107810952D01*
X113440523Y-107810952D01*
X115583380Y-107810952D02*
X115895880Y-105310952D01*
X116848261Y-105310952D01*
X117071476Y-105430000D01*
X117175642Y-105549047D01*
X117264928Y-105787142D01*
X117220285Y-106144285D01*
X117071476Y-106382380D01*
X116937547Y-106501428D01*
X116684571Y-106620476D01*
X115732190Y-106620476D01*
X118083380Y-107810952D02*
X118395880Y-105310952D01*
X119006000Y-107096666D01*
X120062547Y-105310952D01*
X119750047Y-107810952D01*
X124273857Y-107810952D02*
X123589333Y-106620476D01*
X122845285Y-107810952D02*
X123157785Y-105310952D01*
X124110166Y-105310952D01*
X124333380Y-105430000D01*
X124437547Y-105549047D01*
X124526833Y-105787142D01*
X124482190Y-106144285D01*
X124333380Y-106382380D01*
X124199452Y-106501428D01*
X123946476Y-106620476D01*
X122994095Y-106620476D01*
X125702428Y-107810952D02*
X125479214Y-107691904D01*
X125375047Y-107572857D01*
X125285761Y-107334761D01*
X125375047Y-106620476D01*
X125523857Y-106382380D01*
X125657785Y-106263333D01*
X125910761Y-106144285D01*
X126267904Y-106144285D01*
X126491119Y-106263333D01*
X126595285Y-106382380D01*
X126684571Y-106620476D01*
X126595285Y-107334761D01*
X126446476Y-107572857D01*
X126312547Y-107691904D01*
X126059571Y-107810952D01*
X125702428Y-107810952D01*
X127607190Y-107810952D02*
X127919690Y-105310952D01*
X127800642Y-106263333D02*
X128053619Y-106144285D01*
X128529809Y-106144285D01*
X128753023Y-106263333D01*
X128857190Y-106382380D01*
X128946476Y-106620476D01*
X128857190Y-107334761D01*
X128708380Y-107572857D01*
X128574452Y-107691904D01*
X128321476Y-107810952D01*
X127845285Y-107810952D01*
X127622071Y-107691904D01*
X130226238Y-107810952D02*
X130003023Y-107691904D01*
X129898857Y-107572857D01*
X129809571Y-107334761D01*
X129898857Y-106620476D01*
X130047666Y-106382380D01*
X130181595Y-106263333D01*
X130434571Y-106144285D01*
X130791714Y-106144285D01*
X131014928Y-106263333D01*
X131119095Y-106382380D01*
X131208380Y-106620476D01*
X131119095Y-107334761D01*
X130970285Y-107572857D01*
X130836357Y-107691904D01*
X130583380Y-107810952D01*
X130226238Y-107810952D01*
X131982190Y-106144285D02*
X132934571Y-106144285D01*
X132443500Y-105310952D02*
X132175642Y-107453809D01*
X132264928Y-107691904D01*
X132488142Y-107810952D01*
X132726238Y-107810952D01*
X133559571Y-107810952D02*
X133767904Y-106144285D01*
X133872071Y-105310952D02*
X133738142Y-105430000D01*
X133842309Y-105549047D01*
X133976238Y-105430000D01*
X133872071Y-105310952D01*
X133842309Y-105549047D01*
X135836357Y-107691904D02*
X135583380Y-107810952D01*
X135107190Y-107810952D01*
X134883976Y-107691904D01*
X134779809Y-107572857D01*
X134690523Y-107334761D01*
X134779809Y-106620476D01*
X134928619Y-106382380D01*
X135062547Y-106263333D01*
X135315523Y-106144285D01*
X135791714Y-106144285D01*
X136014928Y-106263333D01*
X136788738Y-107691904D02*
X137011952Y-107810952D01*
X137488142Y-107810952D01*
X137741119Y-107691904D01*
X137889928Y-107453809D01*
X137904809Y-107334761D01*
X137815523Y-107096666D01*
X137592309Y-106977619D01*
X137235166Y-106977619D01*
X137011952Y-106858571D01*
X136922666Y-106620476D01*
X136937547Y-106501428D01*
X137086357Y-106263333D01*
X137339333Y-106144285D01*
X137696476Y-106144285D01*
X137919690Y-106263333D01*
D10*
X131024761Y-51887380D02*
X131024761Y-51220714D01*
X131024761Y-51315952D02*
X131072380Y-51268333D01*
X131167619Y-51220714D01*
X131310476Y-51220714D01*
X131405714Y-51268333D01*
X131453333Y-51363571D01*
X131453333Y-51887380D01*
X131453333Y-51363571D02*
X131500952Y-51268333D01*
X131596190Y-51220714D01*
X131739047Y-51220714D01*
X131834285Y-51268333D01*
X131881904Y-51363571D01*
X131881904Y-51887380D01*
X132500952Y-51887380D02*
X132405714Y-51839761D01*
X132358095Y-51792142D01*
X132310476Y-51696904D01*
X132310476Y-51411190D01*
X132358095Y-51315952D01*
X132405714Y-51268333D01*
X132500952Y-51220714D01*
X132643809Y-51220714D01*
X132739047Y-51268333D01*
X132786666Y-51315952D01*
X132834285Y-51411190D01*
X132834285Y-51696904D01*
X132786666Y-51792142D01*
X132739047Y-51839761D01*
X132643809Y-51887380D01*
X132500952Y-51887380D01*
X133120000Y-51220714D02*
X133500952Y-51220714D01*
X133262857Y-50887380D02*
X133262857Y-51744523D01*
X133310476Y-51839761D01*
X133405714Y-51887380D01*
X133500952Y-51887380D01*
X133977142Y-51887380D02*
X133881904Y-51839761D01*
X133834285Y-51792142D01*
X133786666Y-51696904D01*
X133786666Y-51411190D01*
X133834285Y-51315952D01*
X133881904Y-51268333D01*
X133977142Y-51220714D01*
X134120000Y-51220714D01*
X134215238Y-51268333D01*
X134262857Y-51315952D01*
X134310476Y-51411190D01*
X134310476Y-51696904D01*
X134262857Y-51792142D01*
X134215238Y-51839761D01*
X134120000Y-51887380D01*
X133977142Y-51887380D01*
X134739047Y-51887380D02*
X134739047Y-51220714D01*
X134739047Y-51411190D02*
X134786666Y-51315952D01*
X134834285Y-51268333D01*
X134929523Y-51220714D01*
X135024761Y-51220714D01*
X136120000Y-51220714D02*
X136120000Y-52220714D01*
X136120000Y-51268333D02*
X136215238Y-51220714D01*
X136405714Y-51220714D01*
X136500952Y-51268333D01*
X136548571Y-51315952D01*
X136596190Y-51411190D01*
X136596190Y-51696904D01*
X136548571Y-51792142D01*
X136500952Y-51839761D01*
X136405714Y-51887380D01*
X136215238Y-51887380D01*
X136120000Y-51839761D01*
X136929523Y-51220714D02*
X137120000Y-51887380D01*
X137310476Y-51411190D01*
X137500952Y-51887380D01*
X137691428Y-51220714D01*
X138072380Y-51887380D02*
X138072380Y-51220714D01*
X138072380Y-51411190D02*
X138120000Y-51315952D01*
X138167619Y-51268333D01*
X138262857Y-51220714D01*
X138358095Y-51220714D01*
X112228571Y-51839761D02*
X112133333Y-51887380D01*
X111942857Y-51887380D01*
X111847619Y-51839761D01*
X111800000Y-51792142D01*
X111752380Y-51696904D01*
X111752380Y-51411190D01*
X111800000Y-51315952D01*
X111847619Y-51268333D01*
X111942857Y-51220714D01*
X112133333Y-51220714D01*
X112228571Y-51268333D01*
X113085714Y-51887380D02*
X113085714Y-51363571D01*
X113038095Y-51268333D01*
X112942857Y-51220714D01*
X112752380Y-51220714D01*
X112657142Y-51268333D01*
X113085714Y-51839761D02*
X112990476Y-51887380D01*
X112752380Y-51887380D01*
X112657142Y-51839761D01*
X112609523Y-51744523D01*
X112609523Y-51649285D01*
X112657142Y-51554047D01*
X112752380Y-51506428D01*
X112990476Y-51506428D01*
X113085714Y-51458809D01*
X113561904Y-51887380D02*
X113561904Y-51220714D01*
X113561904Y-51315952D02*
X113609523Y-51268333D01*
X113704761Y-51220714D01*
X113847619Y-51220714D01*
X113942857Y-51268333D01*
X113990476Y-51363571D01*
X113990476Y-51887380D01*
X113990476Y-51363571D02*
X114038095Y-51268333D01*
X114133333Y-51220714D01*
X114276190Y-51220714D01*
X114371428Y-51268333D01*
X114419047Y-51363571D01*
X114419047Y-51887380D01*
X115276190Y-51839761D02*
X115180952Y-51887380D01*
X114990476Y-51887380D01*
X114895238Y-51839761D01*
X114847619Y-51744523D01*
X114847619Y-51363571D01*
X114895238Y-51268333D01*
X114990476Y-51220714D01*
X115180952Y-51220714D01*
X115276190Y-51268333D01*
X115323809Y-51363571D01*
X115323809Y-51458809D01*
X114847619Y-51554047D01*
X115752380Y-51887380D02*
X115752380Y-51220714D01*
X115752380Y-51411190D02*
X115800000Y-51315952D01*
X115847619Y-51268333D01*
X115942857Y-51220714D01*
X116038095Y-51220714D01*
X116800000Y-51887380D02*
X116800000Y-51363571D01*
X116752380Y-51268333D01*
X116657142Y-51220714D01*
X116466666Y-51220714D01*
X116371428Y-51268333D01*
X116800000Y-51839761D02*
X116704761Y-51887380D01*
X116466666Y-51887380D01*
X116371428Y-51839761D01*
X116323809Y-51744523D01*
X116323809Y-51649285D01*
X116371428Y-51554047D01*
X116466666Y-51506428D01*
X116704761Y-51506428D01*
X116800000Y-51458809D01*
X103757666Y-106640380D02*
X103757666Y-107354666D01*
X103710047Y-107497523D01*
X103614809Y-107592761D01*
X103471952Y-107640380D01*
X103376714Y-107640380D01*
X104138619Y-106640380D02*
X104805285Y-106640380D01*
X104376714Y-107640380D01*
X107219761Y-102782619D02*
X107124523Y-102735000D01*
X107029285Y-102639761D01*
X106886428Y-102496904D01*
X106791190Y-102449285D01*
X106695952Y-102449285D01*
X106743571Y-102687380D02*
X106648333Y-102639761D01*
X106553095Y-102544523D01*
X106505476Y-102354047D01*
X106505476Y-102020714D01*
X106553095Y-101830238D01*
X106648333Y-101735000D01*
X106743571Y-101687380D01*
X106934047Y-101687380D01*
X107029285Y-101735000D01*
X107124523Y-101830238D01*
X107172142Y-102020714D01*
X107172142Y-102354047D01*
X107124523Y-102544523D01*
X107029285Y-102639761D01*
X106934047Y-102687380D01*
X106743571Y-102687380D01*
X107505476Y-101687380D02*
X108124523Y-101687380D01*
X107791190Y-102068333D01*
X107934047Y-102068333D01*
X108029285Y-102115952D01*
X108076904Y-102163571D01*
X108124523Y-102258809D01*
X108124523Y-102496904D01*
X108076904Y-102592142D01*
X108029285Y-102639761D01*
X107934047Y-102687380D01*
X107648333Y-102687380D01*
X107553095Y-102639761D01*
X107505476Y-102592142D01*
X106584761Y-56427619D02*
X106489523Y-56380000D01*
X106394285Y-56284761D01*
X106251428Y-56141904D01*
X106156190Y-56094285D01*
X106060952Y-56094285D01*
X106108571Y-56332380D02*
X106013333Y-56284761D01*
X105918095Y-56189523D01*
X105870476Y-55999047D01*
X105870476Y-55665714D01*
X105918095Y-55475238D01*
X106013333Y-55380000D01*
X106108571Y-55332380D01*
X106299047Y-55332380D01*
X106394285Y-55380000D01*
X106489523Y-55475238D01*
X106537142Y-55665714D01*
X106537142Y-55999047D01*
X106489523Y-56189523D01*
X106394285Y-56284761D01*
X106299047Y-56332380D01*
X106108571Y-56332380D01*
X107489523Y-56332380D02*
X106918095Y-56332380D01*
X107203809Y-56332380D02*
X107203809Y-55332380D01*
X107108571Y-55475238D01*
X107013333Y-55570476D01*
X106918095Y-55618095D01*
X110156666Y-54062380D02*
X110156666Y-54776666D01*
X110109047Y-54919523D01*
X110013809Y-55014761D01*
X109870952Y-55062380D01*
X109775714Y-55062380D01*
X111156666Y-55062380D02*
X110585238Y-55062380D01*
X110870952Y-55062380D02*
X110870952Y-54062380D01*
X110775714Y-54205238D01*
X110680476Y-54300476D01*
X110585238Y-54348095D01*
X102078761Y-102689619D02*
X101983523Y-102642000D01*
X101888285Y-102546761D01*
X101745428Y-102403904D01*
X101650190Y-102356285D01*
X101554952Y-102356285D01*
X101602571Y-102594380D02*
X101507333Y-102546761D01*
X101412095Y-102451523D01*
X101364476Y-102261047D01*
X101364476Y-101927714D01*
X101412095Y-101737238D01*
X101507333Y-101642000D01*
X101602571Y-101594380D01*
X101793047Y-101594380D01*
X101888285Y-101642000D01*
X101983523Y-101737238D01*
X102031142Y-101927714D01*
X102031142Y-102261047D01*
X101983523Y-102451523D01*
X101888285Y-102546761D01*
X101793047Y-102594380D01*
X101602571Y-102594380D01*
X102888285Y-101927714D02*
X102888285Y-102594380D01*
X102650190Y-101546761D02*
X102412095Y-102261047D01*
X103031142Y-102261047D01*
X146851619Y-60039238D02*
X146804000Y-60134476D01*
X146708761Y-60229714D01*
X146565904Y-60372571D01*
X146518285Y-60467809D01*
X146518285Y-60563047D01*
X146756380Y-60515428D02*
X146708761Y-60610666D01*
X146613523Y-60705904D01*
X146423047Y-60753523D01*
X146089714Y-60753523D01*
X145899238Y-60705904D01*
X145804000Y-60610666D01*
X145756380Y-60515428D01*
X145756380Y-60324952D01*
X145804000Y-60229714D01*
X145899238Y-60134476D01*
X146089714Y-60086857D01*
X146423047Y-60086857D01*
X146613523Y-60134476D01*
X146708761Y-60229714D01*
X146756380Y-60324952D01*
X146756380Y-60515428D01*
X145756380Y-59229714D02*
X145756380Y-59420190D01*
X145804000Y-59515428D01*
X145851619Y-59563047D01*
X145994476Y-59658285D01*
X146184952Y-59705904D01*
X146565904Y-59705904D01*
X146661142Y-59658285D01*
X146708761Y-59610666D01*
X146756380Y-59515428D01*
X146756380Y-59324952D01*
X146708761Y-59229714D01*
X146661142Y-59182095D01*
X146565904Y-59134476D01*
X146327809Y-59134476D01*
X146232571Y-59182095D01*
X146184952Y-59229714D01*
X146137333Y-59324952D01*
X146137333Y-59515428D01*
X146184952Y-59610666D01*
X146232571Y-59658285D01*
X146327809Y-59705904D01*
X110156666Y-48347380D02*
X110156666Y-49061666D01*
X110109047Y-49204523D01*
X110013809Y-49299761D01*
X109870952Y-49347380D01*
X109775714Y-49347380D01*
X110537619Y-48347380D02*
X111156666Y-48347380D01*
X110823333Y-48728333D01*
X110966190Y-48728333D01*
X111061428Y-48775952D01*
X111109047Y-48823571D01*
X111156666Y-48918809D01*
X111156666Y-49156904D01*
X111109047Y-49252142D01*
X111061428Y-49299761D01*
X110966190Y-49347380D01*
X110680476Y-49347380D01*
X110585238Y-49299761D01*
X110537619Y-49252142D01*
X141041333Y-77286380D02*
X140708000Y-76810190D01*
X140469904Y-77286380D02*
X140469904Y-76286380D01*
X140850857Y-76286380D01*
X140946095Y-76334000D01*
X140993714Y-76381619D01*
X141041333Y-76476857D01*
X141041333Y-76619714D01*
X140993714Y-76714952D01*
X140946095Y-76762571D01*
X140850857Y-76810190D01*
X140469904Y-76810190D01*
X141946095Y-76286380D02*
X141469904Y-76286380D01*
X141422285Y-76762571D01*
X141469904Y-76714952D01*
X141565142Y-76667333D01*
X141803238Y-76667333D01*
X141898476Y-76714952D01*
X141946095Y-76762571D01*
X141993714Y-76857809D01*
X141993714Y-77095904D01*
X141946095Y-77191142D01*
X141898476Y-77238761D01*
X141803238Y-77286380D01*
X141565142Y-77286380D01*
X141469904Y-77238761D01*
X141422285Y-77191142D01*
X149764761Y-104052619D02*
X149669523Y-104005000D01*
X149574285Y-103909761D01*
X149431428Y-103766904D01*
X149336190Y-103719285D01*
X149240952Y-103719285D01*
X149288571Y-103957380D02*
X149193333Y-103909761D01*
X149098095Y-103814523D01*
X149050476Y-103624047D01*
X149050476Y-103290714D01*
X149098095Y-103100238D01*
X149193333Y-103005000D01*
X149288571Y-102957380D01*
X149479047Y-102957380D01*
X149574285Y-103005000D01*
X149669523Y-103100238D01*
X149717142Y-103290714D01*
X149717142Y-103624047D01*
X149669523Y-103814523D01*
X149574285Y-103909761D01*
X149479047Y-103957380D01*
X149288571Y-103957380D01*
X150050476Y-102957380D02*
X150717142Y-102957380D01*
X150288571Y-103957380D01*
X149835380Y-68569904D02*
X150644904Y-68569904D01*
X150740142Y-68522285D01*
X150787761Y-68474666D01*
X150835380Y-68379428D01*
X150835380Y-68188952D01*
X150787761Y-68093714D01*
X150740142Y-68046095D01*
X150644904Y-67998476D01*
X149835380Y-67998476D01*
X149835380Y-67617523D02*
X149835380Y-66998476D01*
X150216333Y-67331809D01*
X150216333Y-67188952D01*
X150263952Y-67093714D01*
X150311571Y-67046095D01*
X150406809Y-66998476D01*
X150644904Y-66998476D01*
X150740142Y-67046095D01*
X150787761Y-67093714D01*
X150835380Y-67188952D01*
X150835380Y-67474666D01*
X150787761Y-67569904D01*
X150740142Y-67617523D01*
X142779761Y-104306619D02*
X142684523Y-104259000D01*
X142589285Y-104163761D01*
X142446428Y-104020904D01*
X142351190Y-103973285D01*
X142255952Y-103973285D01*
X142303571Y-104211380D02*
X142208333Y-104163761D01*
X142113095Y-104068523D01*
X142065476Y-103878047D01*
X142065476Y-103544714D01*
X142113095Y-103354238D01*
X142208333Y-103259000D01*
X142303571Y-103211380D01*
X142494047Y-103211380D01*
X142589285Y-103259000D01*
X142684523Y-103354238D01*
X142732142Y-103544714D01*
X142732142Y-103878047D01*
X142684523Y-104068523D01*
X142589285Y-104163761D01*
X142494047Y-104211380D01*
X142303571Y-104211380D01*
X143303571Y-103639952D02*
X143208333Y-103592333D01*
X143160714Y-103544714D01*
X143113095Y-103449476D01*
X143113095Y-103401857D01*
X143160714Y-103306619D01*
X143208333Y-103259000D01*
X143303571Y-103211380D01*
X143494047Y-103211380D01*
X143589285Y-103259000D01*
X143636904Y-103306619D01*
X143684523Y-103401857D01*
X143684523Y-103449476D01*
X143636904Y-103544714D01*
X143589285Y-103592333D01*
X143494047Y-103639952D01*
X143303571Y-103639952D01*
X143208333Y-103687571D01*
X143160714Y-103735190D01*
X143113095Y-103830428D01*
X143113095Y-104020904D01*
X143160714Y-104116142D01*
X143208333Y-104163761D01*
X143303571Y-104211380D01*
X143494047Y-104211380D01*
X143589285Y-104163761D01*
X143636904Y-104116142D01*
X143684523Y-104020904D01*
X143684523Y-103830428D01*
X143636904Y-103735190D01*
X143589285Y-103687571D01*
X143494047Y-103639952D01*
X107513333Y-94940380D02*
X107180000Y-94464190D01*
X106941904Y-94940380D02*
X106941904Y-93940380D01*
X107322857Y-93940380D01*
X107418095Y-93988000D01*
X107465714Y-94035619D01*
X107513333Y-94130857D01*
X107513333Y-94273714D01*
X107465714Y-94368952D01*
X107418095Y-94416571D01*
X107322857Y-94464190D01*
X106941904Y-94464190D01*
X107846666Y-93940380D02*
X108465714Y-93940380D01*
X108132380Y-94321333D01*
X108275238Y-94321333D01*
X108370476Y-94368952D01*
X108418095Y-94416571D01*
X108465714Y-94511809D01*
X108465714Y-94749904D01*
X108418095Y-94845142D01*
X108370476Y-94892761D01*
X108275238Y-94940380D01*
X107989523Y-94940380D01*
X107894285Y-94892761D01*
X107846666Y-94845142D01*
X138096666Y-53427380D02*
X138096666Y-54141666D01*
X138049047Y-54284523D01*
X137953809Y-54379761D01*
X137810952Y-54427380D01*
X137715714Y-54427380D01*
X138525238Y-53522619D02*
X138572857Y-53475000D01*
X138668095Y-53427380D01*
X138906190Y-53427380D01*
X139001428Y-53475000D01*
X139049047Y-53522619D01*
X139096666Y-53617857D01*
X139096666Y-53713095D01*
X139049047Y-53855952D01*
X138477619Y-54427380D01*
X139096666Y-54427380D01*
X141042380Y-80430666D02*
X140566190Y-80764000D01*
X141042380Y-81002095D02*
X140042380Y-81002095D01*
X140042380Y-80621142D01*
X140090000Y-80525904D01*
X140137619Y-80478285D01*
X140232857Y-80430666D01*
X140375714Y-80430666D01*
X140470952Y-80478285D01*
X140518571Y-80525904D01*
X140566190Y-80621142D01*
X140566190Y-81002095D01*
X140470952Y-79859238D02*
X140423333Y-79954476D01*
X140375714Y-80002095D01*
X140280476Y-80049714D01*
X140232857Y-80049714D01*
X140137619Y-80002095D01*
X140090000Y-79954476D01*
X140042380Y-79859238D01*
X140042380Y-79668761D01*
X140090000Y-79573523D01*
X140137619Y-79525904D01*
X140232857Y-79478285D01*
X140280476Y-79478285D01*
X140375714Y-79525904D01*
X140423333Y-79573523D01*
X140470952Y-79668761D01*
X140470952Y-79859238D01*
X140518571Y-79954476D01*
X140566190Y-80002095D01*
X140661428Y-80049714D01*
X140851904Y-80049714D01*
X140947142Y-80002095D01*
X140994761Y-79954476D01*
X141042380Y-79859238D01*
X141042380Y-79668761D01*
X140994761Y-79573523D01*
X140947142Y-79525904D01*
X140851904Y-79478285D01*
X140661428Y-79478285D01*
X140566190Y-79525904D01*
X140518571Y-79573523D01*
X140470952Y-79668761D01*
X99980761Y-56427619D02*
X99885523Y-56380000D01*
X99790285Y-56284761D01*
X99647428Y-56141904D01*
X99552190Y-56094285D01*
X99456952Y-56094285D01*
X99504571Y-56332380D02*
X99409333Y-56284761D01*
X99314095Y-56189523D01*
X99266476Y-55999047D01*
X99266476Y-55665714D01*
X99314095Y-55475238D01*
X99409333Y-55380000D01*
X99504571Y-55332380D01*
X99695047Y-55332380D01*
X99790285Y-55380000D01*
X99885523Y-55475238D01*
X99933142Y-55665714D01*
X99933142Y-55999047D01*
X99885523Y-56189523D01*
X99790285Y-56284761D01*
X99695047Y-56332380D01*
X99504571Y-56332380D01*
X100314095Y-55427619D02*
X100361714Y-55380000D01*
X100456952Y-55332380D01*
X100695047Y-55332380D01*
X100790285Y-55380000D01*
X100837904Y-55427619D01*
X100885523Y-55522857D01*
X100885523Y-55618095D01*
X100837904Y-55760952D01*
X100266476Y-56332380D01*
X100885523Y-56332380D01*
X105100380Y-74842666D02*
X104624190Y-75176000D01*
X105100380Y-75414095D02*
X104100380Y-75414095D01*
X104100380Y-75033142D01*
X104148000Y-74937904D01*
X104195619Y-74890285D01*
X104290857Y-74842666D01*
X104433714Y-74842666D01*
X104528952Y-74890285D01*
X104576571Y-74937904D01*
X104624190Y-75033142D01*
X104624190Y-75414095D01*
X105100380Y-73890285D02*
X105100380Y-74461714D01*
X105100380Y-74176000D02*
X104100380Y-74176000D01*
X104243238Y-74271238D01*
X104338476Y-74366476D01*
X104386095Y-74461714D01*
X109307380Y-68833904D02*
X110116904Y-68833904D01*
X110212142Y-68786285D01*
X110259761Y-68738666D01*
X110307380Y-68643428D01*
X110307380Y-68452952D01*
X110259761Y-68357714D01*
X110212142Y-68310095D01*
X110116904Y-68262476D01*
X109307380Y-68262476D01*
X110307380Y-67262476D02*
X110307380Y-67833904D01*
X110307380Y-67548190D02*
X109307380Y-67548190D01*
X109450238Y-67643428D01*
X109545476Y-67738666D01*
X109593095Y-67833904D01*
X146851619Y-55467238D02*
X146804000Y-55562476D01*
X146708761Y-55657714D01*
X146565904Y-55800571D01*
X146518285Y-55895809D01*
X146518285Y-55991047D01*
X146756380Y-55943428D02*
X146708761Y-56038666D01*
X146613523Y-56133904D01*
X146423047Y-56181523D01*
X146089714Y-56181523D01*
X145899238Y-56133904D01*
X145804000Y-56038666D01*
X145756380Y-55943428D01*
X145756380Y-55752952D01*
X145804000Y-55657714D01*
X145899238Y-55562476D01*
X146089714Y-55514857D01*
X146423047Y-55514857D01*
X146613523Y-55562476D01*
X146708761Y-55657714D01*
X146756380Y-55752952D01*
X146756380Y-55943428D01*
X145756380Y-54610095D02*
X145756380Y-55086285D01*
X146232571Y-55133904D01*
X146184952Y-55086285D01*
X146137333Y-54991047D01*
X146137333Y-54752952D01*
X146184952Y-54657714D01*
X146232571Y-54610095D01*
X146327809Y-54562476D01*
X146565904Y-54562476D01*
X146661142Y-54610095D01*
X146708761Y-54657714D01*
X146756380Y-54752952D01*
X146756380Y-54991047D01*
X146708761Y-55086285D01*
X146661142Y-55133904D01*
X151384095Y-86843380D02*
X151384095Y-87652904D01*
X151431714Y-87748142D01*
X151479333Y-87795761D01*
X151574571Y-87843380D01*
X151765047Y-87843380D01*
X151860285Y-87795761D01*
X151907904Y-87748142D01*
X151955523Y-87652904D01*
X151955523Y-86843380D01*
X152860285Y-87176714D02*
X152860285Y-87843380D01*
X152622190Y-86795761D02*
X152384095Y-87510047D01*
X153003142Y-87510047D01*
X143597333Y-51378380D02*
X143264000Y-50902190D01*
X143025904Y-51378380D02*
X143025904Y-50378380D01*
X143406857Y-50378380D01*
X143502095Y-50426000D01*
X143549714Y-50473619D01*
X143597333Y-50568857D01*
X143597333Y-50711714D01*
X143549714Y-50806952D01*
X143502095Y-50854571D01*
X143406857Y-50902190D01*
X143025904Y-50902190D01*
X144454476Y-50378380D02*
X144264000Y-50378380D01*
X144168761Y-50426000D01*
X144121142Y-50473619D01*
X144025904Y-50616476D01*
X143978285Y-50806952D01*
X143978285Y-51187904D01*
X144025904Y-51283142D01*
X144073523Y-51330761D01*
X144168761Y-51378380D01*
X144359238Y-51378380D01*
X144454476Y-51330761D01*
X144502095Y-51283142D01*
X144549714Y-51187904D01*
X144549714Y-50949809D01*
X144502095Y-50854571D01*
X144454476Y-50806952D01*
X144359238Y-50759333D01*
X144168761Y-50759333D01*
X144073523Y-50806952D01*
X144025904Y-50854571D01*
X143978285Y-50949809D01*
X138096666Y-48347380D02*
X138096666Y-49061666D01*
X138049047Y-49204523D01*
X137953809Y-49299761D01*
X137810952Y-49347380D01*
X137715714Y-49347380D01*
X139001428Y-48347380D02*
X138810952Y-48347380D01*
X138715714Y-48395000D01*
X138668095Y-48442619D01*
X138572857Y-48585476D01*
X138525238Y-48775952D01*
X138525238Y-49156904D01*
X138572857Y-49252142D01*
X138620476Y-49299761D01*
X138715714Y-49347380D01*
X138906190Y-49347380D01*
X139001428Y-49299761D01*
X139049047Y-49252142D01*
X139096666Y-49156904D01*
X139096666Y-48918809D01*
X139049047Y-48823571D01*
X139001428Y-48775952D01*
X138906190Y-48728333D01*
X138715714Y-48728333D01*
X138620476Y-48775952D01*
X138572857Y-48823571D01*
X138525238Y-48918809D01*
X101266666Y-80224380D02*
X101266666Y-80938666D01*
X101219047Y-81081523D01*
X101123809Y-81176761D01*
X100980952Y-81224380D01*
X100885714Y-81224380D01*
X102171428Y-80557714D02*
X102171428Y-81224380D01*
X101933333Y-80176761D02*
X101695238Y-80891047D01*
X102314285Y-80891047D01*
X147280380Y-75517333D02*
X147994666Y-75517333D01*
X148137523Y-75564952D01*
X148232761Y-75660190D01*
X148280380Y-75803047D01*
X148280380Y-75898285D01*
X147280380Y-74564952D02*
X147280380Y-75041142D01*
X147756571Y-75088761D01*
X147708952Y-75041142D01*
X147661333Y-74945904D01*
X147661333Y-74707809D01*
X147708952Y-74612571D01*
X147756571Y-74564952D01*
X147851809Y-74517333D01*
X148089904Y-74517333D01*
X148185142Y-74564952D01*
X148232761Y-74612571D01*
X148280380Y-74707809D01*
X148280380Y-74945904D01*
X148232761Y-75041142D01*
X148185142Y-75088761D01*
X108037333Y-62428380D02*
X107704000Y-61952190D01*
X107465904Y-62428380D02*
X107465904Y-61428380D01*
X107846857Y-61428380D01*
X107942095Y-61476000D01*
X107989714Y-61523619D01*
X108037333Y-61618857D01*
X108037333Y-61761714D01*
X107989714Y-61856952D01*
X107942095Y-61904571D01*
X107846857Y-61952190D01*
X107465904Y-61952190D01*
X108418285Y-61523619D02*
X108465904Y-61476000D01*
X108561142Y-61428380D01*
X108799238Y-61428380D01*
X108894476Y-61476000D01*
X108942095Y-61523619D01*
X108989714Y-61618857D01*
X108989714Y-61714095D01*
X108942095Y-61856952D01*
X108370666Y-62428380D01*
X108989714Y-62428380D01*
X145629333Y-93290380D02*
X145296000Y-92814190D01*
X145057904Y-93290380D02*
X145057904Y-92290380D01*
X145438857Y-92290380D01*
X145534095Y-92338000D01*
X145581714Y-92385619D01*
X145629333Y-92480857D01*
X145629333Y-92623714D01*
X145581714Y-92718952D01*
X145534095Y-92766571D01*
X145438857Y-92814190D01*
X145057904Y-92814190D01*
X145962666Y-92290380D02*
X146629333Y-92290380D01*
X146200761Y-93290380D01*
X108672380Y-88137904D02*
X109481904Y-88137904D01*
X109577142Y-88090285D01*
X109624761Y-88042666D01*
X109672380Y-87947428D01*
X109672380Y-87756952D01*
X109624761Y-87661714D01*
X109577142Y-87614095D01*
X109481904Y-87566476D01*
X108672380Y-87566476D01*
X108767619Y-87137904D02*
X108720000Y-87090285D01*
X108672380Y-86995047D01*
X108672380Y-86756952D01*
X108720000Y-86661714D01*
X108767619Y-86614095D01*
X108862857Y-86566476D01*
X108958095Y-86566476D01*
X109100952Y-86614095D01*
X109672380Y-87185523D01*
X109672380Y-86566476D01*
X105482380Y-79414666D02*
X105006190Y-79748000D01*
X105482380Y-79986095D02*
X104482380Y-79986095D01*
X104482380Y-79605142D01*
X104530000Y-79509904D01*
X104577619Y-79462285D01*
X104672857Y-79414666D01*
X104815714Y-79414666D01*
X104910952Y-79462285D01*
X104958571Y-79509904D01*
X105006190Y-79605142D01*
X105006190Y-79986095D01*
X104815714Y-78557523D02*
X105482380Y-78557523D01*
X104434761Y-78795619D02*
X105149047Y-79033714D01*
X105149047Y-78414666D01*
D12*
X107691000Y-105858000D02*
X110291000Y-105858000D01*
X107691000Y-108518000D02*
X110291000Y-108518000D01*
X105091000Y-108518000D02*
X105091000Y-107188000D01*
X106421000Y-108518000D02*
X105091000Y-108518000D01*
X107691000Y-108518000D02*
X107691000Y-105858000D01*
X110291000Y-108518000D02*
X110291000Y-105858000D01*
D13*
X106046000Y-98744000D02*
X106046000Y-98269000D01*
X106346000Y-99919000D02*
X106046000Y-99919000D01*
X109346000Y-98644000D02*
X109071000Y-98269000D01*
X109021000Y-98269000D02*
X109021000Y-97494000D01*
X106046000Y-99919000D02*
X106046000Y-99469000D01*
X109346000Y-98919000D02*
X109346000Y-98644000D01*
X109346000Y-99544000D02*
X109346000Y-99919000D01*
X109071000Y-98269000D02*
X109021000Y-98269000D01*
X106046000Y-98269000D02*
X106396000Y-98269000D01*
X106271000Y-99919000D02*
X106396000Y-99919000D01*
X109346000Y-99919000D02*
X109046000Y-99919000D01*
X107125000Y-60070000D02*
X107125000Y-59770000D01*
X108775000Y-56770000D02*
X108775000Y-57120000D01*
X108125000Y-60070000D02*
X108400000Y-60070000D01*
X107125000Y-57070000D02*
X107125000Y-56770000D01*
X108775000Y-59795000D02*
X108775000Y-59745000D01*
X107125000Y-56770000D02*
X107575000Y-56770000D01*
X108400000Y-60070000D02*
X108775000Y-59795000D01*
X107500000Y-60070000D02*
X107125000Y-60070000D01*
X107125000Y-56995000D02*
X107125000Y-57120000D01*
X108300000Y-56770000D02*
X108775000Y-56770000D01*
X108775000Y-59745000D02*
X109550000Y-59745000D01*
D12*
X113030000Y-53925000D02*
X114360000Y-53925000D01*
X111700000Y-102305000D02*
X114360000Y-102305000D01*
X114360000Y-56525000D02*
X114360000Y-102305000D01*
X114360000Y-53925000D02*
X114360000Y-55255000D01*
X111700000Y-56525000D02*
X111700000Y-102305000D01*
X111700000Y-56525000D02*
X114360000Y-56525000D01*
D13*
X103824000Y-99919000D02*
X103524000Y-99919000D01*
X100824000Y-99919000D02*
X100524000Y-99919000D01*
X100524000Y-98744000D02*
X100524000Y-98269000D01*
X103824000Y-98644000D02*
X103549000Y-98269000D01*
X100524000Y-98269000D02*
X100874000Y-98269000D01*
X100749000Y-99919000D02*
X100874000Y-99919000D01*
X100524000Y-99919000D02*
X100524000Y-99469000D01*
X103549000Y-98269000D02*
X103499000Y-98269000D01*
X103499000Y-98269000D02*
X103499000Y-97494000D01*
X103824000Y-98919000D02*
X103824000Y-98644000D01*
X103824000Y-99544000D02*
X103824000Y-99919000D01*
X145139000Y-59119000D02*
X145089000Y-59119000D01*
X145414000Y-59769000D02*
X145414000Y-59494000D01*
X145089000Y-59119000D02*
X145089000Y-58344000D01*
X142114000Y-59594000D02*
X142114000Y-59119000D01*
X145414000Y-60769000D02*
X145114000Y-60769000D01*
X142339000Y-60769000D02*
X142464000Y-60769000D01*
X142114000Y-59119000D02*
X142464000Y-59119000D01*
X145414000Y-59494000D02*
X145139000Y-59119000D01*
X142414000Y-60769000D02*
X142114000Y-60769000D01*
X142114000Y-60769000D02*
X142114000Y-60319000D01*
X145414000Y-60394000D02*
X145414000Y-60769000D01*
D12*
X116900000Y-47565000D02*
X116900000Y-48895000D01*
X114300000Y-47565000D02*
X111700000Y-47565000D01*
X114300000Y-50225000D02*
X111700000Y-50225000D01*
X115570000Y-47565000D02*
X116900000Y-47565000D01*
X111700000Y-47565000D02*
X111700000Y-50225000D01*
X114300000Y-47565000D02*
X114300000Y-50225000D01*
X141435064Y-75919000D02*
X140980936Y-75919000D01*
X141435064Y-74449000D02*
X140980936Y-74449000D01*
D13*
X150210000Y-98045000D02*
X150685000Y-98045000D01*
X149035000Y-98345000D02*
X149035000Y-98045000D01*
X149035000Y-101345000D02*
X149035000Y-101045000D01*
X149035000Y-98270000D02*
X149035000Y-98395000D01*
X150685000Y-98045000D02*
X150685000Y-98395000D01*
X150685000Y-101020000D02*
X151460000Y-101020000D01*
X150685000Y-101070000D02*
X150685000Y-101020000D01*
X150035000Y-101345000D02*
X150310000Y-101345000D01*
X149410000Y-101345000D02*
X149035000Y-101345000D01*
X149035000Y-98045000D02*
X149485000Y-98045000D01*
X150310000Y-101345000D02*
X150685000Y-101070000D01*
D12*
X140925000Y-69062000D02*
X140925000Y-70712000D01*
X148665000Y-65412000D02*
X140925000Y-65412000D01*
X140925000Y-70712000D02*
X148665000Y-70712000D01*
X148665000Y-70712000D02*
X148665000Y-65412000D01*
X140925000Y-65412000D02*
X140925000Y-67062000D01*
X140925000Y-69062000D02*
G75*
G03*
X140925000Y-67062000I0J1000000D01*
G01*
D13*
X143325000Y-98045000D02*
X143700000Y-98045000D01*
X142700000Y-98045000D02*
X142425000Y-98045000D01*
X143700000Y-101345000D02*
X143250000Y-101345000D01*
X142050000Y-98320000D02*
X142050000Y-98370000D01*
X142050000Y-101345000D02*
X142050000Y-100995000D01*
X143700000Y-101045000D02*
X143700000Y-101345000D01*
X143700000Y-98045000D02*
X143700000Y-98345000D01*
X143700000Y-101120000D02*
X143700000Y-100995000D01*
X142525000Y-101345000D02*
X142050000Y-101345000D01*
X142050000Y-98370000D02*
X141275000Y-98370000D01*
X142425000Y-98045000D02*
X142050000Y-98320000D01*
D12*
X104420936Y-93753000D02*
X104875064Y-93753000D01*
X104420936Y-95223000D02*
X104875064Y-95223000D01*
X135830000Y-53915000D02*
X137160000Y-53915000D01*
X134500000Y-56515000D02*
X134500000Y-102295000D01*
X134500000Y-102295000D02*
X137160000Y-102295000D01*
X137160000Y-56515000D02*
X137160000Y-102295000D01*
X137160000Y-53915000D02*
X137160000Y-55245000D01*
X134500000Y-56515000D02*
X137160000Y-56515000D01*
X142975000Y-80491064D02*
X142975000Y-80036936D01*
X141505000Y-80491064D02*
X141505000Y-80036936D01*
D13*
X102050000Y-60070000D02*
X102425000Y-59795000D01*
X100775000Y-60070000D02*
X100775000Y-59770000D01*
X101775000Y-60070000D02*
X102050000Y-60070000D01*
X100775000Y-57070000D02*
X100775000Y-56770000D01*
X102425000Y-59745000D02*
X103200000Y-59745000D01*
X102425000Y-56770000D02*
X102425000Y-57120000D01*
X102425000Y-59795000D02*
X102425000Y-59745000D01*
X100775000Y-56770000D02*
X101225000Y-56770000D01*
X101950000Y-56770000D02*
X102425000Y-56770000D01*
X101150000Y-60070000D02*
X100775000Y-60070000D01*
X100775000Y-56995000D02*
X100775000Y-57120000D01*
D12*
X105945000Y-74448936D02*
X105945000Y-74903064D01*
X107415000Y-74448936D02*
X107415000Y-74903064D01*
X105130000Y-71927000D02*
X106780000Y-71927000D01*
X106780000Y-64187000D02*
X101480000Y-64187000D01*
X101480000Y-64187000D02*
X101480000Y-71927000D01*
X106780000Y-71927000D02*
X106780000Y-64187000D01*
X101480000Y-71927000D02*
X103130000Y-71927000D01*
X105130000Y-71927000D02*
G75*
G03*
X103130000Y-71927000I-1000000J0D01*
G01*
D13*
X145089000Y-54547000D02*
X145089000Y-53772000D01*
X142114000Y-55022000D02*
X142114000Y-54547000D01*
X145414000Y-55197000D02*
X145414000Y-54922000D01*
X142114000Y-56197000D02*
X142114000Y-55747000D01*
X142414000Y-56197000D02*
X142114000Y-56197000D01*
X142339000Y-56197000D02*
X142464000Y-56197000D01*
X145139000Y-54547000D02*
X145089000Y-54547000D01*
X145414000Y-54922000D02*
X145139000Y-54547000D01*
X142114000Y-54547000D02*
X142464000Y-54547000D01*
X145414000Y-56197000D02*
X145114000Y-56197000D01*
X145414000Y-55822000D02*
X145414000Y-56197000D01*
D12*
X143156000Y-83521000D02*
X143156000Y-91261000D01*
X144806000Y-83521000D02*
X143156000Y-83521000D01*
X143156000Y-91261000D02*
X148456000Y-91261000D01*
X148456000Y-83521000D02*
X146806000Y-83521000D01*
X148456000Y-91261000D02*
X148456000Y-83521000D01*
X144806000Y-83521000D02*
G75*
G03*
X146806000Y-83521000I1000000J0D01*
G01*
X143991064Y-50011000D02*
X143536936Y-50011000D01*
X143991064Y-48541000D02*
X143536936Y-48541000D01*
X134620000Y-47565000D02*
X137220000Y-47565000D01*
X133350000Y-50225000D02*
X132020000Y-50225000D01*
X137220000Y-50225000D02*
X137220000Y-47565000D01*
X134620000Y-50225000D02*
X137220000Y-50225000D01*
X132020000Y-50225000D02*
X132020000Y-48895000D01*
X134620000Y-50225000D02*
X134620000Y-47565000D01*
X100270000Y-76962000D02*
X100270000Y-79562000D01*
X100270000Y-75692000D02*
X100270000Y-74362000D01*
X102930000Y-76962000D02*
X102930000Y-79562000D01*
X100270000Y-76962000D02*
X102930000Y-76962000D01*
X100270000Y-74362000D02*
X101600000Y-74362000D01*
X100270000Y-79562000D02*
X102930000Y-79562000D01*
X146498000Y-81594000D02*
X149158000Y-81594000D01*
X146498000Y-77724000D02*
X146498000Y-76394000D01*
X149158000Y-78994000D02*
X149158000Y-81594000D01*
X146498000Y-76394000D02*
X147828000Y-76394000D01*
X146498000Y-78994000D02*
X149158000Y-78994000D01*
X146498000Y-78994000D02*
X146498000Y-81594000D01*
X104928936Y-61241000D02*
X105383064Y-61241000D01*
X104928936Y-62711000D02*
X105383064Y-62711000D01*
X145568936Y-95223000D02*
X146023064Y-95223000D01*
X145568936Y-93753000D02*
X146023064Y-93753000D01*
X100255000Y-90036000D02*
X107995000Y-90036000D01*
X107995000Y-84736000D02*
X100255000Y-84736000D01*
X107995000Y-86386000D02*
X107995000Y-84736000D01*
X100255000Y-84736000D02*
X100255000Y-90036000D01*
X107995000Y-90036000D02*
X107995000Y-88386000D01*
X107995000Y-86386000D02*
G75*
G03*
X107995000Y-88386000I0J-1000000D01*
G01*
X105945000Y-79475064D02*
X105945000Y-79020936D01*
X107415000Y-79475064D02*
X107415000Y-79020936D01*
%LPC*%
D14*
X106421000Y-107188000D03*
D15*
X108961000Y-107188000D03*
D16*
X108646000Y-98044000D03*
X106746000Y-98044000D03*
X107696000Y-100144000D03*
D17*
X109000000Y-59370000D03*
X109000000Y-57470000D03*
X106900000Y-58420000D03*
D14*
X113030000Y-55255000D03*
D15*
X113030000Y-57795000D03*
X113030000Y-60335000D03*
X113030000Y-62875000D03*
X113030000Y-65415000D03*
X113030000Y-67955000D03*
X113030000Y-70495000D03*
X113030000Y-73035000D03*
X113030000Y-75575000D03*
X113030000Y-78115000D03*
X113030000Y-80655000D03*
X113030000Y-83195000D03*
X113030000Y-85735000D03*
X113030000Y-88275000D03*
X113030000Y-90815000D03*
X113030000Y-93355000D03*
X113030000Y-95895000D03*
X113030000Y-98435000D03*
X113030000Y-100975000D03*
D16*
X103124000Y-98044000D03*
X101224000Y-98044000D03*
X102174000Y-100144000D03*
D18*
X97155000Y-47244000D03*
D16*
X144714000Y-58894000D03*
X142814000Y-58894000D03*
X143764000Y-60994000D03*
D14*
X115570000Y-48895000D03*
D15*
X113030000Y-48895000D03*
D19*
X142208000Y-75184000D03*
X140208000Y-75184000D03*
D17*
X150910000Y-100645000D03*
X150910000Y-98745000D03*
X148810000Y-99695000D03*
D20*
X142255000Y-71872000D03*
D21*
X144795000Y-71872000D03*
X147335000Y-71872000D03*
X147335000Y-64252000D03*
X144795000Y-64252000D03*
X142255000Y-64252000D03*
D22*
X141825000Y-98745000D03*
X141825000Y-100645000D03*
X143925000Y-99695000D03*
D23*
X103648000Y-94488000D03*
X105648000Y-94488000D03*
D14*
X135830000Y-55245000D03*
D15*
X135830000Y-57785000D03*
X135830000Y-60325000D03*
X135830000Y-62865000D03*
X135830000Y-65405000D03*
X135830000Y-67945000D03*
X135830000Y-70485000D03*
X135830000Y-73025000D03*
X135830000Y-75565000D03*
X135830000Y-78105000D03*
X135830000Y-80645000D03*
X135830000Y-83185000D03*
X135830000Y-85725000D03*
X135830000Y-88265000D03*
X135830000Y-90805000D03*
X135830000Y-93345000D03*
X135830000Y-95885000D03*
X135830000Y-98425000D03*
X135830000Y-100965000D03*
D24*
X142240000Y-81264000D03*
X142240000Y-79264000D03*
D17*
X102650000Y-59370000D03*
X102650000Y-57470000D03*
X100550000Y-58420000D03*
D18*
X152400000Y-47244000D03*
D25*
X106680000Y-73676000D03*
X106680000Y-75676000D03*
D20*
X107940000Y-70597000D03*
D21*
X107940000Y-68057000D03*
X107940000Y-65517000D03*
X100320000Y-65517000D03*
X100320000Y-68057000D03*
X100320000Y-70597000D03*
D18*
X97155000Y-107950000D03*
D16*
X144714000Y-54322000D03*
X142814000Y-54322000D03*
X143764000Y-56422000D03*
D20*
X141996000Y-84851000D03*
D21*
X141996000Y-87391000D03*
X141996000Y-89931000D03*
X149616000Y-89931000D03*
X149616000Y-87391000D03*
X149616000Y-84851000D03*
D19*
X144764000Y-49276000D03*
X142764000Y-49276000D03*
D14*
X133350000Y-48895000D03*
D15*
X135890000Y-48895000D03*
D18*
X152400000Y-107950000D03*
D14*
X101600000Y-75692000D03*
D15*
X101600000Y-78232000D03*
D14*
X147828000Y-77724000D03*
D15*
X147828000Y-80264000D03*
D23*
X104156000Y-61976000D03*
X106156000Y-61976000D03*
X144796000Y-94488000D03*
X146796000Y-94488000D03*
D20*
X106665000Y-83576000D03*
D21*
X104125000Y-83576000D03*
X101585000Y-83576000D03*
X101585000Y-91196000D03*
X104125000Y-91196000D03*
X106665000Y-91196000D03*
D24*
X106680000Y-80248000D03*
X106680000Y-78248000D03*
M02*
