G04 #@! TF.GenerationSoftware,KiCad,Pcbnew,(6.0.2)*
G04 #@! TF.CreationDate,2022-12-04T09:30:56-08:00*
G04 #@! TF.ProjectId,robot_pcb,726f626f-745f-4706-9362-2e6b69636164,rev?*
G04 #@! TF.SameCoordinates,Original*
G04 #@! TF.FileFunction,Soldermask,Top*
G04 #@! TF.FilePolarity,Negative*
%FSLAX46Y46*%
G04 Gerber Fmt 4.6, Leading zero omitted, Abs format (unit mm)*
G04 Created by KiCad (PCBNEW (6.0.2)) date 2022-12-04 09:30:56*
%MOMM*%
%LPD*%
G01*
G04 APERTURE LIST*
G04 Aperture macros list*
%AMRoundRect*
0 Rectangle with rounded corners*
0 $1 Rounding radius*
0 $2 $3 $4 $5 $6 $7 $8 $9 X,Y pos of 4 corners*
0 Add a 4 corners polygon primitive as box body*
4,1,4,$2,$3,$4,$5,$6,$7,$8,$9,$2,$3,0*
0 Add four circle primitives for the rounded corners*
1,1,$1+$1,$2,$3*
1,1,$1+$1,$4,$5*
1,1,$1+$1,$6,$7*
1,1,$1+$1,$8,$9*
0 Add four rect primitives between the rounded corners*
20,1,$1+$1,$2,$3,$4,$5,0*
20,1,$1+$1,$4,$5,$6,$7,0*
20,1,$1+$1,$6,$7,$8,$9,0*
20,1,$1+$1,$8,$9,$2,$3,0*%
G04 Aperture macros list end*
%ADD10R,1.700000X1.700000*%
%ADD11O,1.700000X1.700000*%
%ADD12RoundRect,0.070000X-0.300000X0.650000X-0.300000X-0.650000X0.300000X-0.650000X0.300000X0.650000X0*%
%ADD13RoundRect,0.070000X0.650000X0.300000X-0.650000X0.300000X-0.650000X-0.300000X0.650000X-0.300000X0*%
%ADD14C,2.700000*%
%ADD15RoundRect,0.250000X0.350000X0.450000X-0.350000X0.450000X-0.350000X-0.450000X0.350000X-0.450000X0*%
%ADD16R,1.600000X1.600000*%
%ADD17O,1.600000X1.600000*%
%ADD18RoundRect,0.070000X-0.650000X-0.300000X0.650000X-0.300000X0.650000X0.300000X-0.650000X0.300000X0*%
%ADD19RoundRect,0.250000X-0.350000X-0.450000X0.350000X-0.450000X0.350000X0.450000X-0.350000X0.450000X0*%
%ADD20RoundRect,0.250000X0.450000X-0.350000X0.450000X0.350000X-0.450000X0.350000X-0.450000X-0.350000X0*%
%ADD21RoundRect,0.250000X-0.450000X0.350000X-0.450000X-0.350000X0.450000X-0.350000X0.450000X0.350000X0*%
G04 APERTURE END LIST*
D10*
X106421000Y-107188000D03*
D11*
X108961000Y-107188000D03*
D12*
X108646000Y-98044000D03*
X106746000Y-98044000D03*
X107696000Y-100144000D03*
D13*
X109000000Y-59370000D03*
X109000000Y-57470000D03*
X106900000Y-58420000D03*
D10*
X113030000Y-55255000D03*
D11*
X113030000Y-57795000D03*
X113030000Y-60335000D03*
X113030000Y-62875000D03*
X113030000Y-65415000D03*
X113030000Y-67955000D03*
X113030000Y-70495000D03*
X113030000Y-73035000D03*
X113030000Y-75575000D03*
X113030000Y-78115000D03*
X113030000Y-80655000D03*
X113030000Y-83195000D03*
X113030000Y-85735000D03*
X113030000Y-88275000D03*
X113030000Y-90815000D03*
X113030000Y-93355000D03*
X113030000Y-95895000D03*
X113030000Y-98435000D03*
X113030000Y-100975000D03*
D12*
X103124000Y-98044000D03*
X101224000Y-98044000D03*
X102174000Y-100144000D03*
D14*
X97155000Y-47244000D03*
D12*
X144714000Y-58894000D03*
X142814000Y-58894000D03*
X143764000Y-60994000D03*
D10*
X115570000Y-48895000D03*
D11*
X113030000Y-48895000D03*
D15*
X142208000Y-75184000D03*
X140208000Y-75184000D03*
D13*
X150910000Y-100645000D03*
X150910000Y-98745000D03*
X148810000Y-99695000D03*
D16*
X142255000Y-71872000D03*
D17*
X144795000Y-71872000D03*
X147335000Y-71872000D03*
X147335000Y-64252000D03*
X144795000Y-64252000D03*
X142255000Y-64252000D03*
D18*
X141825000Y-98745000D03*
X141825000Y-100645000D03*
X143925000Y-99695000D03*
D19*
X103648000Y-94488000D03*
X105648000Y-94488000D03*
D10*
X135830000Y-55245000D03*
D11*
X135830000Y-57785000D03*
X135830000Y-60325000D03*
X135830000Y-62865000D03*
X135830000Y-65405000D03*
X135830000Y-67945000D03*
X135830000Y-70485000D03*
X135830000Y-73025000D03*
X135830000Y-75565000D03*
X135830000Y-78105000D03*
X135830000Y-80645000D03*
X135830000Y-83185000D03*
X135830000Y-85725000D03*
X135830000Y-88265000D03*
X135830000Y-90805000D03*
X135830000Y-93345000D03*
X135830000Y-95885000D03*
X135830000Y-98425000D03*
X135830000Y-100965000D03*
D20*
X142240000Y-81264000D03*
X142240000Y-79264000D03*
D13*
X102650000Y-59370000D03*
X102650000Y-57470000D03*
X100550000Y-58420000D03*
D14*
X152400000Y-47244000D03*
D21*
X106680000Y-73676000D03*
X106680000Y-75676000D03*
D16*
X107940000Y-70597000D03*
D17*
X107940000Y-68057000D03*
X107940000Y-65517000D03*
X100320000Y-65517000D03*
X100320000Y-68057000D03*
X100320000Y-70597000D03*
D14*
X97155000Y-107950000D03*
D12*
X144714000Y-54322000D03*
X142814000Y-54322000D03*
X143764000Y-56422000D03*
D16*
X141996000Y-84851000D03*
D17*
X141996000Y-87391000D03*
X141996000Y-89931000D03*
X149616000Y-89931000D03*
X149616000Y-87391000D03*
X149616000Y-84851000D03*
D15*
X144764000Y-49276000D03*
X142764000Y-49276000D03*
D10*
X133350000Y-48895000D03*
D11*
X135890000Y-48895000D03*
D14*
X152400000Y-107950000D03*
D10*
X101600000Y-75692000D03*
D11*
X101600000Y-78232000D03*
D10*
X147828000Y-77724000D03*
D11*
X147828000Y-80264000D03*
D19*
X104156000Y-61976000D03*
X106156000Y-61976000D03*
X144796000Y-94488000D03*
X146796000Y-94488000D03*
D16*
X106665000Y-83576000D03*
D17*
X104125000Y-83576000D03*
X101585000Y-83576000D03*
X101585000Y-91196000D03*
X104125000Y-91196000D03*
X106665000Y-91196000D03*
D20*
X106680000Y-80248000D03*
X106680000Y-78248000D03*
M02*
