G04 #@! TF.GenerationSoftware,KiCad,Pcbnew,(6.0.2)*
G04 #@! TF.CreationDate,2022-12-04T09:30:56-08:00*
G04 #@! TF.ProjectId,robot_pcb,726f626f-745f-4706-9362-2e6b69636164,rev?*
G04 #@! TF.SameCoordinates,Original*
G04 #@! TF.FileFunction,Legend,Bot*
G04 #@! TF.FilePolarity,Positive*
%FSLAX46Y46*%
G04 Gerber Fmt 4.6, Leading zero omitted, Abs format (unit mm)*
G04 Created by KiCad (PCBNEW (6.0.2)) date 2022-12-04 09:30:56*
%MOMM*%
%LPD*%
G01*
G04 APERTURE LIST*
%ADD10R,1.700000X1.700000*%
%ADD11O,1.700000X1.700000*%
%ADD12C,2.700000*%
%ADD13R,1.600000X1.600000*%
%ADD14O,1.600000X1.600000*%
G04 APERTURE END LIST*
%LPC*%
D10*
X106421000Y-107188000D03*
D11*
X108961000Y-107188000D03*
D10*
X113030000Y-55255000D03*
D11*
X113030000Y-57795000D03*
X113030000Y-60335000D03*
X113030000Y-62875000D03*
X113030000Y-65415000D03*
X113030000Y-67955000D03*
X113030000Y-70495000D03*
X113030000Y-73035000D03*
X113030000Y-75575000D03*
X113030000Y-78115000D03*
X113030000Y-80655000D03*
X113030000Y-83195000D03*
X113030000Y-85735000D03*
X113030000Y-88275000D03*
X113030000Y-90815000D03*
X113030000Y-93355000D03*
X113030000Y-95895000D03*
X113030000Y-98435000D03*
X113030000Y-100975000D03*
D12*
X97155000Y-47244000D03*
D10*
X115570000Y-48895000D03*
D11*
X113030000Y-48895000D03*
D13*
X142255000Y-71872000D03*
D14*
X144795000Y-71872000D03*
X147335000Y-71872000D03*
X147335000Y-64252000D03*
X144795000Y-64252000D03*
X142255000Y-64252000D03*
D10*
X135830000Y-55245000D03*
D11*
X135830000Y-57785000D03*
X135830000Y-60325000D03*
X135830000Y-62865000D03*
X135830000Y-65405000D03*
X135830000Y-67945000D03*
X135830000Y-70485000D03*
X135830000Y-73025000D03*
X135830000Y-75565000D03*
X135830000Y-78105000D03*
X135830000Y-80645000D03*
X135830000Y-83185000D03*
X135830000Y-85725000D03*
X135830000Y-88265000D03*
X135830000Y-90805000D03*
X135830000Y-93345000D03*
X135830000Y-95885000D03*
X135830000Y-98425000D03*
X135830000Y-100965000D03*
D12*
X152400000Y-47244000D03*
D13*
X107940000Y-70597000D03*
D14*
X107940000Y-68057000D03*
X107940000Y-65517000D03*
X100320000Y-65517000D03*
X100320000Y-68057000D03*
X100320000Y-70597000D03*
D12*
X97155000Y-107950000D03*
D13*
X141996000Y-84851000D03*
D14*
X141996000Y-87391000D03*
X141996000Y-89931000D03*
X149616000Y-89931000D03*
X149616000Y-87391000D03*
X149616000Y-84851000D03*
D10*
X133350000Y-48895000D03*
D11*
X135890000Y-48895000D03*
D12*
X152400000Y-107950000D03*
D10*
X101600000Y-75692000D03*
D11*
X101600000Y-78232000D03*
D10*
X147828000Y-77724000D03*
D11*
X147828000Y-80264000D03*
D13*
X106665000Y-83576000D03*
D14*
X104125000Y-83576000D03*
X101585000Y-83576000D03*
X101585000Y-91196000D03*
X104125000Y-91196000D03*
X106665000Y-91196000D03*
M02*
