M48
; DRILL file {KiCad (6.0.2)} date Sun Dec  4 09:31:17 2022
; FORMAT={-:-/ absolute / metric / decimal}
; #@! TF.CreationDate,2022-12-04T09:31:17-08:00
; #@! TF.GenerationSoftware,Kicad,Pcbnew,(6.0.2)
; #@! TF.FileFunction,Plated,1,2,PTH
FMAT,2
METRIC
; #@! TA.AperFunction,Plated,PTH,ViaDrill
T1C0.400
; #@! TA.AperFunction,Plated,PTH,ComponentDrill
T2C0.800
; #@! TA.AperFunction,Plated,PTH,ComponentDrill
T3C1.000
%
G90
G05
T1
X98.552Y-58.42
X100.584Y-93.472
X103.124Y-54.864
X104.14Y-96.52
X104.648Y-58.42
X108.204Y-96.52
X140.716Y-58.928
X146.05Y-97.155
X146.05Y-102.235
X146.289Y-89.931
T2
X100.32Y-65.517
X100.32Y-68.057
X100.32Y-70.597
X101.585Y-83.576
X101.585Y-91.196
X104.125Y-83.576
X104.125Y-91.196
X106.665Y-83.576
X106.665Y-91.196
X107.94Y-65.517
X107.94Y-68.057
X107.94Y-70.597
X141.996Y-84.851
X141.996Y-87.391
X141.996Y-89.931
X142.255Y-64.252
X142.255Y-71.872
X144.795Y-64.252
X144.795Y-71.872
X147.335Y-64.252
X147.335Y-71.872
X149.616Y-84.851
X149.616Y-87.391
X149.616Y-89.931
T3
X101.6Y-75.692
X101.6Y-78.232
X106.421Y-107.188
X108.961Y-107.188
X113.03Y-48.895
X113.03Y-55.255
X113.03Y-57.795
X113.03Y-60.335
X113.03Y-62.875
X113.03Y-65.415
X113.03Y-67.955
X113.03Y-70.495
X113.03Y-73.035
X113.03Y-75.575
X113.03Y-78.115
X113.03Y-80.655
X113.03Y-83.195
X113.03Y-85.735
X113.03Y-88.275
X113.03Y-90.815
X113.03Y-93.355
X113.03Y-95.895
X113.03Y-98.435
X113.03Y-100.975
X115.57Y-48.895
X133.35Y-48.895
X135.83Y-55.245
X135.83Y-57.785
X135.83Y-60.325
X135.83Y-62.865
X135.83Y-65.405
X135.83Y-67.945
X135.83Y-70.485
X135.83Y-73.025
X135.83Y-75.565
X135.83Y-78.105
X135.83Y-80.645
X135.83Y-83.185
X135.83Y-85.725
X135.83Y-88.265
X135.83Y-90.805
X135.83Y-93.345
X135.83Y-95.885
X135.83Y-98.425
X135.83Y-100.965
X135.89Y-48.895
X147.828Y-77.724
X147.828Y-80.264
T0
M30
