G04 #@! TF.GenerationSoftware,KiCad,Pcbnew,(6.0.2)*
G04 #@! TF.CreationDate,2022-11-25T11:25:02-08:00*
G04 #@! TF.ProjectId,robot_pcb,726f626f-745f-4706-9362-2e6b69636164,rev?*
G04 #@! TF.SameCoordinates,Original*
G04 #@! TF.FileFunction,Legend,Top*
G04 #@! TF.FilePolarity,Positive*
%FSLAX46Y46*%
G04 Gerber Fmt 4.6, Leading zero omitted, Abs format (unit mm)*
G04 Created by KiCad (PCBNEW (6.0.2)) date 2022-11-25 11:25:02*
%MOMM*%
%LPD*%
G01*
G04 APERTURE LIST*
G04 Aperture macros list*
%AMRoundRect*
0 Rectangle with rounded corners*
0 $1 Rounding radius*
0 $2 $3 $4 $5 $6 $7 $8 $9 X,Y pos of 4 corners*
0 Add a 4 corners polygon primitive as box body*
4,1,4,$2,$3,$4,$5,$6,$7,$8,$9,$2,$3,0*
0 Add four circle primitives for the rounded corners*
1,1,$1+$1,$2,$3*
1,1,$1+$1,$4,$5*
1,1,$1+$1,$6,$7*
1,1,$1+$1,$8,$9*
0 Add four rect primitives between the rounded corners*
20,1,$1+$1,$2,$3,$4,$5,0*
20,1,$1+$1,$4,$5,$6,$7,0*
20,1,$1+$1,$6,$7,$8,$9,0*
20,1,$1+$1,$8,$9,$2,$3,0*%
G04 Aperture macros list end*
%ADD10C,0.150000*%
%ADD11C,0.450000*%
%ADD12C,0.120000*%
%ADD13C,0.127000*%
%ADD14C,0.200000*%
%ADD15R,1.700000X1.700000*%
%ADD16O,1.700000X1.700000*%
%ADD17RoundRect,0.041300X0.748700X0.253700X-0.748700X0.253700X-0.748700X-0.253700X0.748700X-0.253700X0*%
%ADD18C,2.700000*%
%ADD19RoundRect,0.100000X0.217500X0.100000X-0.217500X0.100000X-0.217500X-0.100000X0.217500X-0.100000X0*%
%ADD20R,1.600000X1.600000*%
%ADD21O,1.600000X1.600000*%
%ADD22RoundRect,0.100000X-0.217500X-0.100000X0.217500X-0.100000X0.217500X0.100000X-0.217500X0.100000X0*%
G04 APERTURE END LIST*
D10*
X95702380Y-93590714D02*
X95035714Y-93590714D01*
X95130952Y-93590714D02*
X95083333Y-93543095D01*
X95035714Y-93447857D01*
X95035714Y-93305000D01*
X95083333Y-93209761D01*
X95178571Y-93162142D01*
X95702380Y-93162142D01*
X95178571Y-93162142D02*
X95083333Y-93114523D01*
X95035714Y-93019285D01*
X95035714Y-92876428D01*
X95083333Y-92781190D01*
X95178571Y-92733571D01*
X95702380Y-92733571D01*
X95702380Y-92114523D02*
X95654761Y-92209761D01*
X95607142Y-92257380D01*
X95511904Y-92305000D01*
X95226190Y-92305000D01*
X95130952Y-92257380D01*
X95083333Y-92209761D01*
X95035714Y-92114523D01*
X95035714Y-91971666D01*
X95083333Y-91876428D01*
X95130952Y-91828809D01*
X95226190Y-91781190D01*
X95511904Y-91781190D01*
X95607142Y-91828809D01*
X95654761Y-91876428D01*
X95702380Y-91971666D01*
X95702380Y-92114523D01*
X95035714Y-91495476D02*
X95035714Y-91114523D01*
X94702380Y-91352619D02*
X95559523Y-91352619D01*
X95654761Y-91305000D01*
X95702380Y-91209761D01*
X95702380Y-91114523D01*
X95702380Y-90638333D02*
X95654761Y-90733571D01*
X95607142Y-90781190D01*
X95511904Y-90828809D01*
X95226190Y-90828809D01*
X95130952Y-90781190D01*
X95083333Y-90733571D01*
X95035714Y-90638333D01*
X95035714Y-90495476D01*
X95083333Y-90400238D01*
X95130952Y-90352619D01*
X95226190Y-90305000D01*
X95511904Y-90305000D01*
X95607142Y-90352619D01*
X95654761Y-90400238D01*
X95702380Y-90495476D01*
X95702380Y-90638333D01*
X95702380Y-89876428D02*
X95035714Y-89876428D01*
X95226190Y-89876428D02*
X95130952Y-89828809D01*
X95083333Y-89781190D01*
X95035714Y-89685952D01*
X95035714Y-89590714D01*
X95702380Y-87971666D02*
X95702380Y-88543095D01*
X95702380Y-88257380D02*
X94702380Y-88257380D01*
X94845238Y-88352619D01*
X94940476Y-88447857D01*
X94988095Y-88543095D01*
X151582380Y-92955714D02*
X150915714Y-92955714D01*
X151010952Y-92955714D02*
X150963333Y-92908095D01*
X150915714Y-92812857D01*
X150915714Y-92670000D01*
X150963333Y-92574761D01*
X151058571Y-92527142D01*
X151582380Y-92527142D01*
X151058571Y-92527142D02*
X150963333Y-92479523D01*
X150915714Y-92384285D01*
X150915714Y-92241428D01*
X150963333Y-92146190D01*
X151058571Y-92098571D01*
X151582380Y-92098571D01*
X151582380Y-91479523D02*
X151534761Y-91574761D01*
X151487142Y-91622380D01*
X151391904Y-91670000D01*
X151106190Y-91670000D01*
X151010952Y-91622380D01*
X150963333Y-91574761D01*
X150915714Y-91479523D01*
X150915714Y-91336666D01*
X150963333Y-91241428D01*
X151010952Y-91193809D01*
X151106190Y-91146190D01*
X151391904Y-91146190D01*
X151487142Y-91193809D01*
X151534761Y-91241428D01*
X151582380Y-91336666D01*
X151582380Y-91479523D01*
X150915714Y-90860476D02*
X150915714Y-90479523D01*
X150582380Y-90717619D02*
X151439523Y-90717619D01*
X151534761Y-90670000D01*
X151582380Y-90574761D01*
X151582380Y-90479523D01*
X151582380Y-90003333D02*
X151534761Y-90098571D01*
X151487142Y-90146190D01*
X151391904Y-90193809D01*
X151106190Y-90193809D01*
X151010952Y-90146190D01*
X150963333Y-90098571D01*
X150915714Y-90003333D01*
X150915714Y-89860476D01*
X150963333Y-89765238D01*
X151010952Y-89717619D01*
X151106190Y-89670000D01*
X151391904Y-89670000D01*
X151487142Y-89717619D01*
X151534761Y-89765238D01*
X151582380Y-89860476D01*
X151582380Y-90003333D01*
X151582380Y-89241428D02*
X150915714Y-89241428D01*
X151106190Y-89241428D02*
X151010952Y-89193809D01*
X150963333Y-89146190D01*
X150915714Y-89050952D01*
X150915714Y-88955714D01*
X150677619Y-87908095D02*
X150630000Y-87860476D01*
X150582380Y-87765238D01*
X150582380Y-87527142D01*
X150630000Y-87431904D01*
X150677619Y-87384285D01*
X150772857Y-87336666D01*
X150868095Y-87336666D01*
X151010952Y-87384285D01*
X151582380Y-87955714D01*
X151582380Y-87336666D01*
X120922023Y-119027380D02*
X120588690Y-118551190D01*
X120350595Y-119027380D02*
X120350595Y-118027380D01*
X120731547Y-118027380D01*
X120826785Y-118075000D01*
X120874404Y-118122619D01*
X120922023Y-118217857D01*
X120922023Y-118360714D01*
X120874404Y-118455952D01*
X120826785Y-118503571D01*
X120731547Y-118551190D01*
X120350595Y-118551190D01*
X121922023Y-118932142D02*
X121874404Y-118979761D01*
X121731547Y-119027380D01*
X121636309Y-119027380D01*
X121493452Y-118979761D01*
X121398214Y-118884523D01*
X121350595Y-118789285D01*
X121302976Y-118598809D01*
X121302976Y-118455952D01*
X121350595Y-118265476D01*
X121398214Y-118170238D01*
X121493452Y-118075000D01*
X121636309Y-118027380D01*
X121731547Y-118027380D01*
X121874404Y-118075000D01*
X121922023Y-118122619D01*
X123683928Y-119027380D02*
X123350595Y-118551190D01*
X123112500Y-119027380D02*
X123112500Y-118027380D01*
X123493452Y-118027380D01*
X123588690Y-118075000D01*
X123636309Y-118122619D01*
X123683928Y-118217857D01*
X123683928Y-118360714D01*
X123636309Y-118455952D01*
X123588690Y-118503571D01*
X123493452Y-118551190D01*
X123112500Y-118551190D01*
X124255357Y-119027380D02*
X124160119Y-118979761D01*
X124112500Y-118932142D01*
X124064880Y-118836904D01*
X124064880Y-118551190D01*
X124112500Y-118455952D01*
X124160119Y-118408333D01*
X124255357Y-118360714D01*
X124398214Y-118360714D01*
X124493452Y-118408333D01*
X124541071Y-118455952D01*
X124588690Y-118551190D01*
X124588690Y-118836904D01*
X124541071Y-118932142D01*
X124493452Y-118979761D01*
X124398214Y-119027380D01*
X124255357Y-119027380D01*
X125017261Y-119027380D02*
X125017261Y-118027380D01*
X125017261Y-118408333D02*
X125112500Y-118360714D01*
X125302976Y-118360714D01*
X125398214Y-118408333D01*
X125445833Y-118455952D01*
X125493452Y-118551190D01*
X125493452Y-118836904D01*
X125445833Y-118932142D01*
X125398214Y-118979761D01*
X125302976Y-119027380D01*
X125112500Y-119027380D01*
X125017261Y-118979761D01*
X126064880Y-119027380D02*
X125969642Y-118979761D01*
X125922023Y-118932142D01*
X125874404Y-118836904D01*
X125874404Y-118551190D01*
X125922023Y-118455952D01*
X125969642Y-118408333D01*
X126064880Y-118360714D01*
X126207738Y-118360714D01*
X126302976Y-118408333D01*
X126350595Y-118455952D01*
X126398214Y-118551190D01*
X126398214Y-118836904D01*
X126350595Y-118932142D01*
X126302976Y-118979761D01*
X126207738Y-119027380D01*
X126064880Y-119027380D01*
X126683928Y-118360714D02*
X127064880Y-118360714D01*
X126826785Y-118027380D02*
X126826785Y-118884523D01*
X126874404Y-118979761D01*
X126969642Y-119027380D01*
X127064880Y-119027380D01*
X128731547Y-118932142D02*
X128683928Y-118979761D01*
X128541071Y-119027380D01*
X128445833Y-119027380D01*
X128302976Y-118979761D01*
X128207738Y-118884523D01*
X128160119Y-118789285D01*
X128112500Y-118598809D01*
X128112500Y-118455952D01*
X128160119Y-118265476D01*
X128207738Y-118170238D01*
X128302976Y-118075000D01*
X128445833Y-118027380D01*
X128541071Y-118027380D01*
X128683928Y-118075000D01*
X128731547Y-118122619D01*
X129302976Y-119027380D02*
X129207738Y-118979761D01*
X129160119Y-118932142D01*
X129112500Y-118836904D01*
X129112500Y-118551190D01*
X129160119Y-118455952D01*
X129207738Y-118408333D01*
X129302976Y-118360714D01*
X129445833Y-118360714D01*
X129541071Y-118408333D01*
X129588690Y-118455952D01*
X129636309Y-118551190D01*
X129636309Y-118836904D01*
X129588690Y-118932142D01*
X129541071Y-118979761D01*
X129445833Y-119027380D01*
X129302976Y-119027380D01*
X130064880Y-118360714D02*
X130064880Y-119027380D01*
X130064880Y-118455952D02*
X130112500Y-118408333D01*
X130207738Y-118360714D01*
X130350595Y-118360714D01*
X130445833Y-118408333D01*
X130493452Y-118503571D01*
X130493452Y-119027380D01*
X130826785Y-118360714D02*
X131207738Y-118360714D01*
X130969642Y-118027380D02*
X130969642Y-118884523D01*
X131017261Y-118979761D01*
X131112500Y-119027380D01*
X131207738Y-119027380D01*
X131541071Y-119027380D02*
X131541071Y-118360714D01*
X131541071Y-118551190D02*
X131588690Y-118455952D01*
X131636309Y-118408333D01*
X131731547Y-118360714D01*
X131826785Y-118360714D01*
X132302976Y-119027380D02*
X132207738Y-118979761D01*
X132160119Y-118932142D01*
X132112500Y-118836904D01*
X132112500Y-118551190D01*
X132160119Y-118455952D01*
X132207738Y-118408333D01*
X132302976Y-118360714D01*
X132445833Y-118360714D01*
X132541071Y-118408333D01*
X132588690Y-118455952D01*
X132636309Y-118551190D01*
X132636309Y-118836904D01*
X132588690Y-118932142D01*
X132541071Y-118979761D01*
X132445833Y-119027380D01*
X132302976Y-119027380D01*
X133207738Y-119027380D02*
X133112500Y-118979761D01*
X133064880Y-118884523D01*
X133064880Y-118027380D01*
X133731547Y-119027380D02*
X133636309Y-118979761D01*
X133588690Y-118884523D01*
X133588690Y-118027380D01*
X134493452Y-118979761D02*
X134398214Y-119027380D01*
X134207738Y-119027380D01*
X134112500Y-118979761D01*
X134064880Y-118884523D01*
X134064880Y-118503571D01*
X134112500Y-118408333D01*
X134207738Y-118360714D01*
X134398214Y-118360714D01*
X134493452Y-118408333D01*
X134541071Y-118503571D01*
X134541071Y-118598809D01*
X134064880Y-118694047D01*
X134969642Y-119027380D02*
X134969642Y-118360714D01*
X134969642Y-118551190D02*
X135017261Y-118455952D01*
X135064880Y-118408333D01*
X135160119Y-118360714D01*
X135255357Y-118360714D01*
X120922023Y-120637380D02*
X120588690Y-120161190D01*
X120350595Y-120637380D02*
X120350595Y-119637380D01*
X120731547Y-119637380D01*
X120826785Y-119685000D01*
X120874404Y-119732619D01*
X120922023Y-119827857D01*
X120922023Y-119970714D01*
X120874404Y-120065952D01*
X120826785Y-120113571D01*
X120731547Y-120161190D01*
X120350595Y-120161190D01*
X121731547Y-120589761D02*
X121636309Y-120637380D01*
X121445833Y-120637380D01*
X121350595Y-120589761D01*
X121302976Y-120494523D01*
X121302976Y-120113571D01*
X121350595Y-120018333D01*
X121445833Y-119970714D01*
X121636309Y-119970714D01*
X121731547Y-120018333D01*
X121779166Y-120113571D01*
X121779166Y-120208809D01*
X121302976Y-120304047D01*
X122112500Y-119970714D02*
X122350595Y-120637380D01*
X122588690Y-119970714D01*
X124255357Y-120637380D02*
X123683928Y-120637380D01*
X123969642Y-120637380D02*
X123969642Y-119637380D01*
X123874404Y-119780238D01*
X123779166Y-119875476D01*
X123683928Y-119923095D01*
X110696666Y-117244761D02*
X110601428Y-117292380D01*
X110410952Y-117292380D01*
X110315714Y-117244761D01*
X110268095Y-117149523D01*
X110268095Y-116768571D01*
X110315714Y-116673333D01*
X110410952Y-116625714D01*
X110601428Y-116625714D01*
X110696666Y-116673333D01*
X110744285Y-116768571D01*
X110744285Y-116863809D01*
X110268095Y-116959047D01*
X111125238Y-117244761D02*
X111220476Y-117292380D01*
X111410952Y-117292380D01*
X111506190Y-117244761D01*
X111553809Y-117149523D01*
X111553809Y-117101904D01*
X111506190Y-117006666D01*
X111410952Y-116959047D01*
X111268095Y-116959047D01*
X111172857Y-116911428D01*
X111125238Y-116816190D01*
X111125238Y-116768571D01*
X111172857Y-116673333D01*
X111268095Y-116625714D01*
X111410952Y-116625714D01*
X111506190Y-116673333D01*
X111982380Y-116625714D02*
X111982380Y-117625714D01*
X111982380Y-116673333D02*
X112077619Y-116625714D01*
X112268095Y-116625714D01*
X112363333Y-116673333D01*
X112410952Y-116720952D01*
X112458571Y-116816190D01*
X112458571Y-117101904D01*
X112410952Y-117197142D01*
X112363333Y-117244761D01*
X112268095Y-117292380D01*
X112077619Y-117292380D01*
X111982380Y-117244761D01*
X113649047Y-116625714D02*
X113649047Y-117625714D01*
X113649047Y-116673333D02*
X113744285Y-116625714D01*
X113934761Y-116625714D01*
X114030000Y-116673333D01*
X114077619Y-116720952D01*
X114125238Y-116816190D01*
X114125238Y-117101904D01*
X114077619Y-117197142D01*
X114030000Y-117244761D01*
X113934761Y-117292380D01*
X113744285Y-117292380D01*
X113649047Y-117244761D01*
X114458571Y-116625714D02*
X114649047Y-117292380D01*
X114839523Y-116816190D01*
X115030000Y-117292380D01*
X115220476Y-116625714D01*
X115601428Y-117292380D02*
X115601428Y-116625714D01*
X115601428Y-116816190D02*
X115649047Y-116720952D01*
X115696666Y-116673333D01*
X115791904Y-116625714D01*
X115887142Y-116625714D01*
D11*
X117499404Y-84883452D02*
X117276190Y-86669166D01*
X117112500Y-87026309D01*
X116844642Y-87264404D01*
X116472619Y-87383452D01*
X116234523Y-87383452D01*
X118377380Y-87383452D02*
X118689880Y-84883452D01*
X119642261Y-84883452D01*
X119865476Y-85002500D01*
X119969642Y-85121547D01*
X120058928Y-85359642D01*
X120014285Y-85716785D01*
X119865476Y-85954880D01*
X119731547Y-86073928D01*
X119478571Y-86192976D01*
X118526190Y-86192976D01*
X120877380Y-87383452D02*
X121189880Y-84883452D01*
X121800000Y-86669166D01*
X122856547Y-84883452D01*
X122544047Y-87383452D01*
X117901190Y-91408452D02*
X117216666Y-90217976D01*
X116472619Y-91408452D02*
X116785119Y-88908452D01*
X117737500Y-88908452D01*
X117960714Y-89027500D01*
X118064880Y-89146547D01*
X118154166Y-89384642D01*
X118109523Y-89741785D01*
X117960714Y-89979880D01*
X117826785Y-90098928D01*
X117573809Y-90217976D01*
X116621428Y-90217976D01*
X119329761Y-91408452D02*
X119106547Y-91289404D01*
X119002380Y-91170357D01*
X118913095Y-90932261D01*
X119002380Y-90217976D01*
X119151190Y-89979880D01*
X119285119Y-89860833D01*
X119538095Y-89741785D01*
X119895238Y-89741785D01*
X120118452Y-89860833D01*
X120222619Y-89979880D01*
X120311904Y-90217976D01*
X120222619Y-90932261D01*
X120073809Y-91170357D01*
X119939880Y-91289404D01*
X119686904Y-91408452D01*
X119329761Y-91408452D01*
X121234523Y-91408452D02*
X121547023Y-88908452D01*
X121427976Y-89860833D02*
X121680952Y-89741785D01*
X122157142Y-89741785D01*
X122380357Y-89860833D01*
X122484523Y-89979880D01*
X122573809Y-90217976D01*
X122484523Y-90932261D01*
X122335714Y-91170357D01*
X122201785Y-91289404D01*
X121948809Y-91408452D01*
X121472619Y-91408452D01*
X121249404Y-91289404D01*
X123853571Y-91408452D02*
X123630357Y-91289404D01*
X123526190Y-91170357D01*
X123436904Y-90932261D01*
X123526190Y-90217976D01*
X123675000Y-89979880D01*
X123808928Y-89860833D01*
X124061904Y-89741785D01*
X124419047Y-89741785D01*
X124642261Y-89860833D01*
X124746428Y-89979880D01*
X124835714Y-90217976D01*
X124746428Y-90932261D01*
X124597619Y-91170357D01*
X124463690Y-91289404D01*
X124210714Y-91408452D01*
X123853571Y-91408452D01*
X125609523Y-89741785D02*
X126561904Y-89741785D01*
X126070833Y-88908452D02*
X125802976Y-91051309D01*
X125892261Y-91289404D01*
X126115476Y-91408452D01*
X126353571Y-91408452D01*
X127186904Y-91408452D02*
X127395238Y-89741785D01*
X127499404Y-88908452D02*
X127365476Y-89027500D01*
X127469642Y-89146547D01*
X127603571Y-89027500D01*
X127499404Y-88908452D01*
X127469642Y-89146547D01*
X129463690Y-91289404D02*
X129210714Y-91408452D01*
X128734523Y-91408452D01*
X128511309Y-91289404D01*
X128407142Y-91170357D01*
X128317857Y-90932261D01*
X128407142Y-90217976D01*
X128555952Y-89979880D01*
X128689880Y-89860833D01*
X128942857Y-89741785D01*
X129419047Y-89741785D01*
X129642261Y-89860833D01*
X130416071Y-91289404D02*
X130639285Y-91408452D01*
X131115476Y-91408452D01*
X131368452Y-91289404D01*
X131517261Y-91051309D01*
X131532142Y-90932261D01*
X131442857Y-90694166D01*
X131219642Y-90575119D01*
X130862500Y-90575119D01*
X130639285Y-90456071D01*
X130550000Y-90217976D01*
X130564880Y-90098928D01*
X130713690Y-89860833D01*
X130966666Y-89741785D01*
X131323809Y-89741785D01*
X131547023Y-89860833D01*
D10*
X129754761Y-63952380D02*
X129754761Y-63285714D01*
X129754761Y-63380952D02*
X129802380Y-63333333D01*
X129897619Y-63285714D01*
X130040476Y-63285714D01*
X130135714Y-63333333D01*
X130183333Y-63428571D01*
X130183333Y-63952380D01*
X130183333Y-63428571D02*
X130230952Y-63333333D01*
X130326190Y-63285714D01*
X130469047Y-63285714D01*
X130564285Y-63333333D01*
X130611904Y-63428571D01*
X130611904Y-63952380D01*
X131230952Y-63952380D02*
X131135714Y-63904761D01*
X131088095Y-63857142D01*
X131040476Y-63761904D01*
X131040476Y-63476190D01*
X131088095Y-63380952D01*
X131135714Y-63333333D01*
X131230952Y-63285714D01*
X131373809Y-63285714D01*
X131469047Y-63333333D01*
X131516666Y-63380952D01*
X131564285Y-63476190D01*
X131564285Y-63761904D01*
X131516666Y-63857142D01*
X131469047Y-63904761D01*
X131373809Y-63952380D01*
X131230952Y-63952380D01*
X131850000Y-63285714D02*
X132230952Y-63285714D01*
X131992857Y-62952380D02*
X131992857Y-63809523D01*
X132040476Y-63904761D01*
X132135714Y-63952380D01*
X132230952Y-63952380D01*
X132707142Y-63952380D02*
X132611904Y-63904761D01*
X132564285Y-63857142D01*
X132516666Y-63761904D01*
X132516666Y-63476190D01*
X132564285Y-63380952D01*
X132611904Y-63333333D01*
X132707142Y-63285714D01*
X132850000Y-63285714D01*
X132945238Y-63333333D01*
X132992857Y-63380952D01*
X133040476Y-63476190D01*
X133040476Y-63761904D01*
X132992857Y-63857142D01*
X132945238Y-63904761D01*
X132850000Y-63952380D01*
X132707142Y-63952380D01*
X133469047Y-63952380D02*
X133469047Y-63285714D01*
X133469047Y-63476190D02*
X133516666Y-63380952D01*
X133564285Y-63333333D01*
X133659523Y-63285714D01*
X133754761Y-63285714D01*
X134850000Y-63285714D02*
X134850000Y-64285714D01*
X134850000Y-63333333D02*
X134945238Y-63285714D01*
X135135714Y-63285714D01*
X135230952Y-63333333D01*
X135278571Y-63380952D01*
X135326190Y-63476190D01*
X135326190Y-63761904D01*
X135278571Y-63857142D01*
X135230952Y-63904761D01*
X135135714Y-63952380D01*
X134945238Y-63952380D01*
X134850000Y-63904761D01*
X135659523Y-63285714D02*
X135850000Y-63952380D01*
X136040476Y-63476190D01*
X136230952Y-63952380D01*
X136421428Y-63285714D01*
X136802380Y-63952380D02*
X136802380Y-63285714D01*
X136802380Y-63476190D02*
X136850000Y-63380952D01*
X136897619Y-63333333D01*
X136992857Y-63285714D01*
X137088095Y-63285714D01*
X110958571Y-63904761D02*
X110863333Y-63952380D01*
X110672857Y-63952380D01*
X110577619Y-63904761D01*
X110530000Y-63857142D01*
X110482380Y-63761904D01*
X110482380Y-63476190D01*
X110530000Y-63380952D01*
X110577619Y-63333333D01*
X110672857Y-63285714D01*
X110863333Y-63285714D01*
X110958571Y-63333333D01*
X111815714Y-63952380D02*
X111815714Y-63428571D01*
X111768095Y-63333333D01*
X111672857Y-63285714D01*
X111482380Y-63285714D01*
X111387142Y-63333333D01*
X111815714Y-63904761D02*
X111720476Y-63952380D01*
X111482380Y-63952380D01*
X111387142Y-63904761D01*
X111339523Y-63809523D01*
X111339523Y-63714285D01*
X111387142Y-63619047D01*
X111482380Y-63571428D01*
X111720476Y-63571428D01*
X111815714Y-63523809D01*
X112291904Y-63952380D02*
X112291904Y-63285714D01*
X112291904Y-63380952D02*
X112339523Y-63333333D01*
X112434761Y-63285714D01*
X112577619Y-63285714D01*
X112672857Y-63333333D01*
X112720476Y-63428571D01*
X112720476Y-63952380D01*
X112720476Y-63428571D02*
X112768095Y-63333333D01*
X112863333Y-63285714D01*
X113006190Y-63285714D01*
X113101428Y-63333333D01*
X113149047Y-63428571D01*
X113149047Y-63952380D01*
X114006190Y-63904761D02*
X113910952Y-63952380D01*
X113720476Y-63952380D01*
X113625238Y-63904761D01*
X113577619Y-63809523D01*
X113577619Y-63428571D01*
X113625238Y-63333333D01*
X113720476Y-63285714D01*
X113910952Y-63285714D01*
X114006190Y-63333333D01*
X114053809Y-63428571D01*
X114053809Y-63523809D01*
X113577619Y-63619047D01*
X114482380Y-63952380D02*
X114482380Y-63285714D01*
X114482380Y-63476190D02*
X114530000Y-63380952D01*
X114577619Y-63333333D01*
X114672857Y-63285714D01*
X114768095Y-63285714D01*
X115530000Y-63952380D02*
X115530000Y-63428571D01*
X115482380Y-63333333D01*
X115387142Y-63285714D01*
X115196666Y-63285714D01*
X115101428Y-63333333D01*
X115530000Y-63904761D02*
X115434761Y-63952380D01*
X115196666Y-63952380D01*
X115101428Y-63904761D01*
X115053809Y-63809523D01*
X115053809Y-63714285D01*
X115101428Y-63619047D01*
X115196666Y-63571428D01*
X115434761Y-63571428D01*
X115530000Y-63523809D01*
X109096666Y-118832380D02*
X109096666Y-119546666D01*
X109049047Y-119689523D01*
X108953809Y-119784761D01*
X108810952Y-119832380D01*
X108715714Y-119832380D01*
X109477619Y-118832380D02*
X110144285Y-118832380D01*
X109715714Y-119832380D01*
X97685505Y-107280845D02*
X97581010Y-107228598D01*
X97476515Y-107124103D01*
X97319772Y-106967361D01*
X97215277Y-106915113D01*
X97110782Y-106915113D01*
X97163030Y-107176351D02*
X97058535Y-107124103D01*
X96954040Y-107019608D01*
X96901792Y-106810618D01*
X96901792Y-106444886D01*
X96954040Y-106235896D01*
X97058535Y-106131401D01*
X97163030Y-106079154D01*
X97372020Y-106079154D01*
X97476515Y-106131401D01*
X97581010Y-106235896D01*
X97633257Y-106444886D01*
X97633257Y-106810618D01*
X97581010Y-107019608D01*
X97476515Y-107124103D01*
X97372020Y-107176351D01*
X97163030Y-107176351D01*
X97998989Y-106079154D02*
X98678207Y-106079154D01*
X98312474Y-106497133D01*
X98469217Y-106497133D01*
X98573712Y-106549381D01*
X98625959Y-106601628D01*
X98678207Y-106706123D01*
X98678207Y-106967361D01*
X98625959Y-107071856D01*
X98573712Y-107124103D01*
X98469217Y-107176351D01*
X98155732Y-107176351D01*
X98051237Y-107124103D01*
X97998989Y-107071856D01*
X97685505Y-67910845D02*
X97581010Y-67858598D01*
X97476515Y-67754103D01*
X97319772Y-67597361D01*
X97215277Y-67545113D01*
X97110782Y-67545113D01*
X97163030Y-67806351D02*
X97058535Y-67754103D01*
X96954040Y-67649608D01*
X96901792Y-67440618D01*
X96901792Y-67074886D01*
X96954040Y-66865896D01*
X97058535Y-66761401D01*
X97163030Y-66709154D01*
X97372020Y-66709154D01*
X97476515Y-66761401D01*
X97581010Y-66865896D01*
X97633257Y-67074886D01*
X97633257Y-67440618D01*
X97581010Y-67649608D01*
X97476515Y-67754103D01*
X97372020Y-67806351D01*
X97163030Y-67806351D01*
X98678207Y-67806351D02*
X98051237Y-67806351D01*
X98364722Y-67806351D02*
X98364722Y-66709154D01*
X98260227Y-66865896D01*
X98155732Y-66970391D01*
X98051237Y-67022638D01*
X108886666Y-66127380D02*
X108886666Y-66841666D01*
X108839047Y-66984523D01*
X108743809Y-67079761D01*
X108600952Y-67127380D01*
X108505714Y-67127380D01*
X109886666Y-67127380D02*
X109315238Y-67127380D01*
X109600952Y-67127380D02*
X109600952Y-66127380D01*
X109505714Y-66270238D01*
X109410476Y-66365476D01*
X109315238Y-66413095D01*
X97685505Y-113630845D02*
X97581010Y-113578598D01*
X97476515Y-113474103D01*
X97319772Y-113317361D01*
X97215277Y-113265113D01*
X97110782Y-113265113D01*
X97163030Y-113526351D02*
X97058535Y-113474103D01*
X96954040Y-113369608D01*
X96901792Y-113160618D01*
X96901792Y-112794886D01*
X96954040Y-112585896D01*
X97058535Y-112481401D01*
X97163030Y-112429154D01*
X97372020Y-112429154D01*
X97476515Y-112481401D01*
X97581010Y-112585896D01*
X97633257Y-112794886D01*
X97633257Y-113160618D01*
X97581010Y-113369608D01*
X97476515Y-113474103D01*
X97372020Y-113526351D01*
X97163030Y-113526351D01*
X98573712Y-112794886D02*
X98573712Y-113526351D01*
X98312474Y-112376906D02*
X98051237Y-113160618D01*
X98730454Y-113160618D01*
X148485505Y-72990845D02*
X148381010Y-72938598D01*
X148276515Y-72834103D01*
X148119772Y-72677361D01*
X148015277Y-72625113D01*
X147910782Y-72625113D01*
X147963030Y-72886351D02*
X147858535Y-72834103D01*
X147754040Y-72729608D01*
X147701792Y-72520618D01*
X147701792Y-72154886D01*
X147754040Y-71945896D01*
X147858535Y-71841401D01*
X147963030Y-71789154D01*
X148172020Y-71789154D01*
X148276515Y-71841401D01*
X148381010Y-71945896D01*
X148433257Y-72154886D01*
X148433257Y-72520618D01*
X148381010Y-72729608D01*
X148276515Y-72834103D01*
X148172020Y-72886351D01*
X147963030Y-72886351D01*
X149373712Y-71789154D02*
X149164722Y-71789154D01*
X149060227Y-71841401D01*
X149007979Y-71893648D01*
X148903484Y-72050391D01*
X148851237Y-72259381D01*
X148851237Y-72677361D01*
X148903484Y-72781856D01*
X148955732Y-72834103D01*
X149060227Y-72886351D01*
X149269217Y-72886351D01*
X149373712Y-72834103D01*
X149425959Y-72781856D01*
X149478207Y-72677361D01*
X149478207Y-72416123D01*
X149425959Y-72311628D01*
X149373712Y-72259381D01*
X149269217Y-72207133D01*
X149060227Y-72207133D01*
X148955732Y-72259381D01*
X148903484Y-72311628D01*
X148851237Y-72416123D01*
X108886666Y-60412380D02*
X108886666Y-61126666D01*
X108839047Y-61269523D01*
X108743809Y-61364761D01*
X108600952Y-61412380D01*
X108505714Y-61412380D01*
X109267619Y-60412380D02*
X109886666Y-60412380D01*
X109553333Y-60793333D01*
X109696190Y-60793333D01*
X109791428Y-60840952D01*
X109839047Y-60888571D01*
X109886666Y-60983809D01*
X109886666Y-61221904D01*
X109839047Y-61317142D01*
X109791428Y-61364761D01*
X109696190Y-61412380D01*
X109410476Y-61412380D01*
X109315238Y-61364761D01*
X109267619Y-61317142D01*
X140803333Y-88082380D02*
X140470000Y-87606190D01*
X140231904Y-88082380D02*
X140231904Y-87082380D01*
X140612857Y-87082380D01*
X140708095Y-87130000D01*
X140755714Y-87177619D01*
X140803333Y-87272857D01*
X140803333Y-87415714D01*
X140755714Y-87510952D01*
X140708095Y-87558571D01*
X140612857Y-87606190D01*
X140231904Y-87606190D01*
X141708095Y-87082380D02*
X141231904Y-87082380D01*
X141184285Y-87558571D01*
X141231904Y-87510952D01*
X141327142Y-87463333D01*
X141565238Y-87463333D01*
X141660476Y-87510952D01*
X141708095Y-87558571D01*
X141755714Y-87653809D01*
X141755714Y-87891904D01*
X141708095Y-87987142D01*
X141660476Y-88034761D01*
X141565238Y-88082380D01*
X141327142Y-88082380D01*
X141231904Y-88034761D01*
X141184285Y-87987142D01*
X148485505Y-106010845D02*
X148381010Y-105958598D01*
X148276515Y-105854103D01*
X148119772Y-105697361D01*
X148015277Y-105645113D01*
X147910782Y-105645113D01*
X147963030Y-105906351D02*
X147858535Y-105854103D01*
X147754040Y-105749608D01*
X147701792Y-105540618D01*
X147701792Y-105174886D01*
X147754040Y-104965896D01*
X147858535Y-104861401D01*
X147963030Y-104809154D01*
X148172020Y-104809154D01*
X148276515Y-104861401D01*
X148381010Y-104965896D01*
X148433257Y-105174886D01*
X148433257Y-105540618D01*
X148381010Y-105749608D01*
X148276515Y-105854103D01*
X148172020Y-105906351D01*
X147963030Y-105906351D01*
X148798989Y-104809154D02*
X149530454Y-104809154D01*
X149060227Y-105906351D01*
X150368095Y-80732380D02*
X150368095Y-81541904D01*
X150415714Y-81637142D01*
X150463333Y-81684761D01*
X150558571Y-81732380D01*
X150749047Y-81732380D01*
X150844285Y-81684761D01*
X150891904Y-81637142D01*
X150939523Y-81541904D01*
X150939523Y-80732380D01*
X151320476Y-80732380D02*
X151939523Y-80732380D01*
X151606190Y-81113333D01*
X151749047Y-81113333D01*
X151844285Y-81160952D01*
X151891904Y-81208571D01*
X151939523Y-81303809D01*
X151939523Y-81541904D01*
X151891904Y-81637142D01*
X151844285Y-81684761D01*
X151749047Y-81732380D01*
X151463333Y-81732380D01*
X151368095Y-81684761D01*
X151320476Y-81637142D01*
X148485505Y-112360845D02*
X148381010Y-112308598D01*
X148276515Y-112204103D01*
X148119772Y-112047361D01*
X148015277Y-111995113D01*
X147910782Y-111995113D01*
X147963030Y-112256351D02*
X147858535Y-112204103D01*
X147754040Y-112099608D01*
X147701792Y-111890618D01*
X147701792Y-111524886D01*
X147754040Y-111315896D01*
X147858535Y-111211401D01*
X147963030Y-111159154D01*
X148172020Y-111159154D01*
X148276515Y-111211401D01*
X148381010Y-111315896D01*
X148433257Y-111524886D01*
X148433257Y-111890618D01*
X148381010Y-112099608D01*
X148276515Y-112204103D01*
X148172020Y-112256351D01*
X147963030Y-112256351D01*
X149060227Y-111629381D02*
X148955732Y-111577133D01*
X148903484Y-111524886D01*
X148851237Y-111420391D01*
X148851237Y-111368143D01*
X148903484Y-111263648D01*
X148955732Y-111211401D01*
X149060227Y-111159154D01*
X149269217Y-111159154D01*
X149373712Y-111211401D01*
X149425959Y-111263648D01*
X149478207Y-111368143D01*
X149478207Y-111420391D01*
X149425959Y-111524886D01*
X149373712Y-111577133D01*
X149269217Y-111629381D01*
X149060227Y-111629381D01*
X148955732Y-111681628D01*
X148903484Y-111733876D01*
X148851237Y-111838371D01*
X148851237Y-112047361D01*
X148903484Y-112151856D01*
X148955732Y-112204103D01*
X149060227Y-112256351D01*
X149269217Y-112256351D01*
X149373712Y-112204103D01*
X149425959Y-112151856D01*
X149478207Y-112047361D01*
X149478207Y-111838371D01*
X149425959Y-111733876D01*
X149373712Y-111681628D01*
X149269217Y-111629381D01*
X102703333Y-90622380D02*
X102370000Y-90146190D01*
X102131904Y-90622380D02*
X102131904Y-89622380D01*
X102512857Y-89622380D01*
X102608095Y-89670000D01*
X102655714Y-89717619D01*
X102703333Y-89812857D01*
X102703333Y-89955714D01*
X102655714Y-90050952D01*
X102608095Y-90098571D01*
X102512857Y-90146190D01*
X102131904Y-90146190D01*
X103036666Y-89622380D02*
X103655714Y-89622380D01*
X103322380Y-90003333D01*
X103465238Y-90003333D01*
X103560476Y-90050952D01*
X103608095Y-90098571D01*
X103655714Y-90193809D01*
X103655714Y-90431904D01*
X103608095Y-90527142D01*
X103560476Y-90574761D01*
X103465238Y-90622380D01*
X103179523Y-90622380D01*
X103084285Y-90574761D01*
X103036666Y-90527142D01*
X136826666Y-65492380D02*
X136826666Y-66206666D01*
X136779047Y-66349523D01*
X136683809Y-66444761D01*
X136540952Y-66492380D01*
X136445714Y-66492380D01*
X137255238Y-65587619D02*
X137302857Y-65540000D01*
X137398095Y-65492380D01*
X137636190Y-65492380D01*
X137731428Y-65540000D01*
X137779047Y-65587619D01*
X137826666Y-65682857D01*
X137826666Y-65778095D01*
X137779047Y-65920952D01*
X137207619Y-66492380D01*
X137826666Y-66492380D01*
X140803333Y-90622380D02*
X140470000Y-90146190D01*
X140231904Y-90622380D02*
X140231904Y-89622380D01*
X140612857Y-89622380D01*
X140708095Y-89670000D01*
X140755714Y-89717619D01*
X140803333Y-89812857D01*
X140803333Y-89955714D01*
X140755714Y-90050952D01*
X140708095Y-90098571D01*
X140612857Y-90146190D01*
X140231904Y-90146190D01*
X141374761Y-90050952D02*
X141279523Y-90003333D01*
X141231904Y-89955714D01*
X141184285Y-89860476D01*
X141184285Y-89812857D01*
X141231904Y-89717619D01*
X141279523Y-89670000D01*
X141374761Y-89622380D01*
X141565238Y-89622380D01*
X141660476Y-89670000D01*
X141708095Y-89717619D01*
X141755714Y-89812857D01*
X141755714Y-89860476D01*
X141708095Y-89955714D01*
X141660476Y-90003333D01*
X141565238Y-90050952D01*
X141374761Y-90050952D01*
X141279523Y-90098571D01*
X141231904Y-90146190D01*
X141184285Y-90241428D01*
X141184285Y-90431904D01*
X141231904Y-90527142D01*
X141279523Y-90574761D01*
X141374761Y-90622380D01*
X141565238Y-90622380D01*
X141660476Y-90574761D01*
X141708095Y-90527142D01*
X141755714Y-90431904D01*
X141755714Y-90241428D01*
X141708095Y-90146190D01*
X141660476Y-90098571D01*
X141565238Y-90050952D01*
X97685505Y-74260845D02*
X97581010Y-74208598D01*
X97476515Y-74104103D01*
X97319772Y-73947361D01*
X97215277Y-73895113D01*
X97110782Y-73895113D01*
X97163030Y-74156351D02*
X97058535Y-74104103D01*
X96954040Y-73999608D01*
X96901792Y-73790618D01*
X96901792Y-73424886D01*
X96954040Y-73215896D01*
X97058535Y-73111401D01*
X97163030Y-73059154D01*
X97372020Y-73059154D01*
X97476515Y-73111401D01*
X97581010Y-73215896D01*
X97633257Y-73424886D01*
X97633257Y-73790618D01*
X97581010Y-73999608D01*
X97476515Y-74104103D01*
X97372020Y-74156351D01*
X97163030Y-74156351D01*
X98051237Y-73163648D02*
X98103484Y-73111401D01*
X98207979Y-73059154D01*
X98469217Y-73059154D01*
X98573712Y-73111401D01*
X98625959Y-73163648D01*
X98678207Y-73268143D01*
X98678207Y-73372638D01*
X98625959Y-73529381D01*
X97998989Y-74156351D01*
X98678207Y-74156351D01*
X105243333Y-88082380D02*
X104910000Y-87606190D01*
X104671904Y-88082380D02*
X104671904Y-87082380D01*
X105052857Y-87082380D01*
X105148095Y-87130000D01*
X105195714Y-87177619D01*
X105243333Y-87272857D01*
X105243333Y-87415714D01*
X105195714Y-87510952D01*
X105148095Y-87558571D01*
X105052857Y-87606190D01*
X104671904Y-87606190D01*
X106195714Y-88082380D02*
X105624285Y-88082380D01*
X105910000Y-88082380D02*
X105910000Y-87082380D01*
X105814761Y-87225238D01*
X105719523Y-87320476D01*
X105624285Y-87368095D01*
X94488095Y-80717380D02*
X94488095Y-81526904D01*
X94535714Y-81622142D01*
X94583333Y-81669761D01*
X94678571Y-81717380D01*
X94869047Y-81717380D01*
X94964285Y-81669761D01*
X95011904Y-81622142D01*
X95059523Y-81526904D01*
X95059523Y-80717380D01*
X96059523Y-81717380D02*
X95488095Y-81717380D01*
X95773809Y-81717380D02*
X95773809Y-80717380D01*
X95678571Y-80860238D01*
X95583333Y-80955476D01*
X95488095Y-81003095D01*
X148485505Y-66640845D02*
X148381010Y-66588598D01*
X148276515Y-66484103D01*
X148119772Y-66327361D01*
X148015277Y-66275113D01*
X147910782Y-66275113D01*
X147963030Y-66536351D02*
X147858535Y-66484103D01*
X147754040Y-66379608D01*
X147701792Y-66170618D01*
X147701792Y-65804886D01*
X147754040Y-65595896D01*
X147858535Y-65491401D01*
X147963030Y-65439154D01*
X148172020Y-65439154D01*
X148276515Y-65491401D01*
X148381010Y-65595896D01*
X148433257Y-65804886D01*
X148433257Y-66170618D01*
X148381010Y-66379608D01*
X148276515Y-66484103D01*
X148172020Y-66536351D01*
X147963030Y-66536351D01*
X149425959Y-65439154D02*
X148903484Y-65439154D01*
X148851237Y-65961628D01*
X148903484Y-65909381D01*
X149007979Y-65857133D01*
X149269217Y-65857133D01*
X149373712Y-65909381D01*
X149425959Y-65961628D01*
X149478207Y-66066123D01*
X149478207Y-66327361D01*
X149425959Y-66431856D01*
X149373712Y-66484103D01*
X149269217Y-66536351D01*
X149007979Y-66536351D01*
X148903484Y-66484103D01*
X148851237Y-66431856D01*
X150368095Y-98527380D02*
X150368095Y-99336904D01*
X150415714Y-99432142D01*
X150463333Y-99479761D01*
X150558571Y-99527380D01*
X150749047Y-99527380D01*
X150844285Y-99479761D01*
X150891904Y-99432142D01*
X150939523Y-99336904D01*
X150939523Y-98527380D01*
X151844285Y-98860714D02*
X151844285Y-99527380D01*
X151606190Y-98479761D02*
X151368095Y-99194047D01*
X151987142Y-99194047D01*
X143343333Y-88082380D02*
X143010000Y-87606190D01*
X142771904Y-88082380D02*
X142771904Y-87082380D01*
X143152857Y-87082380D01*
X143248095Y-87130000D01*
X143295714Y-87177619D01*
X143343333Y-87272857D01*
X143343333Y-87415714D01*
X143295714Y-87510952D01*
X143248095Y-87558571D01*
X143152857Y-87606190D01*
X142771904Y-87606190D01*
X144200476Y-87082380D02*
X144010000Y-87082380D01*
X143914761Y-87130000D01*
X143867142Y-87177619D01*
X143771904Y-87320476D01*
X143724285Y-87510952D01*
X143724285Y-87891904D01*
X143771904Y-87987142D01*
X143819523Y-88034761D01*
X143914761Y-88082380D01*
X144105238Y-88082380D01*
X144200476Y-88034761D01*
X144248095Y-87987142D01*
X144295714Y-87891904D01*
X144295714Y-87653809D01*
X144248095Y-87558571D01*
X144200476Y-87510952D01*
X144105238Y-87463333D01*
X143914761Y-87463333D01*
X143819523Y-87510952D01*
X143771904Y-87558571D01*
X143724285Y-87653809D01*
X136826666Y-60412380D02*
X136826666Y-61126666D01*
X136779047Y-61269523D01*
X136683809Y-61364761D01*
X136540952Y-61412380D01*
X136445714Y-61412380D01*
X137731428Y-60412380D02*
X137540952Y-60412380D01*
X137445714Y-60460000D01*
X137398095Y-60507619D01*
X137302857Y-60650476D01*
X137255238Y-60840952D01*
X137255238Y-61221904D01*
X137302857Y-61317142D01*
X137350476Y-61364761D01*
X137445714Y-61412380D01*
X137636190Y-61412380D01*
X137731428Y-61364761D01*
X137779047Y-61317142D01*
X137826666Y-61221904D01*
X137826666Y-60983809D01*
X137779047Y-60888571D01*
X137731428Y-60840952D01*
X137636190Y-60793333D01*
X137445714Y-60793333D01*
X137350476Y-60840952D01*
X137302857Y-60888571D01*
X137255238Y-60983809D01*
X95972380Y-86693333D02*
X96686666Y-86693333D01*
X96829523Y-86740952D01*
X96924761Y-86836190D01*
X96972380Y-86979047D01*
X96972380Y-87074285D01*
X96305714Y-85788571D02*
X96972380Y-85788571D01*
X95924761Y-86026666D02*
X96639047Y-86264761D01*
X96639047Y-85645714D01*
X148042380Y-86693333D02*
X148756666Y-86693333D01*
X148899523Y-86740952D01*
X148994761Y-86836190D01*
X149042380Y-86979047D01*
X149042380Y-87074285D01*
X148042380Y-85740952D02*
X148042380Y-86217142D01*
X148518571Y-86264761D01*
X148470952Y-86217142D01*
X148423333Y-86121904D01*
X148423333Y-85883809D01*
X148470952Y-85788571D01*
X148518571Y-85740952D01*
X148613809Y-85693333D01*
X148851904Y-85693333D01*
X148947142Y-85740952D01*
X148994761Y-85788571D01*
X149042380Y-85883809D01*
X149042380Y-86121904D01*
X148994761Y-86217142D01*
X148947142Y-86264761D01*
X102713333Y-88082380D02*
X102380000Y-87606190D01*
X102141904Y-88082380D02*
X102141904Y-87082380D01*
X102522857Y-87082380D01*
X102618095Y-87130000D01*
X102665714Y-87177619D01*
X102713333Y-87272857D01*
X102713333Y-87415714D01*
X102665714Y-87510952D01*
X102618095Y-87558571D01*
X102522857Y-87606190D01*
X102141904Y-87606190D01*
X103094285Y-87177619D02*
X103141904Y-87130000D01*
X103237142Y-87082380D01*
X103475238Y-87082380D01*
X103570476Y-87130000D01*
X103618095Y-87177619D01*
X103665714Y-87272857D01*
X103665714Y-87368095D01*
X103618095Y-87510952D01*
X103046666Y-88082380D01*
X103665714Y-88082380D01*
X143343333Y-90622380D02*
X143010000Y-90146190D01*
X142771904Y-90622380D02*
X142771904Y-89622380D01*
X143152857Y-89622380D01*
X143248095Y-89670000D01*
X143295714Y-89717619D01*
X143343333Y-89812857D01*
X143343333Y-89955714D01*
X143295714Y-90050952D01*
X143248095Y-90098571D01*
X143152857Y-90146190D01*
X142771904Y-90146190D01*
X143676666Y-89622380D02*
X144343333Y-89622380D01*
X143914761Y-90622380D01*
X94488095Y-98512380D02*
X94488095Y-99321904D01*
X94535714Y-99417142D01*
X94583333Y-99464761D01*
X94678571Y-99512380D01*
X94869047Y-99512380D01*
X94964285Y-99464761D01*
X95011904Y-99417142D01*
X95059523Y-99321904D01*
X95059523Y-98512380D01*
X95488095Y-98607619D02*
X95535714Y-98560000D01*
X95630952Y-98512380D01*
X95869047Y-98512380D01*
X95964285Y-98560000D01*
X96011904Y-98607619D01*
X96059523Y-98702857D01*
X96059523Y-98798095D01*
X96011904Y-98940952D01*
X95440476Y-99512380D01*
X96059523Y-99512380D01*
X105243333Y-90622380D02*
X104910000Y-90146190D01*
X104671904Y-90622380D02*
X104671904Y-89622380D01*
X105052857Y-89622380D01*
X105148095Y-89670000D01*
X105195714Y-89717619D01*
X105243333Y-89812857D01*
X105243333Y-89955714D01*
X105195714Y-90050952D01*
X105148095Y-90098571D01*
X105052857Y-90146190D01*
X104671904Y-90146190D01*
X106100476Y-89955714D02*
X106100476Y-90622380D01*
X105862380Y-89574761D02*
X105624285Y-90289047D01*
X106243333Y-90289047D01*
D12*
X113030000Y-118050000D02*
X115630000Y-118050000D01*
X113030000Y-120710000D02*
X115630000Y-120710000D01*
X110430000Y-120710000D02*
X110430000Y-119380000D01*
X111760000Y-120710000D02*
X110430000Y-120710000D01*
X113030000Y-120710000D02*
X113030000Y-118050000D01*
X115630000Y-120710000D02*
X115630000Y-118050000D01*
D13*
X104820000Y-109130000D02*
X100920000Y-109130000D01*
X104820000Y-104230000D02*
X100920000Y-104230000D01*
D14*
X107175000Y-109175000D02*
G75*
G03*
X107175000Y-109175000I-100000J0D01*
G01*
D13*
X104820000Y-69760000D02*
X100920000Y-69760000D01*
X104820000Y-64860000D02*
X100920000Y-64860000D01*
D14*
X107175000Y-69805000D02*
G75*
G03*
X107175000Y-69805000I-100000J0D01*
G01*
D12*
X111760000Y-65990000D02*
X113090000Y-65990000D01*
X110430000Y-114370000D02*
X113090000Y-114370000D01*
X113090000Y-68590000D02*
X113090000Y-114370000D01*
X113090000Y-65990000D02*
X113090000Y-67320000D01*
X110430000Y-68590000D02*
X110430000Y-114370000D01*
X110430000Y-68590000D02*
X113090000Y-68590000D01*
D13*
X104820000Y-115480000D02*
X100920000Y-115480000D01*
X104820000Y-110580000D02*
X100920000Y-110580000D01*
D14*
X107175000Y-115525000D02*
G75*
G03*
X107175000Y-115525000I-100000J0D01*
G01*
D13*
X145460000Y-71210000D02*
X141560000Y-71210000D01*
X145460000Y-76110000D02*
X141560000Y-76110000D01*
D14*
X147815000Y-76155000D02*
G75*
G03*
X147815000Y-76155000I-100000J0D01*
G01*
D12*
X115630000Y-59630000D02*
X115630000Y-60960000D01*
X113030000Y-59630000D02*
X110430000Y-59630000D01*
X113030000Y-62290000D02*
X110430000Y-62290000D01*
X114300000Y-59630000D02*
X115630000Y-59630000D01*
X110430000Y-59630000D02*
X110430000Y-62290000D01*
X113030000Y-59630000D02*
X113030000Y-62290000D01*
D13*
X145460000Y-109130000D02*
X141560000Y-109130000D01*
X145460000Y-104230000D02*
X141560000Y-104230000D01*
D14*
X147815000Y-109175000D02*
G75*
G03*
X147815000Y-109175000I-100000J0D01*
G01*
D12*
X143780000Y-77410000D02*
X142130000Y-77410000D01*
X147430000Y-85150000D02*
X147430000Y-77410000D01*
X142130000Y-77410000D02*
X142130000Y-85150000D01*
X142130000Y-85150000D02*
X147430000Y-85150000D01*
X147430000Y-77410000D02*
X145780000Y-77410000D01*
X143780000Y-77410000D02*
G75*
G03*
X145780000Y-77410000I1000000J0D01*
G01*
D13*
X145460000Y-115480000D02*
X141560000Y-115480000D01*
X145460000Y-110580000D02*
X141560000Y-110580000D01*
D14*
X147815000Y-115525000D02*
G75*
G03*
X147815000Y-115525000I-100000J0D01*
G01*
D12*
X134560000Y-65980000D02*
X135890000Y-65980000D01*
X133230000Y-68580000D02*
X133230000Y-114360000D01*
X133230000Y-114360000D02*
X135890000Y-114360000D01*
X135890000Y-68580000D02*
X135890000Y-114360000D01*
X135890000Y-65980000D02*
X135890000Y-67310000D01*
X133230000Y-68580000D02*
X135890000Y-68580000D01*
D13*
X104820000Y-71210000D02*
X100920000Y-71210000D01*
X104820000Y-76110000D02*
X100920000Y-76110000D01*
D14*
X107175000Y-76155000D02*
G75*
G03*
X107175000Y-76155000I-100000J0D01*
G01*
D12*
X100610000Y-77410000D02*
X98960000Y-77410000D01*
X98960000Y-85150000D02*
X104260000Y-85150000D01*
X104260000Y-85150000D02*
X104260000Y-77410000D01*
X98960000Y-77410000D02*
X98960000Y-85150000D01*
X104260000Y-77410000D02*
X102610000Y-77410000D01*
X100610000Y-77410000D02*
G75*
G03*
X102610000Y-77410000I1000000J0D01*
G01*
D13*
X145460000Y-64860000D02*
X141560000Y-64860000D01*
X145460000Y-69760000D02*
X141560000Y-69760000D01*
D14*
X147815000Y-69805000D02*
G75*
G03*
X147815000Y-69805000I-100000J0D01*
G01*
D12*
X142140000Y-95205000D02*
X142140000Y-102945000D01*
X143790000Y-95205000D02*
X142140000Y-95205000D01*
X142140000Y-102945000D02*
X147440000Y-102945000D01*
X147440000Y-95205000D02*
X145790000Y-95205000D01*
X147440000Y-102945000D02*
X147440000Y-95205000D01*
X143790000Y-95205000D02*
G75*
G03*
X145790000Y-95205000I1000000J0D01*
G01*
X133350000Y-59630000D02*
X135950000Y-59630000D01*
X132080000Y-62290000D02*
X130750000Y-62290000D01*
X135950000Y-62290000D02*
X135950000Y-59630000D01*
X133350000Y-62290000D02*
X135950000Y-62290000D01*
X130750000Y-62290000D02*
X130750000Y-60960000D01*
X133350000Y-62290000D02*
X133350000Y-59630000D01*
X96460000Y-90170000D02*
X96460000Y-92770000D01*
X96460000Y-88900000D02*
X96460000Y-87570000D01*
X99120000Y-90170000D02*
X99120000Y-92770000D01*
X96460000Y-90170000D02*
X99120000Y-90170000D01*
X96460000Y-87570000D02*
X97790000Y-87570000D01*
X96460000Y-92770000D02*
X99120000Y-92770000D01*
X147260000Y-92770000D02*
X149920000Y-92770000D01*
X147260000Y-88900000D02*
X147260000Y-87570000D01*
X149920000Y-90170000D02*
X149920000Y-92770000D01*
X147260000Y-87570000D02*
X148590000Y-87570000D01*
X147260000Y-90170000D02*
X149920000Y-90170000D01*
X147260000Y-90170000D02*
X147260000Y-92770000D01*
X98940000Y-95175000D02*
X98940000Y-102915000D01*
X104240000Y-102915000D02*
X104240000Y-95175000D01*
X102590000Y-102915000D02*
X104240000Y-102915000D01*
X104240000Y-95175000D02*
X98940000Y-95175000D01*
X98940000Y-102915000D02*
X100590000Y-102915000D01*
X102590000Y-102915000D02*
G75*
G03*
X100590000Y-102915000I-1000000J0D01*
G01*
%LPC*%
D15*
X111760000Y-119380000D03*
D16*
X114300000Y-119380000D03*
D17*
X105495000Y-108585000D03*
X105495000Y-107315000D03*
X105495000Y-106045000D03*
X105495000Y-104775000D03*
X100245000Y-104775000D03*
X100245000Y-106045000D03*
X100245000Y-107315000D03*
X100245000Y-108585000D03*
X105495000Y-69215000D03*
X105495000Y-67945000D03*
X105495000Y-66675000D03*
X105495000Y-65405000D03*
X100245000Y-65405000D03*
X100245000Y-66675000D03*
X100245000Y-67945000D03*
X100245000Y-69215000D03*
D15*
X111760000Y-67320000D03*
D16*
X111760000Y-69860000D03*
X111760000Y-72400000D03*
X111760000Y-74940000D03*
X111760000Y-77480000D03*
X111760000Y-80020000D03*
X111760000Y-82560000D03*
X111760000Y-85100000D03*
X111760000Y-87640000D03*
X111760000Y-90180000D03*
X111760000Y-92720000D03*
X111760000Y-95260000D03*
X111760000Y-97800000D03*
X111760000Y-100340000D03*
X111760000Y-102880000D03*
X111760000Y-105420000D03*
X111760000Y-107960000D03*
X111760000Y-110500000D03*
X111760000Y-113040000D03*
D17*
X105495000Y-114935000D03*
X105495000Y-113665000D03*
X105495000Y-112395000D03*
X105495000Y-111125000D03*
X100245000Y-111125000D03*
X100245000Y-112395000D03*
X100245000Y-113665000D03*
X100245000Y-114935000D03*
D18*
X95250000Y-60960000D03*
D17*
X146135000Y-75565000D03*
X146135000Y-74295000D03*
X146135000Y-73025000D03*
X146135000Y-71755000D03*
X140885000Y-71755000D03*
X140885000Y-73025000D03*
X140885000Y-74295000D03*
X140885000Y-75565000D03*
D15*
X114300000Y-60960000D03*
D16*
X111760000Y-60960000D03*
D19*
X141377500Y-88900000D03*
X140562500Y-88900000D03*
D17*
X146135000Y-108585000D03*
X146135000Y-107315000D03*
X146135000Y-106045000D03*
X146135000Y-104775000D03*
X140885000Y-104775000D03*
X140885000Y-106045000D03*
X140885000Y-107315000D03*
X140885000Y-108585000D03*
D20*
X140970000Y-78740000D03*
D21*
X140970000Y-81280000D03*
X140970000Y-83820000D03*
X148590000Y-83820000D03*
X148590000Y-81280000D03*
X148590000Y-78740000D03*
D17*
X146135000Y-114935000D03*
X146135000Y-113665000D03*
X146135000Y-112395000D03*
X146135000Y-111125000D03*
X140885000Y-111125000D03*
X140885000Y-112395000D03*
X140885000Y-113665000D03*
X140885000Y-114935000D03*
D22*
X102462500Y-91440000D03*
X103277500Y-91440000D03*
D15*
X134560000Y-67310000D03*
D16*
X134560000Y-69850000D03*
X134560000Y-72390000D03*
X134560000Y-74930000D03*
X134560000Y-77470000D03*
X134560000Y-80010000D03*
X134560000Y-82550000D03*
X134560000Y-85090000D03*
X134560000Y-87630000D03*
X134560000Y-90170000D03*
X134560000Y-92710000D03*
X134560000Y-95250000D03*
X134560000Y-97790000D03*
X134560000Y-100330000D03*
X134560000Y-102870000D03*
X134560000Y-105410000D03*
X134560000Y-107950000D03*
X134560000Y-110490000D03*
X134560000Y-113030000D03*
D19*
X141377500Y-91440000D03*
X140562500Y-91440000D03*
D17*
X105495000Y-75565000D03*
X105495000Y-74295000D03*
X105495000Y-73025000D03*
X105495000Y-71755000D03*
X100245000Y-71755000D03*
X100245000Y-73025000D03*
X100245000Y-74295000D03*
X100245000Y-75565000D03*
D18*
X153035000Y-60960000D03*
D22*
X105002500Y-88900000D03*
X105817500Y-88900000D03*
D20*
X97800000Y-78740000D03*
D21*
X97800000Y-81280000D03*
X97800000Y-83820000D03*
X105420000Y-83820000D03*
X105420000Y-81280000D03*
X105420000Y-78740000D03*
D18*
X95250000Y-119380000D03*
D17*
X146135000Y-69215000D03*
X146135000Y-67945000D03*
X146135000Y-66675000D03*
X146135000Y-65405000D03*
X140885000Y-65405000D03*
X140885000Y-66675000D03*
X140885000Y-67945000D03*
X140885000Y-69215000D03*
D20*
X140980000Y-96535000D03*
D21*
X140980000Y-99075000D03*
X140980000Y-101615000D03*
X148600000Y-101615000D03*
X148600000Y-99075000D03*
X148600000Y-96535000D03*
D19*
X143917500Y-88900000D03*
X143102500Y-88900000D03*
D15*
X132080000Y-60960000D03*
D16*
X134620000Y-60960000D03*
D18*
X153035000Y-119380000D03*
D15*
X97790000Y-88900000D03*
D16*
X97790000Y-91440000D03*
D15*
X148590000Y-88900000D03*
D16*
X148590000Y-91440000D03*
D19*
X103287500Y-88900000D03*
X102472500Y-88900000D03*
D22*
X143102500Y-91440000D03*
X143917500Y-91440000D03*
D20*
X105400000Y-101585000D03*
D21*
X105400000Y-99045000D03*
X105400000Y-96505000D03*
X97780000Y-96505000D03*
X97780000Y-99045000D03*
X97780000Y-101585000D03*
D22*
X105002500Y-91440000D03*
X105817500Y-91440000D03*
M02*
