G04 #@! TF.GenerationSoftware,KiCad,Pcbnew,(6.0.2)*
G04 #@! TF.CreationDate,2022-11-25T11:25:03-08:00*
G04 #@! TF.ProjectId,robot_pcb,726f626f-745f-4706-9362-2e6b69636164,rev?*
G04 #@! TF.SameCoordinates,Original*
G04 #@! TF.FileFunction,Soldermask,Bot*
G04 #@! TF.FilePolarity,Negative*
%FSLAX46Y46*%
G04 Gerber Fmt 4.6, Leading zero omitted, Abs format (unit mm)*
G04 Created by KiCad (PCBNEW (6.0.2)) date 2022-11-25 11:25:03*
%MOMM*%
%LPD*%
G01*
G04 APERTURE LIST*
%ADD10R,1.700000X1.700000*%
%ADD11O,1.700000X1.700000*%
%ADD12C,2.700000*%
%ADD13R,1.600000X1.600000*%
%ADD14O,1.600000X1.600000*%
G04 APERTURE END LIST*
D10*
X111760000Y-119380000D03*
D11*
X114300000Y-119380000D03*
D10*
X111760000Y-67320000D03*
D11*
X111760000Y-69860000D03*
X111760000Y-72400000D03*
X111760000Y-74940000D03*
X111760000Y-77480000D03*
X111760000Y-80020000D03*
X111760000Y-82560000D03*
X111760000Y-85100000D03*
X111760000Y-87640000D03*
X111760000Y-90180000D03*
X111760000Y-92720000D03*
X111760000Y-95260000D03*
X111760000Y-97800000D03*
X111760000Y-100340000D03*
X111760000Y-102880000D03*
X111760000Y-105420000D03*
X111760000Y-107960000D03*
X111760000Y-110500000D03*
X111760000Y-113040000D03*
D12*
X95250000Y-60960000D03*
D10*
X114300000Y-60960000D03*
D11*
X111760000Y-60960000D03*
D13*
X140970000Y-78740000D03*
D14*
X140970000Y-81280000D03*
X140970000Y-83820000D03*
X148590000Y-83820000D03*
X148590000Y-81280000D03*
X148590000Y-78740000D03*
D10*
X134560000Y-67310000D03*
D11*
X134560000Y-69850000D03*
X134560000Y-72390000D03*
X134560000Y-74930000D03*
X134560000Y-77470000D03*
X134560000Y-80010000D03*
X134560000Y-82550000D03*
X134560000Y-85090000D03*
X134560000Y-87630000D03*
X134560000Y-90170000D03*
X134560000Y-92710000D03*
X134560000Y-95250000D03*
X134560000Y-97790000D03*
X134560000Y-100330000D03*
X134560000Y-102870000D03*
X134560000Y-105410000D03*
X134560000Y-107950000D03*
X134560000Y-110490000D03*
X134560000Y-113030000D03*
D12*
X153035000Y-60960000D03*
D13*
X97800000Y-78740000D03*
D14*
X97800000Y-81280000D03*
X97800000Y-83820000D03*
X105420000Y-83820000D03*
X105420000Y-81280000D03*
X105420000Y-78740000D03*
D12*
X95250000Y-119380000D03*
D13*
X140980000Y-96535000D03*
D14*
X140980000Y-99075000D03*
X140980000Y-101615000D03*
X148600000Y-101615000D03*
X148600000Y-99075000D03*
X148600000Y-96535000D03*
D10*
X132080000Y-60960000D03*
D11*
X134620000Y-60960000D03*
D12*
X153035000Y-119380000D03*
D10*
X97790000Y-88900000D03*
D11*
X97790000Y-91440000D03*
D10*
X148590000Y-88900000D03*
D11*
X148590000Y-91440000D03*
D13*
X105400000Y-101585000D03*
D14*
X105400000Y-99045000D03*
X105400000Y-96505000D03*
X97780000Y-96505000D03*
X97780000Y-99045000D03*
X97780000Y-101585000D03*
M02*
