G04 #@! TF.GenerationSoftware,KiCad,Pcbnew,(6.0.2)*
G04 #@! TF.CreationDate,2022-11-25T11:25:02-08:00*
G04 #@! TF.ProjectId,robot_pcb,726f626f-745f-4706-9362-2e6b69636164,rev?*
G04 #@! TF.SameCoordinates,Original*
G04 #@! TF.FileFunction,Paste,Top*
G04 #@! TF.FilePolarity,Positive*
%FSLAX46Y46*%
G04 Gerber Fmt 4.6, Leading zero omitted, Abs format (unit mm)*
G04 Created by KiCad (PCBNEW (6.0.2)) date 2022-11-25 11:25:02*
%MOMM*%
%LPD*%
G01*
G04 APERTURE LIST*
G04 Aperture macros list*
%AMRoundRect*
0 Rectangle with rounded corners*
0 $1 Rounding radius*
0 $2 $3 $4 $5 $6 $7 $8 $9 X,Y pos of 4 corners*
0 Add a 4 corners polygon primitive as box body*
4,1,4,$2,$3,$4,$5,$6,$7,$8,$9,$2,$3,0*
0 Add four circle primitives for the rounded corners*
1,1,$1+$1,$2,$3*
1,1,$1+$1,$4,$5*
1,1,$1+$1,$6,$7*
1,1,$1+$1,$8,$9*
0 Add four rect primitives between the rounded corners*
20,1,$1+$1,$2,$3,$4,$5,0*
20,1,$1+$1,$4,$5,$6,$7,0*
20,1,$1+$1,$6,$7,$8,$9,0*
20,1,$1+$1,$8,$9,$2,$3,0*%
G04 Aperture macros list end*
%ADD10RoundRect,0.041300X0.748700X0.253700X-0.748700X0.253700X-0.748700X-0.253700X0.748700X-0.253700X0*%
%ADD11RoundRect,0.090000X0.139000X0.090000X-0.139000X0.090000X-0.139000X-0.090000X0.139000X-0.090000X0*%
%ADD12RoundRect,0.090000X-0.139000X-0.090000X0.139000X-0.090000X0.139000X0.090000X-0.139000X0.090000X0*%
G04 APERTURE END LIST*
D10*
X105495000Y-108585000D03*
X105495000Y-107315000D03*
X105495000Y-106045000D03*
X105495000Y-104775000D03*
X100245000Y-104775000D03*
X100245000Y-106045000D03*
X100245000Y-107315000D03*
X100245000Y-108585000D03*
X105495000Y-69215000D03*
X105495000Y-67945000D03*
X105495000Y-66675000D03*
X105495000Y-65405000D03*
X100245000Y-65405000D03*
X100245000Y-66675000D03*
X100245000Y-67945000D03*
X100245000Y-69215000D03*
X105495000Y-114935000D03*
X105495000Y-113665000D03*
X105495000Y-112395000D03*
X105495000Y-111125000D03*
X100245000Y-111125000D03*
X100245000Y-112395000D03*
X100245000Y-113665000D03*
X100245000Y-114935000D03*
X146135000Y-75565000D03*
X146135000Y-74295000D03*
X146135000Y-73025000D03*
X146135000Y-71755000D03*
X140885000Y-71755000D03*
X140885000Y-73025000D03*
X140885000Y-74295000D03*
X140885000Y-75565000D03*
D11*
X141402500Y-88900000D03*
X140537500Y-88900000D03*
D10*
X146135000Y-108585000D03*
X146135000Y-107315000D03*
X146135000Y-106045000D03*
X146135000Y-104775000D03*
X140885000Y-104775000D03*
X140885000Y-106045000D03*
X140885000Y-107315000D03*
X140885000Y-108585000D03*
X146135000Y-114935000D03*
X146135000Y-113665000D03*
X146135000Y-112395000D03*
X146135000Y-111125000D03*
X140885000Y-111125000D03*
X140885000Y-112395000D03*
X140885000Y-113665000D03*
X140885000Y-114935000D03*
D12*
X102437500Y-91440000D03*
X103302500Y-91440000D03*
D11*
X141402500Y-91440000D03*
X140537500Y-91440000D03*
D10*
X105495000Y-75565000D03*
X105495000Y-74295000D03*
X105495000Y-73025000D03*
X105495000Y-71755000D03*
X100245000Y-71755000D03*
X100245000Y-73025000D03*
X100245000Y-74295000D03*
X100245000Y-75565000D03*
D12*
X104977500Y-88900000D03*
X105842500Y-88900000D03*
D10*
X146135000Y-69215000D03*
X146135000Y-67945000D03*
X146135000Y-66675000D03*
X146135000Y-65405000D03*
X140885000Y-65405000D03*
X140885000Y-66675000D03*
X140885000Y-67945000D03*
X140885000Y-69215000D03*
D11*
X143077500Y-88900000D03*
X143942500Y-88900000D03*
X102447500Y-88900000D03*
X103312500Y-88900000D03*
D12*
X143077500Y-91440000D03*
X143942500Y-91440000D03*
X105842500Y-91440000D03*
X104977500Y-91440000D03*
M02*
