%TF.GenerationSoftware,KiCad,Pcbnew,(6.0.2)*%
%TF.CreationDate,2022-03-02T22:32:20-08:00*%
%TF.ProjectId,node,6e6f6465-2e6b-4696-9361-645f70636258,rev?*%
%TF.SameCoordinates,Original*%
%TF.FileFunction,Soldermask,Bot*%
%TF.FilePolarity,Negative*%
%FSLAX46Y46*%
G04 Gerber Fmt 4.6, Leading zero omitted, Abs format (unit mm)*
G04 Created by KiCad (PCBNEW (6.0.2)) date 2022-03-02 22:32:20*
%MOMM*%
%LPD*%
G01*
G04 APERTURE LIST*
G04 Aperture macros list*
%AMRoundRect*
0 Rectangle with rounded corners*
0 $1 Rounding radius*
0 $2 $3 $4 $5 $6 $7 $8 $9 X,Y pos of 4 corners*
0 Add a 4 corners polygon primitive as box body*
4,1,4,$2,$3,$4,$5,$6,$7,$8,$9,$2,$3,0*
0 Add four circle primitives for the rounded corners*
1,1,$1+$1,$2,$3*
1,1,$1+$1,$4,$5*
1,1,$1+$1,$6,$7*
1,1,$1+$1,$8,$9*
0 Add four rect primitives between the rounded corners*
20,1,$1+$1,$2,$3,$4,$5,0*
20,1,$1+$1,$4,$5,$6,$7,0*
20,1,$1+$1,$6,$7,$8,$9,0*
20,1,$1+$1,$8,$9,$2,$3,0*%
G04 Aperture macros list end*
%ADD10O,1.700000X1.700000*%
%ADD11R,1.700000X1.700000*%
%ADD12RoundRect,0.250000X-0.600000X-0.725000X0.600000X-0.725000X0.600000X0.725000X-0.600000X0.725000X0*%
%ADD13O,1.700000X1.950000*%
%ADD14C,2.800000*%
%ADD15O,2.800000X2.800000*%
%ADD16O,1.700000X2.000000*%
%ADD17RoundRect,0.250000X-0.600000X-0.750000X0.600000X-0.750000X0.600000X0.750000X-0.600000X0.750000X0*%
%ADD18RoundRect,0.250000X-0.725000X0.600000X-0.725000X-0.600000X0.725000X-0.600000X0.725000X0.600000X0*%
%ADD19O,1.950000X1.700000*%
%ADD20C,3.200000*%
G04 APERTURE END LIST*
D10*
%TO.C,J6*%
X52290000Y-46230000D03*
X54830000Y-46230000D03*
X52290000Y-43690000D03*
X54830000Y-43690000D03*
X52290000Y-41150000D03*
X54830000Y-41150000D03*
X52290000Y-38610000D03*
D11*
X54830000Y-38610000D03*
%TD*%
D12*
%TO.C,J1*%
X48874583Y-55587500D03*
D13*
X51374583Y-55587500D03*
X53874583Y-55587500D03*
X56374583Y-55587500D03*
%TD*%
D14*
%TO.C,R1*%
X55164583Y-63507500D03*
D15*
X55164583Y-78747500D03*
%TD*%
D11*
%TO.C,J8*%
X83765418Y-53127500D03*
D10*
X83765418Y-55667500D03*
X83765418Y-58207500D03*
X83765418Y-60747500D03*
X83765418Y-63287500D03*
X83765418Y-65827500D03*
X83765418Y-68367500D03*
X83765418Y-70907500D03*
X83765418Y-73447500D03*
X83765418Y-75987500D03*
X83765418Y-78527500D03*
X83765418Y-81067500D03*
X83765418Y-83607500D03*
X83765418Y-86147500D03*
X83765418Y-88687500D03*
X83765418Y-91227500D03*
X83765418Y-93767500D03*
X83765418Y-96307500D03*
X83765418Y-98847500D03*
%TD*%
D11*
%TO.C,J5*%
X63085418Y-53127500D03*
D10*
X63085418Y-55667500D03*
X63085418Y-58207500D03*
X63085418Y-60747500D03*
X63085418Y-63287500D03*
X63085418Y-65827500D03*
X63085418Y-68367500D03*
X63085418Y-70907500D03*
X63085418Y-73447500D03*
X63085418Y-75987500D03*
X63085418Y-78527500D03*
X63085418Y-81067500D03*
X63085418Y-83607500D03*
X63085418Y-86147500D03*
X63085418Y-88687500D03*
X63085418Y-91227500D03*
X63085418Y-93767500D03*
X63085418Y-96307500D03*
X63085418Y-98847500D03*
%TD*%
D16*
%TO.C,J4*%
X55124583Y-96527500D03*
D17*
X52624583Y-96527500D03*
%TD*%
D12*
%TO.C,J3*%
X48874583Y-87577500D03*
D13*
X51374583Y-87577500D03*
X53874583Y-87577500D03*
X56374583Y-87577500D03*
%TD*%
D18*
%TO.C,J2*%
X47544583Y-66047500D03*
D19*
X47544583Y-68547500D03*
X47544583Y-71047500D03*
X47544583Y-73547500D03*
%TD*%
D20*
%TO.C,REF3*%
X44654583Y-37257500D03*
%TD*%
%TO.C,REF1*%
X85200000Y-105000000D03*
%TD*%
%TO.C,REF2*%
X44654583Y-105000000D03*
%TD*%
%TO.C,REF4*%
X85304583Y-37257500D03*
%TD*%
M02*
