M48
; DRILL file {KiCad (6.0.2)} date Wed Mar  2 22:35:28 2022
; FORMAT={-:-/ absolute / metric / decimal}
; #@! TF.CreationDate,2022-03-02T22:35:28-08:00
; #@! TF.GenerationSoftware,Kicad,Pcbnew,(6.0.2)
; #@! TF.FileFunction,Plated,1,2,PTH
FMAT,2
METRIC
; #@! TA.AperFunction,Plated,PTH,ComponentDrill
T1C0.950
; #@! TA.AperFunction,Plated,PTH,ComponentDrill
T2C1.000
; #@! TA.AperFunction,Plated,PTH,ComponentDrill
T3C1.400
%
G90
G05
T1
X47.545Y-66.047
X47.545Y-68.547
X47.545Y-71.047
X47.545Y-73.547
X48.875Y-55.587
X48.875Y-87.578
X51.375Y-55.587
X51.375Y-87.578
X53.875Y-55.587
X53.875Y-87.578
X56.375Y-55.587
X56.375Y-87.578
T2
X52.29Y-38.61
X52.29Y-41.15
X52.29Y-43.69
X52.29Y-46.23
X52.625Y-96.527
X54.83Y-38.61
X54.83Y-41.15
X54.83Y-43.69
X54.83Y-46.23
X55.125Y-96.527
X63.085Y-53.127
X63.085Y-55.667
X63.085Y-58.207
X63.085Y-60.747
X63.085Y-63.287
X63.085Y-65.828
X63.085Y-68.367
X63.085Y-70.907
X63.085Y-73.447
X63.085Y-75.987
X63.085Y-78.528
X63.085Y-81.067
X63.085Y-83.608
X63.085Y-86.147
X63.085Y-88.688
X63.085Y-91.227
X63.085Y-93.767
X63.085Y-96.307
X63.085Y-98.847
X83.765Y-53.127
X83.765Y-55.667
X83.765Y-58.207
X83.765Y-60.747
X83.765Y-63.287
X83.765Y-65.828
X83.765Y-68.367
X83.765Y-70.907
X83.765Y-73.447
X83.765Y-75.987
X83.765Y-78.528
X83.765Y-81.067
X83.765Y-83.608
X83.765Y-86.147
X83.765Y-88.688
X83.765Y-91.227
X83.765Y-93.767
X83.765Y-96.307
X83.765Y-98.847
T3
X55.165Y-63.508
X55.165Y-78.748
T0
M30
