%TF.GenerationSoftware,KiCad,Pcbnew,(6.0.2)*%
%TF.CreationDate,2022-03-02T22:32:20-08:00*%
%TF.ProjectId,node,6e6f6465-2e6b-4696-9361-645f70636258,rev?*%
%TF.SameCoordinates,Original*%
%TF.FileFunction,Copper,L1,Top*%
%TF.FilePolarity,Positive*%
%FSLAX46Y46*%
G04 Gerber Fmt 4.6, Leading zero omitted, Abs format (unit mm)*
G04 Created by KiCad (PCBNEW (6.0.2)) date 2022-03-02 22:32:20*
%MOMM*%
%LPD*%
G01*
G04 APERTURE LIST*
G04 Aperture macros list*
%AMRoundRect*
0 Rectangle with rounded corners*
0 $1 Rounding radius*
0 $2 $3 $4 $5 $6 $7 $8 $9 X,Y pos of 4 corners*
0 Add a 4 corners polygon primitive as box body*
4,1,4,$2,$3,$4,$5,$6,$7,$8,$9,$2,$3,0*
0 Add four circle primitives for the rounded corners*
1,1,$1+$1,$2,$3*
1,1,$1+$1,$4,$5*
1,1,$1+$1,$6,$7*
1,1,$1+$1,$8,$9*
0 Add four rect primitives between the rounded corners*
20,1,$1+$1,$2,$3,$4,$5,0*
20,1,$1+$1,$4,$5,$6,$7,0*
20,1,$1+$1,$6,$7,$8,$9,0*
20,1,$1+$1,$8,$9,$2,$3,0*%
G04 Aperture macros list end*
%TA.AperFunction,ComponentPad*%
%ADD10O,1.700000X1.700000*%
%TD*%
%TA.AperFunction,ComponentPad*%
%ADD11R,1.700000X1.700000*%
%TD*%
%TA.AperFunction,ComponentPad*%
%ADD12RoundRect,0.250000X-0.600000X-0.725000X0.600000X-0.725000X0.600000X0.725000X-0.600000X0.725000X0*%
%TD*%
%TA.AperFunction,ComponentPad*%
%ADD13O,1.700000X1.950000*%
%TD*%
%TA.AperFunction,ComponentPad*%
%ADD14C,2.800000*%
%TD*%
%TA.AperFunction,ComponentPad*%
%ADD15O,2.800000X2.800000*%
%TD*%
%TA.AperFunction,ComponentPad*%
%ADD16O,1.700000X2.000000*%
%TD*%
%TA.AperFunction,ComponentPad*%
%ADD17RoundRect,0.250000X-0.600000X-0.750000X0.600000X-0.750000X0.600000X0.750000X-0.600000X0.750000X0*%
%TD*%
%TA.AperFunction,ComponentPad*%
%ADD18RoundRect,0.250000X-0.725000X0.600000X-0.725000X-0.600000X0.725000X-0.600000X0.725000X0.600000X0*%
%TD*%
%TA.AperFunction,ComponentPad*%
%ADD19O,1.950000X1.700000*%
%TD*%
%TA.AperFunction,Conductor*%
%ADD20C,0.250000*%
%TD*%
G04 APERTURE END LIST*
D10*
%TO.P,J6,2,Pin_8*%
%TO.N,Net-(J8-Pad7)*%
X52290000Y-46230000D03*
%TO.P,J6,1,Pin_7*%
%TO.N,unconnected-(J6-Pad1)*%
X54830000Y-46230000D03*
%TO.P,J6,4,Pin_6*%
%TO.N,Net-(J8-Pad8)*%
X52290000Y-43690000D03*
%TO.P,J6,3,Pin_5*%
%TO.N,Net-(J8-Pad2)*%
X54830000Y-43690000D03*
%TO.P,J6,6,Pin_4*%
%TO.N,Net-(J5-Pad8)*%
X52290000Y-41150000D03*
%TO.P,J6,5,Pin_3*%
%TO.N,Net-(J5-Pad9)*%
X54830000Y-41150000D03*
%TO.P,J6,8,Pin_2*%
%TO.N,GND*%
X52290000Y-38610000D03*
D11*
%TO.P,J6,7,Pin_1*%
%TO.N,/3.3V*%
X54830000Y-38610000D03*
%TD*%
D12*
%TO.P,J1,1,Pin_1*%
%TO.N,GND*%
X48874583Y-55587500D03*
D13*
%TO.P,J1,2,Pin_2*%
%TO.N,Net-(J1-Pad2)*%
X51374583Y-55587500D03*
%TO.P,J1,3,Pin_3*%
%TO.N,GND*%
X53874583Y-55587500D03*
%TO.P,J1,4,Pin_4*%
%TO.N,Net-(J1-Pad4)*%
X56374583Y-55587500D03*
%TD*%
D14*
%TO.P,R1,1*%
%TO.N,Net-(J2-Pad3)*%
X55164583Y-63507500D03*
D15*
%TO.P,R1,2*%
%TO.N,/3.3V*%
X55164583Y-78747500D03*
%TD*%
D11*
%TO.P,J8,1,Pin_1*%
%TO.N,unconnected-(J8-Pad1)*%
X83765418Y-53127500D03*
D10*
%TO.P,J8,2,Pin_2*%
%TO.N,Net-(J8-Pad2)*%
X83765418Y-55667500D03*
%TO.P,J8,3,Pin_3*%
%TO.N,Net-(J3-Pad2)*%
X83765418Y-58207500D03*
%TO.P,J8,4,Pin_4*%
%TO.N,unconnected-(J8-Pad4)*%
X83765418Y-60747500D03*
%TO.P,J8,5,Pin_5*%
%TO.N,Net-(J3-Pad1)*%
X83765418Y-63287500D03*
%TO.P,J8,6,Pin_6*%
%TO.N,unconnected-(J8-Pad6)*%
X83765418Y-65827500D03*
%TO.P,J8,7,Pin_7*%
%TO.N,Net-(J8-Pad7)*%
X83765418Y-68367500D03*
%TO.P,J8,8,Pin_8*%
%TO.N,Net-(J8-Pad8)*%
X83765418Y-70907500D03*
%TO.P,J8,9,Pin_9*%
%TO.N,unconnected-(J8-Pad9)*%
X83765418Y-73447500D03*
%TO.P,J8,10,Pin_10*%
%TO.N,unconnected-(J8-Pad10)*%
X83765418Y-75987500D03*
%TO.P,J8,11,Pin_11*%
%TO.N,unconnected-(J8-Pad11)*%
X83765418Y-78527500D03*
%TO.P,J8,12,Pin_12*%
%TO.N,unconnected-(J8-Pad12)*%
X83765418Y-81067500D03*
%TO.P,J8,13,Pin_13*%
%TO.N,unconnected-(J8-Pad13)*%
X83765418Y-83607500D03*
%TO.P,J8,14,Pin_14*%
%TO.N,unconnected-(J8-Pad14)*%
X83765418Y-86147500D03*
%TO.P,J8,15,Pin_15*%
%TO.N,unconnected-(J8-Pad15)*%
X83765418Y-88687500D03*
%TO.P,J8,16,Pin_16*%
%TO.N,unconnected-(J8-Pad16)*%
X83765418Y-91227500D03*
%TO.P,J8,17,Pin_17*%
%TO.N,unconnected-(J8-Pad17)*%
X83765418Y-93767500D03*
%TO.P,J8,18,Pin_18*%
%TO.N,unconnected-(J8-Pad18)*%
X83765418Y-96307500D03*
%TO.P,J8,19,Pin_19*%
%TO.N,unconnected-(J8-Pad19)*%
X83765418Y-98847500D03*
%TD*%
D11*
%TO.P,J5,1,Pin_1*%
%TO.N,/3.3V*%
X63085418Y-53127500D03*
D10*
%TO.P,J5,2,Pin_2*%
%TO.N,unconnected-(J5-Pad2)*%
X63085418Y-55667500D03*
%TO.P,J5,3,Pin_3*%
%TO.N,Net-(J1-Pad2)*%
X63085418Y-58207500D03*
%TO.P,J5,4,Pin_4*%
%TO.N,unconnected-(J5-Pad4)*%
X63085418Y-60747500D03*
%TO.P,J5,5,Pin_5*%
%TO.N,Net-(J1-Pad4)*%
X63085418Y-63287500D03*
%TO.P,J5,6,Pin_6*%
%TO.N,unconnected-(J5-Pad6)*%
X63085418Y-65827500D03*
%TO.P,J5,7,Pin_7*%
%TO.N,Net-(J2-Pad3)*%
X63085418Y-68367500D03*
%TO.P,J5,8,Pin_8*%
%TO.N,Net-(J5-Pad8)*%
X63085418Y-70907500D03*
%TO.P,J5,9,Pin_9*%
%TO.N,Net-(J5-Pad9)*%
X63085418Y-73447500D03*
%TO.P,J5,10,Pin_10*%
%TO.N,unconnected-(J5-Pad10)*%
X63085418Y-75987500D03*
%TO.P,J5,11,Pin_11*%
%TO.N,unconnected-(J5-Pad11)*%
X63085418Y-78527500D03*
%TO.P,J5,12,Pin_12*%
%TO.N,unconnected-(J5-Pad12)*%
X63085418Y-81067500D03*
%TO.P,J5,13,Pin_13*%
%TO.N,unconnected-(J5-Pad13)*%
X63085418Y-83607500D03*
%TO.P,J5,14,Pin_14*%
%TO.N,GND*%
X63085418Y-86147500D03*
%TO.P,J5,15,Pin_15*%
%TO.N,unconnected-(J5-Pad15)*%
X63085418Y-88687500D03*
%TO.P,J5,16,Pin_16*%
%TO.N,unconnected-(J5-Pad16)*%
X63085418Y-91227500D03*
%TO.P,J5,17,Pin_17*%
%TO.N,unconnected-(J5-Pad17)*%
X63085418Y-93767500D03*
%TO.P,J5,18,Pin_18*%
%TO.N,unconnected-(J5-Pad18)*%
X63085418Y-96307500D03*
%TO.P,J5,19,Pin_19*%
%TO.N,Net-(J4-Pad1)*%
X63085418Y-98847500D03*
%TD*%
D16*
%TO.P,J4,2,Pin_2*%
%TO.N,GND*%
X55124583Y-96527500D03*
D17*
%TO.P,J4,1,Pin_1*%
%TO.N,Net-(J4-Pad1)*%
X52624583Y-96527500D03*
%TD*%
D12*
%TO.P,J3,1,Pin_1*%
%TO.N,Net-(J3-Pad1)*%
X48874583Y-87577500D03*
D13*
%TO.P,J3,2,Pin_2*%
%TO.N,Net-(J3-Pad2)*%
X51374583Y-87577500D03*
%TO.P,J3,3,Pin_3*%
%TO.N,GND*%
X53874583Y-87577500D03*
%TO.P,J3,4,Pin_4*%
%TO.N,/3.3V*%
X56374583Y-87577500D03*
%TD*%
D18*
%TO.P,J2,1,Pin_1*%
%TO.N,/3.3V*%
X47544583Y-66047500D03*
D19*
%TO.P,J2,2,Pin_2*%
%TO.N,GND*%
X47544583Y-68547500D03*
%TO.P,J2,3,Pin_3*%
%TO.N,Net-(J2-Pad3)*%
X47544583Y-71047500D03*
%TO.P,J2,4,Pin_4*%
%TO.N,unconnected-(J2-Pad4)*%
X47544583Y-73547500D03*
%TD*%
D20*
%TO.N,/3.3V*%
X60632500Y-44412500D02*
X54830000Y-38610000D01*
X60632500Y-53127500D02*
X60632500Y-44412500D01*
X63085418Y-53127500D02*
X60632500Y-53127500D01*
X47712500Y-66047500D02*
X60632500Y-53127500D01*
X47544583Y-66047500D02*
X47712500Y-66047500D01*
X55164583Y-73667500D02*
X55164583Y-78747500D01*
X47544583Y-66047500D02*
X55164583Y-73667500D01*
%TO.N,Net-(J3-Pad2)*%
X63984212Y-82432989D02*
X80366459Y-66050742D01*
X51374583Y-87577500D02*
X56519094Y-82432989D01*
X56519094Y-82432989D02*
X63984212Y-82432989D01*
X80366459Y-66050742D02*
X80366459Y-61606459D01*
X83765418Y-58207500D02*
X80366459Y-61606459D01*
%TO.N,Net-(J3-Pad1)*%
X50707083Y-89410000D02*
X48874583Y-87577500D01*
X59910000Y-89410000D02*
X50707083Y-89410000D01*
X61997989Y-87322011D02*
X59910000Y-89410000D01*
X64537989Y-87322011D02*
X61997989Y-87322011D01*
X64990000Y-86870000D02*
X64537989Y-87322011D01*
X64990000Y-82062918D02*
X64990000Y-86870000D01*
X83765418Y-63287500D02*
X64990000Y-82062918D01*
%TD*%
M02*
